<svg version="1.1" xmlns:x="&ns_extend;" xmlns:i="&ns_ai;" xmlns:graph="&ns_graphs;"
	 xmlns="http://www.w3.org/2000/svg" xmlns:xlink="http://www.w3.org/1999/xlink" x="0px" y="0px" viewBox="0 0 1920 582"
	 style="enable-background:new 0 0 1920 582;" xml:space="preserve">
<style type="text/css">
	.st0{fill:none;stroke:#333333;stroke-miterlimit:10;}
	.st1{fill:none;}
	.st2{fill:#333333;}
	.st3{font-family:'Karla-Regular';}
	.st4{font-size:22.7px;}
	.st5{opacity:0.5;}
	.st6{fill:#0D8996;}
	.st7{opacity:0.5;fill:#52A7B1;}
	.st8{opacity:0.5;fill:#B2D5DC;}
	.st9{fill:#187F8B;}
	.st10{fill:#52A7B1;}
	.st11{fill:#B2D5DC;}
	.st12{fill:#EBEEF4;}
	.st13{font-family:'Karla-Bold';}
	.st14{font-size:27.24px;}
</style>

	<g i:extraneous="self">
		<g id="grid">
			<g id="XMLID_2960_">
				<g>
					<polyline id="XMLID_200_" class="st0" points="50.9,11.4 49.1,542.2 1895.7,543.1 					"/>
					<line id="XMLID_199_" class="st0" x1="122" y1="561.8" x2="122" y2="545"/>
					<line id="XMLID_198_" class="st0" x1="258.4" y1="561.8" x2="258.4" y2="543.1"/>
					<line id="XMLID_197_" class="st0" x1="394.8" y1="561.8" x2="394.8" y2="543.1"/>
					<line id="XMLID_196_" class="st0" x1="531.3" y1="561.8" x2="531.3" y2="543.1"/>
					<line id="XMLID_195_" class="st0" x1="667.7" y1="561.8" x2="667.7" y2="543.1"/>
					<line id="XMLID_194_" class="st0" x1="804.2" y1="561.8" x2="804.2" y2="543.1"/>
					<line id="XMLID_193_" class="st0" x1="940.6" y1="561.8" x2="940.6" y2="543.1"/>
					<line id="XMLID_192_" class="st0" x1="1077.1" y1="561.8" x2="1077.1" y2="543.1"/>
					<line id="XMLID_191_" class="st0" x1="1213.5" y1="561.8" x2="1213.5" y2="543.1"/>
					<line id="XMLID_190_" class="st0" x1="1349.9" y1="561.8" x2="1349.9" y2="543.1"/>
					<line id="XMLID_189_" class="st0" x1="1486.4" y1="561.8" x2="1486.4" y2="543.1"/>
					<line id="XMLID_188_" class="st0" x1="1622.8" y1="561.8" x2="1622.8" y2="543.1"/>
					<line id="XMLID_187_" class="st0" x1="1759.3" y1="561.8" x2="1759.3" y2="543.1"/>
					<line id="XMLID_185_" class="st0" x1="1895.7" y1="561.8" x2="1895.7" y2="543.1"/>
				</g>
			</g>
			<g id="XMLID_2955_">
				<rect id="XMLID_34_" x="48.1" y="562" class="st1" width="89.8" height="31.8"/>
				<text transform="matrix(1 0 0 1 93.0718 577.4775)" class="st2 st3 st4">2017</text>
			</g>
			<g id="XMLID_2950_">
				<rect id="XMLID_33_" x="182" y="562" class="st1" width="95" height="33.6"/>
				<text transform="matrix(1 0 0 1 228.8618 577.4775)" class="st2 st3 st4">2018</text>
			</g>
			<g id="XMLID_2945_">
				<rect id="XMLID_32_" x="318.4" y="562" class="st1" width="95" height="33.6"/>
				<text transform="matrix(1 0 0 1 366.0757 577.4775)" class="st2 st3 st4">2019</text>
			</g>
			<g id="XMLID_2940_">
				<rect id="XMLID_31_" x="452.2" y="562" class="st1" width="100.3" height="35.5"/>
				<text transform="matrix(1 0 0 1 499.2104 577.4775)" class="st2 st3 st4">2020</text>
			</g>
			<g id="XMLID_2935_">
				<rect id="XMLID_30_" x="591.3" y="562" class="st1" width="95" height="33.6"/>
				<text transform="matrix(1 0 0 1 638.9824 577.4775)" class="st2 st3 st4">2021</text>
			</g>
			<g id="XMLID_2930_">
				<rect id="XMLID_29_" x="725.1" y="562" class="st1" width="100.3" height="35.5"/>
				<text transform="matrix(1 0 0 1 772.4131 577.4775)" class="st2 st3 st4">2022</text>
			</g>
			<g id="XMLID_2925_">
				<rect id="XMLID_28_" x="861.5" y="562" class="st1" width="100.3" height="35.5"/>
				<text transform="matrix(1 0 0 1 908.6055 577.4775)" class="st2 st3 st4">2023</text>
			</g>
			<g id="XMLID_2920_">
				<rect id="XMLID_27_" x="998" y="562" class="st1" width="100.3" height="35.5"/>
				<text transform="matrix(1 0 0 1 1045.7734 577.4775)" class="st2 st3 st4">2024</text>
			</g>
			<g id="XMLID_2915_">
				<rect id="XMLID_26_" x="1134.4" y="562" class="st1" width="100.3" height="35.5"/>
				<text transform="matrix(1 0 0 1 1182.0801 577.4775)" class="st2 st3 st4">2025</text>
			</g>
			<g id="XMLID_2910_">
				<rect id="XMLID_25_" x="1270.8" y="562" class="st1" width="100.3" height="35.5"/>
				<text transform="matrix(1 0 0 1 1318.3398 577.4775)" class="st2 st3 st4">2026</text>
			</g>
			<g id="XMLID_2905_">
				<rect id="XMLID_24_" x="1409.9" y="564.3" class="st1" width="95" height="33.6"/>
				<text transform="matrix(1 0 0 1 1454.4814 579.748)" class="st2 st3 st4">2027</text>
			</g>
			<g id="XMLID_2900_">
				<rect id="XMLID_35_" x="1543.7" y="564.3" class="st1" width="100.3" height="35.5"/>
				<text transform="matrix(1 0 0 1 1590.2715 579.748)" class="st2 st3 st4">2028</text>
			</g>
			<g id="XMLID_2895_">
				<rect id="XMLID_36_" x="1680.2" y="564.3" class="st1" width="100.3" height="35.5"/>
				<text transform="matrix(1 0 0 1 1727.4844 579.748)" class="st2 st3 st4">2029</text>
			</g>
			<g id="XMLID_2890_">
				<rect id="XMLID_37_" x="1814" y="564.3" class="st1" width="105.6" height="37.4"/>
				<text transform="matrix(1 0 0 1 1866.0215 579.748)" class="st2 st3 st4">2030</text>
			</g>
			<g id="XMLID_2855_">
				<path id="XMLID_2888_" d="M11.1,7.2v18.3H8.8V12.1c0-0.4,0-1.1,0.1-2.1c-0.6,0.6-1.4,1.1-2.2,1.6c-0.8,0.5-1.7,0.8-2.6,1l-0.6-2
					c0.4-0.1,1-0.3,1.8-0.6s1.5-0.8,2.2-1.3c0.7-0.5,1.2-1,1.6-1.4H11.1z"/>
				<path id="XMLID_2885_" d="M26.6,7.8c0.9,0.6,1.7,1.6,2.3,2.9l-2.1,1C26.2,9.9,24.9,9,22.9,9c-1,0-1.8,0.3-2.6,1
					c-0.8,0.7-1.3,1.6-1.8,2.8C18.2,14,18,15.3,18,16.8v0.5h0.1c0.3-1.1,0.9-1.9,1.9-2.5c1-0.6,2-0.9,3.1-0.9c1.9,0,3.4,0.5,4.5,1.6
					c1.1,1.1,1.7,2.5,1.7,4.3s-0.6,3.3-1.7,4.3c-1.1,1.1-2.7,1.6-4.6,1.6c-1.5,0-2.8-0.4-3.9-1.2c-1.1-0.8-1.9-1.9-2.4-3.3
					c-0.5-1.4-0.8-3.1-0.8-4.9c0-2,0.3-3.7,0.9-5.1c0.6-1.4,1.5-2.5,2.6-3.2c1.1-0.7,2.3-1.1,3.7-1.1C24.5,6.9,25.7,7.2,26.6,7.8z
					 M20,17.1c-0.7,0.7-1.1,1.6-1.1,2.7c0,1.1,0.4,2.1,1.1,2.8c0.7,0.7,1.7,1.1,2.9,1.1c1.3,0,2.2-0.3,2.9-1
					c0.7-0.7,1.1-1.6,1.1-2.8c0-1.2-0.4-2.1-1.1-2.8c-0.7-0.7-1.7-1-2.9-1C21.7,16,20.8,16.4,20,17.1z"/>
				<path id="XMLID_2883_" d="M11.1,73.9v18.3H8.8V78.8c0-0.4,0-1.1,0.1-2.1c-0.6,0.6-1.4,1.1-2.2,1.6c-0.8,0.5-1.7,0.8-2.6,1
					l-0.6-2c0.4-0.1,1-0.3,1.8-0.6s1.5-0.8,2.2-1.3c0.7-0.5,1.2-1,1.6-1.4H11.1z"/>
				<path id="XMLID_2880_" d="M29.5,87.4h-3.3v4.8h-2.2v-4.8h-9v-1.6l8.4-11.9h2.8v11.6h3.3V87.4z M17.5,85.5h6.6v-6.9l0.1-2.9h-0.1
					c-0.5,0.9-1.1,2-1.8,3.1L17.5,85.5z"/>
				<path id="XMLID_2878_" d="M11.1,140.6V159H8.8v-13.5c0-0.4,0-1.1,0.1-2.1c-0.6,0.6-1.4,1.1-2.2,1.6c-0.8,0.5-1.7,0.8-2.6,1
					l-0.6-2c0.4-0.1,1-0.3,1.8-0.6s1.5-0.8,2.2-1.3c0.7-0.5,1.2-1,1.6-1.4H11.1z"/>
				<path id="XMLID_2876_" d="M16,157.1c2.5-1.9,4.5-3.4,5.8-4.6c1.4-1.2,2.3-2.3,2.9-3.3c0.6-1,0.9-2,0.9-3.1c0-1.1-0.4-2-1.1-2.7
					c-0.7-0.7-1.6-1-2.8-1c-1.2,0-2.2,0.4-3,1.2c-0.8,0.8-1.2,1.9-1.3,3.3l-1.9-1.2c0.2-1.6,0.9-3,2-4c1.1-1,2.6-1.5,4.4-1.5
					c1.2,0,2.3,0.2,3.2,0.7c0.9,0.5,1.7,1.2,2.2,2c0.5,0.9,0.8,1.9,0.8,3c0,1.2-0.3,2.3-0.8,3.4c-0.6,1.1-1.5,2.2-2.8,3.4
					c-1.3,1.2-3,2.5-5.2,4v0c1.2-0.1,2.1-0.1,2.8-0.1h6.4v2.1H16V157.1z"/>
				<path id="XMLID_2874_" d="M11.1,207.3v18.3H8.8v-13.5c0-0.4,0-1.1,0.1-2.1c-0.6,0.6-1.4,1.1-2.2,1.6c-0.8,0.5-1.7,0.8-2.6,1
					l-0.6-2c0.4-0.1,1-0.3,1.8-0.6s1.5-0.8,2.2-1.3c0.7-0.5,1.2-1,1.6-1.4H11.1z"/>
				<path id="XMLID_2871_" d="M17.5,223.5c-1.2-1.6-1.8-4-1.8-7c0-3.1,0.6-5.4,1.8-7c1.2-1.6,2.9-2.4,5.1-2.4s3.9,0.8,5.1,2.4
					c1.2,1.6,1.8,4,1.8,7c0,3.1-0.6,5.4-1.8,7c-1.2,1.6-2.9,2.4-5.1,2.4S18.6,225.1,17.5,223.5z M25.9,222c0.8-1.3,1.2-3.1,1.2-5.5
					s-0.4-4.3-1.2-5.5c-0.8-1.3-1.9-1.9-3.4-1.9s-2.6,0.6-3.4,1.9c-0.8,1.3-1.2,3.1-1.2,5.5s0.4,4.3,1.2,5.5
					c0.8,1.3,1.9,1.9,3.4,1.9S25.1,223.3,25.9,222z"/>
				<path id="XMLID_2867_" d="M15.3,275.1c1.1,0.9,1.6,2,1.6,3.5c0,0.9-0.2,1.8-0.7,2.5c-0.5,0.7-1.1,1.3-1.9,1.6v0
					c1.1,0.4,1.9,1,2.5,1.8c0.6,0.8,0.9,1.8,0.9,2.9c0,1.1-0.3,2-0.8,2.8c-0.5,0.8-1.3,1.4-2.3,1.8c-1,0.4-2.2,0.6-3.5,0.6
					c-1.3,0-2.5-0.2-3.5-0.6c-1-0.4-1.8-1-2.3-1.8c-0.6-0.8-0.8-1.7-0.8-2.8c0-1.1,0.3-2.1,0.9-2.9c0.6-0.8,1.4-1.4,2.5-1.8v0
					c-0.8-0.4-1.5-0.9-1.9-1.6c-0.5-0.7-0.7-1.6-0.7-2.5c0-1.5,0.5-2.7,1.6-3.5c1.1-0.9,2.5-1.3,4.3-1.3
					C12.9,273.8,14.3,274.2,15.3,275.1z M14.3,289.7c0.8-0.6,1.2-1.4,1.2-2.5c0-1.1-0.4-1.9-1.2-2.5c-0.8-0.6-1.8-0.9-3.2-0.9
					c-1.3,0-2.4,0.3-3.2,0.9c-0.8,0.6-1.2,1.4-1.2,2.5s0.4,1.9,1.2,2.5c0.8,0.6,1.8,0.9,3.2,0.9C12.4,290.6,13.5,290.3,14.3,289.7z
					 M8.5,276.7c-0.6,0.5-0.9,1.2-0.9,2.2c0,0.9,0.3,1.6,1,2.1c0.6,0.5,1.5,0.8,2.6,0.8s1.9-0.3,2.6-0.8c0.6-0.5,1-1.2,1-2.1
					c0-0.9-0.3-1.6-0.9-2.2c-0.6-0.5-1.5-0.8-2.6-0.8C10,275.9,9.1,276.1,8.5,276.7z"/>
				<path id="XMLID_2864_" d="M15.3,341.4c0.9,0.6,1.7,1.6,2.3,2.9l-2.1,1c-0.6-1.8-1.9-2.8-3.9-2.8c-1,0-1.8,0.3-2.6,1
					c-0.8,0.7-1.3,1.6-1.8,2.8c-0.4,1.2-0.6,2.5-0.6,3.9v0.5h0.1c0.3-1.1,0.9-1.9,1.9-2.5c1-0.6,2-0.9,3.1-0.9
					c1.9,0,3.4,0.5,4.5,1.6s1.7,2.5,1.7,4.3c0,1.8-0.6,3.3-1.7,4.3c-1.1,1.1-2.7,1.6-4.6,1.6c-1.5,0-2.8-0.4-3.9-1.2
					c-1.1-0.8-1.9-1.9-2.4-3.3s-0.8-3.1-0.8-4.9c0-2,0.3-3.7,0.9-5.1s1.5-2.5,2.6-3.2c1.1-0.7,2.3-1.1,3.7-1.1
					C13.1,340.5,14.3,340.8,15.3,341.4z M8.7,350.7c-0.7,0.7-1.1,1.6-1.1,2.7c0,1.1,0.4,2.1,1.1,2.8c0.7,0.7,1.7,1.1,2.9,1.1
					c1.3,0,2.2-0.3,2.9-1c0.7-0.7,1.1-1.6,1.1-2.8c0-1.2-0.4-2.1-1.1-2.8c-0.7-0.7-1.7-1-2.9-1C10.4,349.6,9.4,350,8.7,350.7z"/>
				<path id="XMLID_2861_" d="M18.2,421h-3.3v4.8h-2.2V421h-9v-1.6l8.4-11.9h2.8v11.6h3.3V421z M6.1,419.1h6.6v-6.9l0.1-2.9h-0.1
					c-0.5,0.9-1.1,2-1.8,3.1L6.1,419.1z"/>
				<path id="XMLID_2859_" d="M4.6,490.7c2.5-1.9,4.5-3.4,5.8-4.6c1.4-1.2,2.3-2.3,2.9-3.3c0.6-1,0.9-2,0.9-3.1c0-1.1-0.4-2-1.1-2.7
					c-0.7-0.7-1.6-1-2.8-1c-1.2,0-2.2,0.4-3,1.2c-0.8,0.8-1.2,1.9-1.3,3.3L4,479.4c0.2-1.6,0.9-3,2-4c1.1-1,2.6-1.5,4.4-1.5
					c1.2,0,2.3,0.2,3.2,0.7c0.9,0.5,1.7,1.2,2.2,2c0.5,0.9,0.8,1.9,0.8,3c0,1.2-0.3,2.3-0.8,3.4c-0.6,1.1-1.5,2.2-2.8,3.4
					c-1.3,1.2-3,2.5-5.2,4v0c1.2-0.1,2.1-0.1,2.8-0.1h6.4v2.1H4.6V490.7z"/>
				<path id="XMLID_2856_" d="M6.1,557.1c-1.2-1.6-1.8-4-1.8-7c0-3.1,0.6-5.4,1.8-7c1.2-1.6,2.9-2.4,5.1-2.4s3.9,0.8,5.1,2.4
					c1.2,1.6,1.8,4,1.8,7c0,3.1-0.6,5.4-1.8,7c-1.2,1.6-2.9,2.4-5.1,2.4S7.2,558.7,6.1,557.1z M14.5,555.6c0.8-1.3,1.2-3.1,1.2-5.5
					s-0.4-4.3-1.2-5.5c-0.8-1.3-1.9-1.9-3.4-1.9s-2.6,0.6-3.4,1.9c-0.8,1.3-1.2,3.1-1.2,5.5s0.4,4.3,1.2,5.5
					c0.8,1.3,1.9,1.9,3.4,1.9S13.8,556.9,14.5,555.6z"/>
			</g>
			<g id="XMLID_2799_">
				<g>
					<path id="XMLID_277_" class="st2" d="M99.9,34.2c-2.4-0.2-4.4-0.9-6-2.1c-1.6-1.2-2.8-2.8-3.5-4.9l3-1.6
						c0.3,1.5,1.1,2.7,2.3,3.8c1.2,1,2.6,1.7,4.2,2v-9.5c-1.8-0.4-3.3-0.8-4.4-1.3c-1.2-0.5-2.1-1.1-2.9-2c-0.8-0.9-1.1-2.1-1.1-3.6
						c0-1.4,0.3-2.6,1-3.7c0.7-1.1,1.7-2,2.9-2.8c1.3-0.7,2.8-1.2,4.5-1.3V3h2.8v4.2c2,0.2,3.7,0.7,5,1.6c1.3,0.9,2.5,2.3,3.4,4.1
						l-2.7,2.1c-0.7-1.6-1.5-2.8-2.3-3.5c-0.9-0.8-2-1.2-3.5-1.4v9.7c1.8,0.4,3.3,0.8,4.4,1.3c1.2,0.5,2.1,1.1,2.9,2.1
						c0.8,0.9,1.2,2.2,1.2,3.7c0,2.1-0.8,3.8-2.3,5.2c-1.5,1.3-3.6,2.1-6.2,2.3v4.2h-2.8V34.2z M99.9,9.9c-1.8,0.2-3.1,0.7-4,1.5
						c-0.9,0.8-1.4,1.9-1.4,3.3c0,1.2,0.5,2.2,1.4,2.8c0.9,0.6,2.2,1.2,4,1.6V9.9z M108.2,27c0-1.3-0.5-2.2-1.4-2.9
						c-0.9-0.7-2.3-1.2-4-1.6v9C106.4,31.2,108.2,29.7,108.2,27z"/>
					<path id="XMLID_275_" class="st2" d="M150.2,10.2h-9.5v24.1h-3.3V10.2H128V7.1h22.2V10.2z"/>
					<path id="XMLID_273_" class="st2" d="M164.5,13.7l-0.7,3.2c-0.7-0.4-1.5-0.5-2.6-0.5c-0.9,0-1.7,0.3-2.6,0.8
						c-0.8,0.5-1.5,1.3-2.1,2.3c-0.5,1-0.8,2.3-0.8,3.7v11.1h-3.3V13.7h2.7l0.5,3.4c1.1-2.5,3.3-3.8,6.6-3.8
						C163.2,13.3,163.9,13.4,164.5,13.7z"/>
					<path id="XMLID_270_" class="st2" d="M169.1,9.1c-0.5-0.5-0.7-1-0.7-1.8c0-0.7,0.2-1.3,0.7-1.8c0.5-0.5,1-0.7,1.8-0.7
						c0.7,0,1.3,0.2,1.8,0.7c0.5,0.5,0.7,1,0.7,1.8c0,0.7-0.2,1.3-0.7,1.8c-0.5,0.5-1,0.7-1.8,0.7C170.2,9.7,169.6,9.5,169.1,9.1z
						 M172.6,34.3h-3.3V13.7h3.3V34.3z"/>
					<path id="XMLID_268_" class="st2" d="M183.3,28.7c0,1,0.2,1.8,0.5,2.2c0.3,0.4,0.9,0.6,1.7,0.6c0.6,0,1.1,0,1.5-0.1
						c0.4-0.1,0.9-0.2,1.5-0.5l-0.5,3.2c-0.9,0.4-1.9,0.6-3,0.6c-1.7,0-2.9-0.5-3.7-1.4c-0.8-0.9-1.2-2.3-1.2-4.2V4.2h3.3V28.7z"/>
					<path id="XMLID_266_" class="st2" d="M195.9,28.7c0,1,0.2,1.8,0.5,2.2c0.3,0.4,0.9,0.6,1.7,0.6c0.6,0,1.1,0,1.5-0.1
						c0.4-0.1,0.9-0.2,1.5-0.5l-0.5,3.2c-0.9,0.4-1.9,0.6-3,0.6c-1.7,0-2.9-0.5-3.7-1.4c-0.8-0.9-1.2-2.3-1.2-4.2V4.2h3.3V28.7z"/>
					<path id="XMLID_263_" class="st2" d="M205.2,9.1c-0.5-0.5-0.7-1-0.7-1.8c0-0.7,0.2-1.3,0.7-1.8c0.5-0.5,1-0.7,1.8-0.7
						s1.3,0.2,1.8,0.7c0.5,0.5,0.7,1,0.7,1.8c0,0.7-0.2,1.3-0.7,1.8c-0.5,0.5-1,0.7-1.8,0.7S205.7,9.5,205.2,9.1z M208.7,34.3h-3.3
						V13.7h3.3V34.3z"/>
					<path id="XMLID_260_" class="st2" d="M232.3,16.1c1.8,1.9,2.7,4.5,2.7,7.9c0,3.3-0.9,6-2.7,7.9c-1.8,1.9-4.2,2.8-7.3,2.8
						c-3.1,0-5.5-0.9-7.3-2.8c-1.8-1.9-2.7-4.5-2.7-7.9c0-3.3,0.9-6,2.7-7.9c1.8-1.9,4.2-2.8,7.3-2.8
						C228.1,13.3,230.5,14.2,232.3,16.1z M220.1,18.2c-1.2,1.4-1.8,3.3-1.8,5.8s0.6,4.4,1.8,5.8c1.2,1.4,2.8,2.1,4.9,2.1
						c2.1,0,3.7-0.7,4.9-2.1c1.2-1.4,1.8-3.3,1.8-5.8s-0.6-4.4-1.8-5.8c-1.2-1.4-2.8-2.1-4.9-2.1C222.9,16.1,221.3,16.8,220.1,18.2z
						"/>
					<path id="XMLID_258_" class="st2" d="M257.1,15.3c1.5,1.3,2.3,3.3,2.3,5.8v13.2H256v-12c0-2.1-0.5-3.7-1.4-4.6
						c-0.9-1-2.1-1.4-3.7-1.4c-1.1,0-2.1,0.2-3.1,0.7c-1,0.5-1.7,1.3-2.4,2.3c-0.6,1.1-0.9,2.4-0.9,4.1v10.9h-3.3V13.7h2.9l0.2,3.2
						c0.7-1.2,1.6-2.1,2.8-2.7c1.2-0.6,2.6-0.9,4.1-0.9C253.6,13.3,255.6,14,257.1,15.3z"/>
				</g>
			</g>
		</g>
		<g id="tot_trasp">
			<g id="XMLID_113_" class="st5">

				<g>
					<path class="st6" d="M1491.1,340.9c-91.6-7.5-244.8,0-271,0s-37.4,9.3-100.9,15c-63.5,5.6-274.8,71-274.8,71
						c-65.4,22.4-108.4,22.4-188.8,37.4c-80.4,15-533.6,34.1-533.6,34.1v34.1h1771.9V310c-42.1,4.7-144.9,15.9-144.9,15.9
						C1691,337.1,1491.1,340.9,1491.1,340.9z"/>
				</g>
			</g>
			<path id="XMLID_112_" class="st7" d="M1624.7,244.6c-24.3,7.5-78.5,16.8-134.6,20.6c-56.1,3.7-257.9,26.2-276.6,29.9
				c-18.7,3.7-115.9,29.9-136.4,33.6c-20.6,3.7-192.5,63.5-192.5,63.5s-48.6,22.4-224.3,56.1s-538.3,43-538.3,43v7
				c0,0,453.2-19.2,533.6-34.1c80.4-15,123.4-15,188.8-37.4c0,0,211.2-65.4,274.8-71c63.5-5.6,74.8-15,100.9-15s179.4-7.5,271,0
				c0,0,200-3.7,257.9-15c0,0,102.8-11.2,144.9-15.9V162.4c0,0-80.4,29.9-125.2,44.9S1649,237.1,1624.7,244.6z"/>
			<path id="XMLID_111_" class="st8" d="M1630.3,123.1c-115.9,33.6-186.9,57.9-416.8,106.5c0,0-140.2,48.6-241.1,97.2
				c0,0-130.8,54.2-160.7,63.5c-29.9,9.3-112.1,29.9-143.9,39.3c-31.8,9.3-164.5,29.9-207.5,31.8L122,491.3c0,0,362.6-9.3,538.3-43
				s224.3-56.1,224.3-56.1s172-59.8,192.5-63.5c20.6-3.7,117.8-29.9,136.4-33.6c18.7-3.7,220.6-26.2,276.6-29.9
				c56.1-3.7,110.3-13.1,134.6-20.6c24.3-7.5,99.1-22.4,143.9-37.4s125.2-44.9,125.2-44.9V11C1893.8,11,1746.2,89.5,1630.3,123.1z"
				/>
			<g id="XMLID_109_" class="st5">
				<path id="XMLID_110_" class="st9" d="M122,495.9l0-4.5c2.8-0.1,286.5-13.3,426.8-31.8c138.2-18.2,219.4-35.4,270.6-52.5
					c30.2-10.1,110.6-36.2,175.2-57.2c42.6-13.8,79.3-25.8,88.3-28.8c22.2-7.4,118.1-30,131.6-32c4.2-0.6,26.9-2.9,58.2-6
					c65.2-6.5,174.4-17.5,220.3-23.9c9.7-1.3,18.8-2.5,27.7-3.7c53.8-7,100.3-13.1,229.6-46.6c5-1.7,120.7-41.8,144.3-50.9l0,9.7
					c-24.1,9.3-140.4,49.2-141.6,49.6l-0.3,0.1c-129.9,33.7-176.7,39.8-230.8,46.9c-8.9,1.2-18,2.4-27.6,3.7
					c-46.1,6.4-151.1,16.9-220.6,23.9c-31.2,3.1-53.8,5.4-57.9,6c-13.4,1.9-108.2,24.3-130.1,31.6c-9,3-45.8,15-88.4,28.8
					c-64.6,21-145,47.1-175.2,57.2c-51.7,17.2-133,32.4-271.8,50.6C409.6,484.6,124.8,495.7,122,495.9z"/>
			</g>
		</g>
		<g id="S_x5F_autopro">
			<g id="XMLID_10_">

				<g>
					<path class="st6" d="M1491.1,340.9c-91.6-7.5-244.8,0-271,0s-37.4,9.3-100.9,15c-63.5,5.6-274.8,71-274.8,71
						c-65.4,22.4-108.4,22.4-188.8,37.4c-80.4,15-533.6,34.1-533.6,34.1v34.1h1771.9V310c-42.1,4.7-144.9,15.9-144.9,15.9
						C1691,337.1,1491.1,340.9,1491.1,340.9z"/>
				</g>
			</g>
		</g>
		<g id="S_x5F_businesdec">
			<path id="XMLID_98_" class="st10" d="M1624.7,244.6c-24.3,7.5-78.5,16.8-134.6,20.6c-56.1,3.7-257.9,26.2-276.6,29.9
				c-18.7,3.7-115.9,29.9-136.4,33.6c-20.6,3.7-192.5,63.5-192.5,63.5s-48.6,22.4-224.3,56.1s-538.3,43-538.3,43v7
				c0,0,453.2-19.2,533.6-34.1c80.4-15,123.4-15,188.8-37.4c0,0,211.2-65.4,274.8-71c63.5-5.6,74.8-15,100.9-15s179.4-7.5,271,0
				c0,0,200-3.7,257.9-15c0,0,102.8-11.2,144.9-15.9V162.4c0,0-80.4,29.9-125.2,44.9S1649,237.1,1624.7,244.6z"/>
		</g>
		<g id="S_x5F_time">
			<g id="XMLID_1_">
				<path id="XMLID_8_" class="st9" d="M122,495.9l0-4.5c2.8-0.1,286.5-13.3,426.8-31.8c138.2-18.2,219.4-35.4,270.6-52.5
					c30.2-10.1,110.6-36.2,175.2-57.2c42.6-13.8,79.3-25.8,88.3-28.8c22.2-7.4,118.1-30,131.6-32c4.2-0.6,26.9-2.9,58.2-6
					c65.2-6.5,174.4-17.5,220.3-23.9c9.7-1.3,18.8-2.5,27.7-3.7c53.8-7,100.3-13.1,229.6-46.6c5-1.7,120.7-41.8,144.3-50.9l0,9.7
					c-24.1,9.3-140.4,49.2-141.6,49.6l-0.3,0.1c-129.9,33.7-176.7,39.8-230.8,46.9c-8.9,1.2-18,2.4-27.6,3.7
					c-46.1,6.4-151.1,16.9-220.6,23.9c-31.2,3.1-53.8,5.4-57.9,6c-13.4,1.9-108.2,24.3-130.1,31.6c-9,3-45.8,15-88.4,28.8
					c-64.6,21-145,47.1-175.2,57.2c-51.7,17.2-133,32.4-271.8,50.6C409.6,484.6,124.8,495.7,122,495.9z"/>
			</g>
		</g>
		<g id="S_x5F_personal">
			<path class="st11" d="M548.7,459.5c138.2-18.2,219.4-35.4,270.6-52.5c30.2-10.1,110.6-36.2,175.2-57.2
				c42.6-13.8,79.3-25.8,88.3-28.8c22.2-7.4,118.1-30,131.6-32c4.2-0.6,26.9-2.9,58.2-6c65.2-6.5,174.4-17.5,220.3-23.9
				c9.7-1.3,18.8-2.5,27.7-3.7c53.8-7,100.3-13.1,229.6-46.6c5-1.7,118.7-41.1,143.6-50.6V11c0,0-147.7,78.5-263.5,112.1
				c-115.9,33.6-186.9,57.9-416.8,106.5c0,0-140.2,48.6-241.1,97.2c0,0-130.8,54.2-160.7,63.5c-29.9,9.3-112.1,29.9-143.9,39.3
				c-31.8,9.3-164.5,29.9-207.5,31.8L122,491.3C125.4,491.2,408.6,478,548.7,459.5z"/>
		</g>
		<g id="L_x5F_autopro">
			<g id="XMLID_2969_">
				<g id="XMLID_2977_">

					<g>
						<rect x="84" y="104" class="st12" width="387.3" height="85.6"/>
					</g>
				</g>
				<g id="XMLID_2970_">
					<g>
						<g id="XMLID_63_">
							<text id="XMLID_64_" transform="matrix(1 0 0 1 131.627 155.5244)" class="st2 st13 st14">Automating processes</text>
						</g>
					</g>
				</g>
			</g>
		</g>
		<g id="L_x5F_businessdec">
			<g id="XMLID_73_">
				<g id="XMLID_84_">
										<g>
						<rect x="81.8" y="104.2" class="st12" width="586.1" height="85.6"/>
					</g>
				</g>
				<g id="XMLID_74_">
					<g>
						<g id="XMLID_61_">
							<text id="XMLID_62_" transform="matrix(1 0 0 1 129.3569 155.7534)" class="st2 st13 st14">Increasing business decision making</text>
						</g>
					</g>
				</g>
			</g>
		</g>
		<g id="L_x5F_time">
			<g id="XMLID_3010_">
				<g id="XMLID_3018_">

					<g>
						<rect x="81.8" y="104.1" class="st12" width="490.3" height="85.6"/>
					</g>
				</g>
				<g id="XMLID_3011_">
					<g>
						<g id="XMLID_58_">
							<text id="XMLID_60_" transform="matrix(1 0 0 1 129.3569 155.6772)" class="st2 st13 st14">Optimizing time and resources</text>
						</g>
					</g>
				</g>
			</g>
		</g>
		<g id="L_x5F_personal">
			<g id="XMLID_3_">
				<g id="XMLID_20_">

					<g>
						<rect x="81.8" y="104" class="st12" width="747.3" height="85.6"/>
					</g>
				</g>
				<g id="XMLID_9_">
					<g>
						<g id="XMLID_59_">
							<text id="XMLID_65_" transform="matrix(1 0 0 1 129.3569 155.6006)" class="st2 st13 st14">Personalizing higher-quality products and services</text>
						</g>
					</g>
				</g>
			</g>
		</g>
	</g>

</svg>
