<?xml version="1.0" encoding="utf-8"?>
<!-- Generator: Adobe Illustrator 19.0.0, SVG Export Plug-In . SVG Version: 6.00 Build 0)  -->
<svg version="1.1" id="_x31_" xmlns="http://www.w3.org/2000/svg" xmlns:xlink="http://www.w3.org/1999/xlink" x="0px" y="0px"
	 viewBox="-146 145 730 520" style="enable-background:new -146 145 730 520;" xml:space="preserve">
<style type="text/css">
	.st0{fill:#EDF0F6;}
	.st1{fill:none;stroke:#8F9299;stroke-width:1.1572;stroke-miterlimit:10;}
	.st2{fill:#87A4BB;}
	.st3{fill:#1C244A;}
	.st4{font-family:'Karla-Regular';}
	.st5{font-size:10.3633px;}
	.st6{fill:#FFFFFF;}
	.st7{fill:#82A1B9;}
	.st8{fill:#7C9CB5;}
	.st9{fill:#7496B1;}
	.st10{fill:#527A9B;}
	.st11{fill:#85A2BA;}
	.st12{fill:#658AA7;}
	.st13{fill:#698EA9;}
	.st14{font-size:7.1746px;}
	.st15{fill:#7093AF;}
	.st16{fill:#39678A;}
	.st17{fill:#5D85A5;}
	.st18{fill:#99B2C6;}
	.st19{font-size:7.9718px;}
	.st20{fill:#FFFFFF;fill-opacity:0;}
	.st21{fill:#0E5782;}
	.st22{opacity:0.9;fill:#0E5782;}
	.st23{opacity:0.8;fill:#0E5782;}
	.st24{opacity:0.7;fill:#0E5782;}
	.st25{opacity:0.6;fill:#0E5782;}
	.st26{opacity:0.5;fill:#0E5782;}
	.st27{opacity:0.4;fill:#0E5782;}
	.st28{opacity:0.3;fill:#0E5782;}
	.st29{opacity:0.2;fill:#0E5782;}
	.st30{opacity:0.1;fill:#0E5782;}
	.st31{fill:#333333;}
	.st32{font-size:10px;}
	.st33{font-family:'MyriadPro-Regular';}
</style>
<g id="treemap">
	<g>
		
			<image style="overflow:visible;opacity:0.3;enable-background:new    ;" width="727" height="463" xlink:href="41E03AC6255B776A.png"  transform="matrix(1 0 0 1 -144.5 155.9088)">
		</image>
		<g>
			<g>
				<rect id="t.professional_13_" x="-30.6" y="330.5" class="st0" width="170" height="99.2"/>
				<rect id="t.health_13_" x="366.6" y="418.2" class="st0" width="212.5" height="196.2"/>
				<rect id="t.administrative_13_" x="148.5" y="419" class="st0" width="208.9" height="195.5"/>
				<rect id="t.finance_13_" x="-140.1" y="498" class="st0" width="101.1" height="116.4"/>
				<rect id="t.manufacturing_13_" x="-30.7" y="454.4" class="st0" width="170" height="160.1"/>
				<rect id="t.transportation_13_" x="-140.7" y="376.8" class="st0" width="100.8" height="105.1"/>
				<rect id="t.information_13_" x="-92.3" y="158.9" class="st0" width="51.8" height="101.6"/>
				<rect id="t.other_13_" x="-140.7" y="280.5" class="st0" width="100.9" height="78.9"/>
				<rect id="t.construction_13_" x="-30.6" y="159.1" class="st0" width="80.4" height="151.1"/>
				<rect id="t.management_13_" x="-139.4" y="158.9" class="st0" width="39.1" height="101.6"/>
				<rect id="t.wholesale_13_" x="60.1" y="159.1" class="st0" width="79.3" height="151.1"/>
				<rect id="t.accomodation_13_" x="148.5" y="159.1" class="st0" width="122.9" height="224.4"/>
				<rect id="t.retail_13_" x="419" y="159.1" class="st0" width="160.1" height="224.4"/>
				<rect id="t.educational_13_" x="280.6" y="159.1" class="st0" width="130.3" height="224.4"/>
			</g>
		</g>
	</g>
	<path id="XMLID_479_" class="st1" d="M-39.1,536.4"/>
	<rect id="a.construction_4_" x="-30.6" y="395.7" class="st2" width="170" height="34.1"/>
	<g id="XMLID_465_">
		<text transform="matrix(1 0 0 1 -30.5557 324.5996)" class="st3 st4 st5">Professional, scientific and tech</text>
	</g>
	<g id="XMLID_453_">
		<path id="XMLID_463_" class="st6" d="M-17.6,401.1c0.5,0.2,0.9,0.6,1.1,1c0.2,0.4,0.4,0.9,0.4,1.4s-0.1,0.9-0.3,1.3
			s-0.4,0.6-0.7,0.9c-0.3,0.2-0.6,0.3-0.9,0.3l0,0c0.4,0,0.7,0.1,1,0.3c0.3,0.2,0.6,0.5,0.8,0.8c0.2,0.4,0.3,0.8,0.3,1.3
			c0,0.6-0.2,1-0.5,1.5s-0.7,0.8-1.3,1s-1.2,0.4-1.9,0.4c-1.8,0-3-0.8-3.7-2.5l1.5-0.7c0.2,0.6,0.4,1,0.7,1.4
			c0.3,0.3,0.8,0.5,1.4,0.5c0.6,0,1.1-0.2,1.4-0.5c0.3-0.3,0.6-0.7,0.6-1.2c0-0.6-0.2-1-0.5-1.2s-0.9-0.3-1.6-0.3h-0.5v-1.3h0.4
			c1.3,0,1.9-0.6,1.9-1.6c0-0.5-0.2-0.9-0.5-1.2c-0.3-0.2-0.7-0.4-1.3-0.4s-1,0.2-1.3,0.4s-0.6,0.6-0.6,1.1l-1.5-0.6
			c0.2-0.7,0.6-1.3,1.3-1.7c0.6-0.4,1.4-0.6,2.2-0.6C-18.7,400.7-18.1,400.8-17.6,401.1z"/>
		<path id="XMLID_460_" class="st6" d="M-5.9,408.5h-1.8v2.6h-1.5v-2.6h-5v-1l4.5-6.6h2v6.4h1.8V408.5z M-12.6,407.2h3.3v-3.5
			l0.1-1.7l0,0c-0.2,0.6-0.6,1.1-1,1.7L-12.6,407.2z"/>
		<path id="XMLID_454_" class="st6" d="M-0.3,401.5c0.5,0.6,0.7,1.2,0.7,2.1s-0.2,1.5-0.7,2.1s-1.1,0.8-1.8,0.8
			c-0.8,0-1.4-0.2-1.8-0.8c-0.5-0.5-0.7-1.2-0.7-2.1s0.2-1.5,0.7-2.1c0.5-0.5,1.1-0.8,1.8-0.8C-1.4,400.7-0.8,401-0.3,401.5z
			 M-3.1,402.3c-0.2,0.3-0.3,0.7-0.3,1.2s0.1,0.9,0.3,1.2c0.2,0.3,0.5,0.4,0.9,0.4s0.7-0.2,0.9-0.4c0.2-0.2,0.3-0.7,0.3-1.2
			c0-0.6-0.1-1-0.3-1.2c-0.2-0.3-0.5-0.4-0.9-0.4C-2.6,402-2.8,402-3.1,402.3z M4.1,400.8h1.4l-6.6,10.1h-1.4L4.1,400.8z M7,406.3
			c0.5,0.6,0.7,1.2,0.7,2.1s-0.2,1.5-0.7,2.1s-1.1,0.8-1.8,0.8c-0.8,0-1.4-0.2-1.8-0.8c-0.5-0.5-0.7-1.2-0.7-2.1s0.2-1.5,0.7-2.1
			c0.5-0.5,1.1-0.8,1.8-0.8S6.5,405.8,7,406.3z M4.2,407.1c-0.2,0.3-0.3,0.7-0.3,1.2c0,0.6,0.1,1,0.3,1.2s0.5,0.4,0.9,0.4
			s0.7-0.2,0.9-0.4c0.2-0.2,0.3-0.7,0.3-1.2s-0.1-0.9-0.3-1.2c-0.2-0.3-0.5-0.4-0.9-0.4C4.7,406.7,4.4,406.9,4.2,407.1z"/>
	</g>
	<rect id="a.helth_1_" x="366.6" y="546.2" class="st7" width="212.5" height="68.2"/>
	<g id="XMLID_452_">
		<text transform="matrix(1 0 0 1 366.6504 412.6279)" class="st3 st4 st5">Health care</text>
	</g>
	<g id="XMLID_440_">
		<path id="XMLID_450_" class="st6" d="M386.3,553.3c0.8,0.4,1.4,0.9,1.8,1.5s0.6,1.4,0.6,2.2c0,0.8-0.2,1.4-0.5,2s-0.6,1-1.1,1.4
			c-0.5,0.3-1,0.5-1.4,0.5v0.1c0.6,0,1.2,0.2,1.7,0.5c0.5,0.3,0.9,0.7,1.2,1.3c0.3,0.6,0.5,1.2,0.5,2c0,0.9-0.2,1.7-0.7,2.3
			c-0.5,0.7-1.2,1.2-2.1,1.6c-0.9,0.4-1.9,0.6-3,0.6c-2.9,0-4.8-1.3-5.7-3.9l2.4-1.1c0.2,1,0.6,1.6,1.2,2.1s1.3,0.7,2.3,0.7
			s1.8-0.2,2.3-0.7c0.6-0.5,0.8-1.1,0.8-1.9c0-0.9-0.2-1.5-0.8-1.8c-0.6-0.4-1.4-0.6-2.5-0.6h-0.8V560h0.6c2,0,3-0.8,3-2.5
			c0-0.8-0.2-1.4-0.7-1.8s-1.1-0.6-1.9-0.6c-0.9,0-1.5,0.2-2.1,0.6c-0.6,0.4-0.8,1-1,1.8l-2.4-1c0.3-1.2,1-2.1,2-2.7
			c1-0.6,2.2-1,3.5-1C384.6,552.7,385.6,552.9,386.3,553.3z"/>
		<path id="XMLID_447_" class="st6" d="M401.9,553.5c0.9,0.6,1.5,1.4,2,2.6l-2.3,1.1c-0.5-1.5-1.5-2.2-3.1-2.2
			c-0.8,0-1.4,0.2-2.1,0.8s-1,1.3-1.4,2.2c-0.3,1-0.5,2-0.5,3.1v0.4h0.1c0.2-0.9,0.8-1.5,1.6-2c0.8-0.5,1.7-0.7,2.6-0.7
			c1,0,2,0.2,2.8,0.6s1.4,1,1.9,1.8c0.5,0.8,0.6,1.7,0.6,2.7c0,1.6-0.5,2.9-1.5,3.8c-1,1-2.4,1.4-4.1,1.4c-2,0-3.6-0.7-4.7-2.2
			s-1.7-3.5-1.7-6c0-1.8,0.2-3.3,0.8-4.5c0.6-1.3,1.4-2.2,2.3-2.8c1-0.6,2.1-1,3.3-1C400,552.7,401,552.9,401.9,553.5z M396.2,561.8
			c-0.6,0.6-0.9,1.3-0.9,2.2s0.3,1.6,0.9,2.2c0.6,0.6,1.4,0.8,2.3,0.8c1,0,1.8-0.2,2.3-0.8c0.6-0.6,0.8-1.3,0.8-2.2
			c0-1-0.2-1.7-0.8-2.2c-0.6-0.5-1.3-0.8-2.3-0.8C397.6,561,396.8,561.2,396.2,561.8z"/>
		<path id="XMLID_441_" class="st6" d="M413.5,553.9c0.7,0.8,1.1,1.9,1.1,3.3c0,1.4-0.4,2.4-1.1,3.3c-0.7,0.8-1.7,1.2-2.9,1.2
			s-2.2-0.4-2.9-1.2c-0.7-0.8-1.1-1.9-1.1-3.3s0.4-2.4,1.1-3.3c0.7-0.8,1.7-1.2,2.9-1.2S412.7,553.1,413.5,553.9z M409.1,555.2
			c-0.3,0.5-0.5,1-0.5,1.9c0,0.8,0.2,1.4,0.5,1.9s0.8,0.6,1.4,0.6s1.1-0.2,1.4-0.6s0.5-1,0.5-1.9c0-0.8-0.2-1.4-0.5-1.9
			s-0.8-0.6-1.4-0.6C409.9,554.5,409.4,554.8,409.1,555.2z M420.3,552.9h2.2l-10.4,16h-2.2L420.3,552.9z M424.9,561.5
			c0.7,0.8,1.1,1.9,1.1,3.3c0,1.4-0.4,2.4-1.1,3.3c-0.7,0.8-1.7,1.2-2.9,1.2c-1.2,0-2.2-0.4-2.9-1.2c-0.7-0.8-1.1-1.9-1.1-3.3
			s0.4-2.4,1.1-3.3c0.7-0.8,1.7-1.2,2.9-1.2C423.2,560.2,424.1,560.6,424.9,561.5z M420.5,562.8c-0.3,0.5-0.5,1-0.5,1.9
			c0,0.8,0.2,1.4,0.5,1.9s0.8,0.6,1.4,0.6s1.1-0.2,1.4-0.6c0.3-0.5,0.5-1.1,0.5-1.9s-0.2-1.4-0.5-1.9s-0.8-0.6-1.4-0.6
			C421.3,562.1,420.9,562.3,420.5,562.8z"/>
	</g>
	<rect id="a.administrative_1_" x="148.5" y="540.8" class="st8" width="208.9" height="73.7"/>
	<g id="XMLID_427_">
		<text transform="matrix(1 0 0 1 148.4922 412.6278)" class="st3 st4 st5">Administrative</text>
	</g>
	<g id="XMLID_414_">
		<path id="XMLID_425_" class="st6" d="M168.6,549.7c0.8,0.4,1.4,1,1.8,1.6c0.4,0.7,0.6,1.4,0.6,2.2c0,0.8-0.2,1.5-0.5,2.2
			c-0.3,0.6-0.7,1.1-1.2,1.4s-1,0.5-1.5,0.5v0.1c0.6,0,1.2,0.2,1.8,0.5c0.6,0.3,1,0.8,1.3,1.4s0.5,1.3,0.5,2.1c0,1-0.2,1.8-0.8,2.5
			c-0.5,0.7-1.2,1.3-2.2,1.7s-2,0.6-3.2,0.6c-3,0-5-1.4-6.1-4.1l2.5-1.2c0.2,1,0.6,1.8,1.2,2.2c0.6,0.5,1.4,0.7,2.4,0.7
			s1.8-0.2,2.4-0.7c0.6-0.5,0.9-1.2,0.9-2c0-0.9-0.2-1.6-0.8-1.9c-0.6-0.4-1.4-0.6-2.6-0.6h-0.8v-2.2h0.7c2.1,0,3.2-0.9,3.2-2.6
			c0-0.9-0.2-1.5-0.7-1.9c-0.5-0.5-1.2-0.6-2.1-0.6c-0.9,0-1.6,0.2-2.2,0.6c-0.6,0.4-0.9,1-1,1.8l-2.5-1c0.3-1.2,1-2.2,2.1-2.8
			c1-0.6,2.2-1,3.7-1C166.7,549.1,167.8,549.3,168.6,549.7z"/>
		<path id="XMLID_422_" class="st6" d="M185.5,551.4c1.1,1.5,1.8,3.7,1.8,6.4c0,2.9-0.6,5-1.8,6.5c-1.1,1.4-2.8,2.2-4.9,2.2
			c-1.5,0-2.8-0.3-3.7-1c-1-0.6-1.7-1.6-2.2-2.8l2.6-1.2c0.2,0.9,0.6,1.5,1.1,2c0.5,0.4,1.2,0.6,2.2,0.6c1.5,0,2.6-0.6,3.2-1.7
			c0.6-1.1,1-2.8,1-4.9v-0.3h-0.1c-0.2,1-0.8,1.7-1.6,2.2c-0.9,0.5-1.8,0.7-2.9,0.7s-2.1-0.2-2.9-0.6c-0.9-0.5-1.5-1-2-1.9
			c-0.5-0.8-0.7-1.8-0.7-2.9c0-1.7,0.6-3,1.6-4.1c1.1-1,2.6-1.5,4.4-1.5C182.8,549.1,184.3,549.9,185.5,551.4z M178.2,552.3
			c-0.6,0.6-0.9,1.4-0.9,2.3c0,1,0.3,1.8,0.9,2.2c0.6,0.6,1.4,0.8,2.4,0.8s1.8-0.3,2.4-0.9c0.6-0.6,0.9-1.3,0.9-2.2
			s-0.3-1.8-0.9-2.3c-0.6-0.6-1.4-0.9-2.4-0.9C179.6,551.5,178.8,551.7,178.2,552.3z"/>
		<path id="XMLID_415_" class="st6" d="M197.2,550.4c0.8,0.9,1.2,2,1.2,3.4s-0.4,2.6-1.2,3.4s-1.8,1.3-3.1,1.3s-2.3-0.4-3.1-1.3
			c-0.8-0.9-1.2-2-1.2-3.4s0.4-2.6,1.2-3.4s1.8-1.3,3.1-1.3C195.3,549.1,196.4,549.5,197.2,550.4z M192.6,551.8
			c-0.3,0.5-0.6,1.1-0.6,2s0.2,1.5,0.6,2c0.4,0.5,0.9,0.7,1.5,0.7s1.2-0.2,1.5-0.7s0.6-1.1,0.6-2s-0.2-1.5-0.6-2
			c-0.3-0.5-0.9-0.7-1.5-0.7C193.4,551.1,192.9,551.3,192.6,551.8z M204.4,549.3h2.3l-11,16.8h-2.4L204.4,549.3z M209.1,558.4
			c0.8,0.9,1.2,2,1.2,3.4s-0.4,2.6-1.2,3.4c-0.8,0.9-1.8,1.3-3.1,1.3s-2.3-0.4-3.1-1.3c-0.8-0.9-1.2-2-1.2-3.4s0.4-2.6,1.2-3.4
			c0.8-0.9,1.8-1.3,3.1-1.3C207.4,557,208.4,557.5,209.1,558.4z M204.6,559.7c-0.3,0.5-0.6,1.1-0.6,2s0.2,1.5,0.6,2
			c0.3,0.5,0.9,0.7,1.5,0.7s1.2-0.2,1.5-0.7s0.6-1.1,0.6-2s-0.2-1.5-0.6-2c-0.3-0.5-0.9-0.7-1.5-0.7
			C205.4,559.1,204.9,559.3,204.6,559.7z"/>
	</g>
	<rect id="a.finance_1_" x="-140.1" y="564.2" class="st9" width="101.1" height="50.3"/>
	<g id="XMLID_413_">
		<text transform="matrix(1 0 0 1 -140.0957 493.9882)" class="st3 st4 st5">Finance</text>
	</g>
	<g id="XMLID_401_">
		<path id="XMLID_410_" class="st6" d="M-123.3,579.1h-2v2.9h-1.8v-2.9h-5.7V578l5.2-7.5h2.3v7.2h2V579.1L-123.3,579.1z
			 M-130.9,577.6h3.8v-4l0.1-1.8l0,0c-0.3,0.6-0.6,1.2-1.1,1.9L-130.9,577.6z"/>
		<path id="XMLID_408_" class="st6" d="M-121.4,580.6c1.5-1,2.7-2,3.5-2.7c0.9-0.7,1.4-1.4,1.8-2c0.4-0.6,0.6-1.3,0.6-1.9
			c0-0.6-0.2-1.1-0.6-1.5c-0.4-0.4-1-0.6-1.6-0.6c-0.7,0-1.3,0.2-1.8,0.7c-0.4,0.5-0.6,1.1-0.7,2l-1.6-0.7c0.1-1.1,0.6-2,1.3-2.6
			c0.7-0.6,1.7-1,2.9-1c0.8,0,1.5,0.2,2.2,0.5c0.6,0.3,1,0.7,1.4,1.3c0.3,0.6,0.5,1.2,0.5,1.8c0,1.1-0.4,2.2-1.2,3.2
			s-2.2,2.2-4.1,3.3l0,0c0.6-0.1,1.2-0.1,1.9-0.1h3.7v1.6h-8.1v-1.3H-121.4z"/>
		<path id="XMLID_402_" class="st6" d="M-106.7,571.2c0.6,0.6,0.8,1.4,0.8,2.3c0,1-0.2,1.8-0.8,2.3c-0.6,0.6-1.3,0.9-2.2,0.9
			s-1.6-0.3-2.2-0.9c-0.6-0.6-0.8-1.4-0.8-2.3c0-1,0.2-1.8,0.8-2.3c0.6-0.6,1.3-0.9,2.2-0.9C-107.9,570.3-107.2,570.6-106.7,571.2z
			 M-109.8,572.1c-0.2,0.3-0.3,0.8-0.3,1.4c0,0.6,0.1,1,0.3,1.4c0.2,0.3,0.6,0.5,1,0.5c0.5,0,0.8-0.2,1-0.5c0.2-0.3,0.3-0.8,0.3-1.4
			c0-0.6-0.1-1-0.3-1.4c-0.2-0.3-0.6-0.5-1-0.5C-109.3,571.7-109.6,571.8-109.8,572.1z M-101.7,570.5h1.6l-7.5,11.6h-1.6
			L-101.7,570.5z M-98.4,576.6c0.6,0.6,0.8,1.4,0.8,2.3c0,0.9-0.2,1.8-0.8,2.3c-0.6,0.6-1.3,0.9-2.2,0.9c-0.9,0-1.6-0.3-2.2-0.9
			c-0.6-0.6-0.8-1.4-0.8-2.3c0-0.9,0.2-1.8,0.8-2.3s1.3-0.9,2.2-0.9C-99.7,575.7-99,576.1-98.4,576.6z M-101.6,577.6
			c-0.2,0.3-0.3,0.8-0.3,1.4c0,0.6,0.1,1,0.3,1.4c0.2,0.3,0.6,0.5,1,0.5c0.5,0,0.8-0.2,1-0.5c0.2-0.3,0.3-0.8,0.3-1.4
			c0-0.6-0.1-1-0.3-1.4c-0.2-0.3-0.6-0.5-1-0.5S-101.4,577.3-101.6,577.6z"/>
	</g>
	<rect id="a.manufacturing_2_" x="-30.7" y="520.1" class="st10" width="170" height="94.4"/>
	<g id="XMLID_388_">
		<text transform="matrix(1 0 0 1 -30.6499 448.5341)" class="st3 st4 st5">Manufacturing</text>
	</g>
	<g id="XMLID_375_">
		<path id="XMLID_386_" class="st6" d="M-11.8,535.8c0.8,0.5,1.4,1,1.8,1.8c0.4,0.8,0.6,1.8,0.6,2.8c0,1.8-0.6,3.2-1.6,4.2
			c-1.1,1-2.6,1.5-4.4,1.5c-1.5,0-2.8-0.3-3.7-0.9c-1-0.6-1.8-1.5-2.3-2.8l2.6-1.4c0.2,0.9,0.6,1.6,1.2,2.1c0.5,0.5,1.3,0.7,2.3,0.7
			s1.8-0.3,2.5-0.9c0.6-0.6,0.9-1.4,0.9-2.4s-0.3-1.8-0.9-2.4c-0.6-0.6-1.4-0.9-2.4-0.9c-1.6,0-2.7,0.5-3.4,1.4l-2.2-0.2l1-9.6h9.7
			v2.3h-7.6l-0.6,4.6l-0.1,0.3l0,0c0.8-0.9,2.1-1.4,3.7-1.4C-13.5,535.2-12.6,535.4-11.8,535.8z"/>
		<path id="XMLID_383_" class="st6" d="M4.6,531.3c1.1,1.5,1.8,3.7,1.8,6.4c0,2.9-0.6,5-1.8,6.5c-1.1,1.4-2.8,2.2-4.9,2.2
			c-1.5,0-2.8-0.3-3.7-1c-1-0.6-1.7-1.6-2.2-2.8l2.6-1.2c0.2,0.9,0.6,1.5,1.1,2c0.5,0.4,1.2,0.6,2.2,0.6c1.5,0,2.6-0.6,3.2-1.7
			c0.6-1.1,1-2.8,1-4.9v-0.3H3.8c-0.2,1-0.8,1.7-1.6,2.2c-0.9,0.5-1.8,0.7-2.9,0.7c-1.1,0-2.1-0.2-2.9-0.6c-0.9-0.5-1.5-1-2-1.9
			c-0.5-0.8-0.7-1.8-0.7-2.9c0-1.7,0.6-3,1.6-4.1c1-1,2.6-1.4,4.4-1.4C1.8,528.9,3.4,529.7,4.6,531.3z M-2.8,532.1
			c-0.6,0.6-0.9,1.4-0.9,2.3c0,0.9,0.3,1.8,0.9,2.2c0.6,0.6,1.4,0.8,2.4,0.8s1.8-0.3,2.4-0.9c0.6-0.6,0.9-1.3,0.9-2.2
			S2.6,532.6,2,532c-0.6-0.6-1.4-0.9-2.4-0.9C-1.4,531.3-2.2,531.6-2.8,532.1z"/>
		<path id="XMLID_377_" class="st6" d="M16.1,530.2c0.8,0.9,1.2,2,1.2,3.4s-0.4,2.6-1.2,3.4s-1.8,1.3-3.1,1.3
			c-1.3,0-2.3-0.4-3.1-1.3c-0.8-0.9-1.2-2-1.2-3.4s0.4-2.6,1.2-3.4c0.8-0.9,1.8-1.3,3.1-1.3C14.4,528.9,15.3,529.3,16.1,530.2z
			 M11.6,531.6c-0.3,0.5-0.6,1.1-0.6,2s0.2,1.5,0.6,2c0.3,0.5,0.9,0.7,1.5,0.7s1.2-0.2,1.5-0.7s0.6-1.1,0.6-2s-0.2-1.5-0.6-2
			c-0.3-0.5-0.9-0.7-1.5-0.7C12.4,530.9,11.9,531.1,11.6,531.6z M23.4,529.2h2.3l-10.9,16.7h-2.4L23.4,529.2z M28.2,538.1
			c0.8,0.9,1.2,2,1.2,3.4s-0.4,2.6-1.2,3.4c-0.8,0.9-1.8,1.3-3.1,1.3c-1.3,0-2.3-0.4-3.1-1.3c-0.8-0.9-1.2-2-1.2-3.4
			s0.4-2.6,1.2-3.4c0.8-0.9,1.8-1.3,3.1-1.3C26.3,536.8,27.4,537.2,28.2,538.1z M23.6,539.5c-0.3,0.5-0.6,1.1-0.6,2s0.2,1.5,0.6,2
			c0.3,0.5,0.9,0.7,1.5,0.7s1.2-0.2,1.5-0.7s0.6-1.1,0.6-2s-0.2-1.5-0.6-2c-0.3-0.5-0.9-0.7-1.5-0.7C24.4,538.8,24,539.1,23.6,539.5
			z"/>
	</g>
	<rect id="a.transportation_2_" x="-140.7" y="420.1" class="st10" width="100.8" height="61.9"/>
	<g id="XMLID_374_">
		<text transform="matrix(1 0 0 1 -140.0958 372.5102)" class="st3 st4 st5">Transportation</text>
	</g>
	<g id="XMLID_362_">
		<path id="XMLID_372_" class="st6" d="M-127.5,430c0.6,0.3,1,0.7,1.3,1.3s0.5,1.2,0.5,1.9c0,1.3-0.4,2.2-1.1,2.9
			c-0.7,0.7-1.8,1-3,1c-1,0-1.9-0.2-2.6-0.6s-1.2-1-1.6-1.9l1.8-1c0.2,0.6,0.5,1.1,0.8,1.4c0.3,0.3,0.9,0.5,1.6,0.5s1.3-0.2,1.7-0.6
			c0.4-0.4,0.6-1,0.6-1.6c0-0.7-0.2-1.3-0.6-1.7c-0.4-0.4-1-0.6-1.7-0.6c-1.1,0-1.9,0.3-2.3,1l-1.6-0.1l0.7-6.5h6.7v1.6h-5.2
			l-0.4,3.2v0.2l0,0c0.6-0.6,1.4-1,2.6-1C-128.7,429.5-128.1,429.7-127.5,430z"/>
		<path id="XMLID_369_" class="st6" d="M-116.3,426.8c0.8,1,1.2,2.6,1.2,4.4c0,2-0.4,3.4-1.2,4.5c-0.8,1.1-1.9,1.5-3.4,1.5
			c-1,0-1.9-0.2-2.6-0.6s-1.2-1.1-1.5-1.9l1.8-0.8c0.2,0.6,0.5,1,0.8,1.4c0.3,0.3,0.9,0.5,1.5,0.5c1,0,1.8-0.4,2.2-1.2
			c0.4-0.8,0.6-1.9,0.6-3.3v-0.2h-0.1c-0.2,0.6-0.6,1.2-1.1,1.5c-0.6,0.3-1.2,0.5-2,0.5c-0.7,0-1.4-0.2-2-0.5s-1-0.7-1.4-1.3
			c-0.3-0.6-0.5-1.2-0.5-2c0-1.2,0.4-2.1,1.1-2.8c0.7-0.6,1.8-1,3-1C-118.2,425.2-117.1,425.7-116.3,426.8z M-121.3,427.5
			c-0.4,0.4-0.6,0.9-0.6,1.6c0,0.6,0.2,1.2,0.6,1.6s1,0.6,1.7,0.6c0.6,0,1.2-0.2,1.6-0.6s0.6-0.9,0.6-1.5s-0.2-1.2-0.6-1.6
			s-1-0.6-1.6-0.6C-120.3,426.8-120.9,427.1-121.3,427.5z"/>
		<path id="XMLID_363_" class="st6" d="M-108.3,426.1c0.6,0.6,0.8,1.4,0.8,2.3s-0.2,1.8-0.8,2.3c-0.6,0.6-1.3,0.9-2.2,0.9
			s-1.6-0.3-2.2-0.9c-0.6-0.6-0.8-1.4-0.8-2.3c0-1,0.2-1.8,0.8-2.3c0.6-0.6,1.3-0.9,2.2-0.9C-109.5,425.2-108.9,425.5-108.3,426.1z
			 M-111.4,427.1c-0.2,0.3-0.3,0.8-0.3,1.4s0.1,1,0.3,1.4s0.6,0.5,1,0.5s0.8-0.2,1-0.5s0.3-0.8,0.3-1.4s-0.1-1-0.3-1.4
			c-0.2-0.3-0.6-0.5-1-0.5S-111.2,426.7-111.4,427.1z M-103.3,425.4h1.6l-7.6,11.6h-1.6L-103.3,425.4z M-100,431.5
			c0.6,0.6,0.8,1.4,0.8,2.3c0,1-0.2,1.8-0.8,2.3s-1.3,0.9-2.2,0.9c-0.9,0-1.6-0.3-2.2-0.9s-0.8-1.4-0.8-2.3s0.2-1.8,0.8-2.3
			c0.6-0.6,1.3-0.9,2.2-0.9C-101.3,430.6-100.6,431-100,431.5z M-103.2,432.6c-0.2,0.3-0.3,0.8-0.3,1.4s0.1,1,0.3,1.4
			c0.2,0.4,0.6,0.5,1,0.5c0.4,0,0.8-0.2,1-0.5c0.2-0.3,0.3-0.8,0.3-1.4s-0.1-1-0.3-1.4c-0.2-0.4-0.6-0.5-1-0.5
			C-102.6,432.1-103,432.2-103.2,432.6z"/>
	</g>
	<rect id="a.information_2_" x="-92.3" y="223" class="st11" width="51.8" height="37.5"/>
	<g id="XMLID_339_">
		<path id="XMLID_348_" class="st6" d="M-82.6,227.1c0.4,0.2,0.7,0.5,1,0.8c0.2,0.3,0.3,0.7,0.3,1.2c0,0.4-0.1,0.8-0.2,1.1
			c-0.2,0.3-0.4,0.6-0.6,0.7c-0.2,0.2-0.5,0.2-0.8,0.2l0,0c0.3,0,0.6,0.1,0.9,0.2c0.2,0.2,0.5,0.4,0.6,0.7c0.2,0.3,0.2,0.6,0.2,1
			c0,0.5-0.2,0.9-0.4,1.3c-0.2,0.4-0.6,0.6-1.1,0.9c-0.5,0.2-1,0.3-1.7,0.3c-1.6,0-2.6-0.7-3.1-2.1l1.3-0.6c0.2,0.5,0.3,0.9,0.6,1.1
			c0.3,0.2,0.7,0.4,1.3,0.4s1-0.2,1.2-0.4c0.3-0.2,0.5-0.6,0.5-1c0-0.5-0.2-0.8-0.4-1c-0.3-0.2-0.7-0.3-1.4-0.3h-0.4v-1.1h0.3
			c1.1,0,1.6-0.5,1.6-1.4c0-0.4-0.2-0.8-0.4-1s-0.6-0.3-1-0.3c-0.5,0-0.8,0.1-1.1,0.3c-0.3,0.2-0.5,0.6-0.6,1l-1.3-0.6
			c0.2-0.6,0.6-1.1,1-1.4c0.6-0.3,1.2-0.5,1.9-0.5C-83.6,226.8-83.1,226.9-82.6,227.1z"/>
		<path id="XMLID_346_" class="st6" d="M-74.7,230.4c0.4,0.2,0.7,0.6,1,1c0.2,0.4,0.3,0.9,0.3,1.4c0,1-0.3,1.7-0.9,2.2
			c-0.6,0.5-1.3,0.8-2.2,0.8c-0.8,0-1.4-0.2-1.9-0.5s-0.9-0.8-1.2-1.4l1.3-0.7c0.2,0.5,0.3,0.8,0.6,1c0.2,0.2,0.6,0.4,1.2,0.4
			c0.6,0,1-0.2,1.3-0.4c0.3-0.3,0.5-0.7,0.5-1.2c0-0.6-0.2-1-0.4-1.3c-0.3-0.3-0.7-0.5-1.3-0.5c-0.8,0-1.4,0.2-1.8,0.7l-1.2-0.1
			l0.6-4.9h5v1.2h-3.9l-0.3,2.4v0.2l0,0c0.4-0.5,1-0.7,1.9-0.7C-75.6,230-75.1,230.2-74.7,230.4z"/>
		<path id="XMLID_340_" class="st6" d="M-68.4,227.4c0.4,0.5,0.6,1,0.6,1.8c0,0.7-0.2,1.3-0.6,1.8s-1,0.6-1.6,0.6s-1.2-0.2-1.6-0.6
			c-0.4-0.5-0.6-1-0.6-1.8s0.2-1.3,0.6-1.8s1-0.6,1.6-0.6C-69.3,226.8-68.8,227-68.4,227.4z M-70.8,228.2c-0.2,0.2-0.2,0.6-0.2,1
			s0.1,0.8,0.2,1c0.2,0.2,0.4,0.4,0.8,0.4c0.3,0,0.6-0.2,0.8-0.4c0.2-0.2,0.2-0.6,0.2-1c0-0.5-0.1-0.8-0.2-1
			c-0.2-0.2-0.5-0.4-0.8-0.4C-70.4,227.8-70.6,227.9-70.8,228.2z M-64.7,226.9h1.2l-5.7,8.7h-1.2L-64.7,226.9z M-62.2,231.5
			c0.4,0.5,0.6,1,0.6,1.8c0,0.7-0.2,1.3-0.6,1.8c-0.4,0.5-1,0.6-1.6,0.6c-0.6,0-1.2-0.2-1.6-0.6c-0.4-0.5-0.6-1-0.6-1.8
			s0.2-1.3,0.6-1.8s1-0.6,1.6-0.6C-63.2,230.9-62.6,231.1-62.2,231.5z M-64.6,232.3c-0.2,0.2-0.2,0.6-0.2,1c0,0.5,0.1,0.8,0.2,1
			c0.2,0.2,0.4,0.4,0.8,0.4c0.3,0,0.6-0.2,0.8-0.4c0.2-0.2,0.2-0.6,0.2-1s-0.1-0.8-0.2-1c-0.2-0.2-0.5-0.4-0.8-0.4
			S-64.4,232.1-64.6,232.3z"/>
	</g>
	<g id="XMLID_338_">
		<text transform="matrix(0.9136 0 0 1 -91.5127 153.4693)" class="st3 st4 st5">Information</text>
	</g>
	<rect id="a.other_services_1_" x="-140.7" y="321" class="st12" width="100.9" height="38.5"/>
	<g id="XMLID_337_">
		<text transform="matrix(1 0 0 1 -140.8931 275.8989)" class="st3 st4 st5">Other services</text>
	</g>
	<g id="XMLID_307_">
		<path id="XMLID_332_" class="st6" d="M-126.3,334h-1.8v2.7h-1.7V334h-5.4v-1.1l4.9-7.2h2.2v6.9h1.8V334z M-133.5,332.7h3.6v-3.8
			l0.1-1.8l0,0c-0.2,0.6-0.6,1.2-1,1.8L-133.5,332.7z"/>
		<path id="XMLID_329_" class="st6" d="M-117.5,327.2c0.7,1,1.1,2.4,1.1,4.1c0,1.8-0.4,3.3-1.1,4.2c-0.7,1-1.8,1.4-3.3,1.4
			c-1,0-1.8-0.2-2.5-0.6s-1.1-1-1.4-1.8l1.7-0.8c0.2,0.6,0.4,1,0.7,1.3c0.3,0.3,0.8,0.4,1.4,0.4c1,0,1.7-0.4,2.1-1.1
			s0.6-1.8,0.6-3.2v-0.2h-0.1c-0.2,0.6-0.5,1.1-1,1.4c-0.6,0.3-1.2,0.5-1.8,0.5c-0.7,0-1.4-0.2-1.9-0.4c-0.6-0.3-1-0.7-1.3-1.3
			c-0.3-0.6-0.5-1.2-0.5-1.8c0-1.1,0.3-2,1-2.6s1.7-1,2.9-1C-119.3,325.7-118.2,326.1-117.5,327.2z M-122.2,327.7
			c-0.4,0.4-0.6,0.9-0.6,1.5s0.2,1.1,0.6,1.5c0.4,0.3,0.9,0.6,1.6,0.6c0.6,0,1.2-0.2,1.5-0.6c0.4-0.4,0.6-0.9,0.6-1.4
			c0-0.6-0.2-1.1-0.6-1.5s-0.9-0.6-1.5-0.6C-121.3,327.2-121.9,327.4-122.2,327.7z"/>
		<path id="XMLID_308_" class="st6" d="M-109.9,326.5c0.5,0.6,0.7,1.3,0.7,2.2s-0.2,1.7-0.7,2.2c-0.5,0.6-1.2,0.9-2,0.9
			c-0.9,0-1.5-0.3-2-0.9s-0.7-1.3-0.7-2.2s0.2-1.7,0.7-2.2c0.5-0.6,1.2-0.9,2-0.9C-111,325.7-110.4,325.9-109.9,326.5z
			 M-112.8,327.4c-0.2,0.3-0.3,0.7-0.3,1.3c0,0.6,0.1,1,0.3,1.3c0.2,0.3,0.6,0.5,1,0.5c0.4,0,0.8-0.2,1-0.5c0.2-0.3,0.3-0.7,0.3-1.3
			c0-0.6-0.1-1-0.3-1.3c-0.2-0.3-0.6-0.5-1-0.5C-112.3,326.9-112.6,327.1-112.8,327.4z M-105.1,325.8h1.5l-7.2,11h-1.5L-105.1,325.8
			z M-102,331.6c0.5,0.6,0.7,1.3,0.7,2.2s-0.2,1.7-0.7,2.2c-0.5,0.6-1.2,0.9-2,0.9c-0.9,0-1.5-0.3-2-0.9s-0.7-1.3-0.7-2.2
			s0.2-1.7,0.7-2.2c0.5-0.6,1.2-0.9,2-0.9C-103.2,330.8-102.6,331.1-102,331.6z M-105,332.6c-0.2,0.3-0.3,0.7-0.3,1.3
			c0,0.6,0.1,1,0.3,1.3s0.6,0.5,1,0.5s0.8-0.2,1-0.5s0.3-0.7,0.3-1.3c0-0.6-0.1-1-0.3-1.3s-0.6-0.5-1-0.5
			C-104.5,332.1-104.8,332.3-105,332.6z"/>
	</g>
	<rect id="a.construction_1_" x="-30.6" y="238.5" class="st13" width="80.4" height="71.7"/>
	<g id="XMLID_305_">
		<g>
			<text id="XMLID_39_" transform="matrix(1 0 0 1 -30.5562 153.4697)" class="st3 st4 st5">Construction</text>
		</g>
	</g>
	<g id="XMLID_292_">
		<path id="XMLID_301_" class="st6" d="M-14.6,252.9h-1.8v2.6H-18v-2.6h-4.9v-1l4.5-6.7h2v6.4h1.8
			C-14.6,251.6-14.6,252.9-14.6,252.9z M-21.3,251.6h3.3v-3.5l0.1-1.7l0,0c-0.2,0.6-0.6,1.1-1,1.7L-21.3,251.6z"/>
		<path id="XMLID_299_" class="st6" d="M-6.3,245.2v1.4c-1.3,1.3-2.2,2.6-2.7,4.1c-0.6,1.4-0.9,3-0.9,4.8h-1.6
			c0-1.7,0.3-3.2,0.9-4.7c0.6-1.5,1.4-2.9,2.6-4.1h-6.1v-1.4L-6.3,245.2L-6.3,245.2z"/>
		<path id="XMLID_293_" class="st6" d="M-0.8,245.9c0.5,0.6,0.7,1.2,0.7,2.1s-0.2,1.5-0.7,2.1s-1.1,0.8-1.9,0.8
			c-0.8,0-1.4-0.2-1.9-0.8c-0.5-0.6-0.7-1.2-0.7-2.1s0.2-1.5,0.7-2.1s1.1-0.8,1.9-0.8C-1.8,245.1-1.2,245.3-0.8,245.9z M-3.6,246.7
			c-0.2,0.3-0.3,0.7-0.3,1.2s0.1,1,0.3,1.2c0.2,0.3,0.5,0.4,0.9,0.4s0.7-0.2,1-0.4c0.2-0.3,0.3-0.7,0.3-1.2c0-0.6-0.1-1-0.3-1.2
			c-0.2-0.3-0.6-0.4-1-0.4C-3,246.3-3.3,246.4-3.6,246.7z M3.7,245.2h1.4l-6.7,10.2H-3L3.7,245.2z M6.6,250.6
			c0.5,0.6,0.7,1.2,0.7,2.1s-0.2,1.5-0.7,2.1s-1.1,0.8-1.9,0.8s-1.4-0.2-1.9-0.8c-0.5-0.6-0.7-1.2-0.7-2.1s0.2-1.5,0.7-2.1
			s1.1-0.8,1.9-0.8C5.5,249.9,6.1,250.2,6.6,250.6z M3.8,251.5c-0.2,0.3-0.3,0.7-0.3,1.2c0,0.6,0.1,1,0.3,1.2
			c0.2,0.3,0.5,0.4,0.9,0.4s0.7-0.2,1-0.4c0.2-0.3,0.3-0.7,0.3-1.2s-0.1-1-0.3-1.2c-0.2-0.3-0.6-0.4-1-0.4S4,251.3,3.8,251.5z"/>
	</g>
	<rect id="a.management_3_" x="-139.4" y="224.3" class="st2" width="39.1" height="36.2"/>
	<g id="XMLID_262_">
		<path id="XMLID_289_" class="st6" d="M-129.7,228.4c0.4,0.2,0.6,0.4,0.9,0.7c0.2,0.3,0.3,0.6,0.3,1c0,0.3-0.1,0.6-0.2,1
			c-0.2,0.2-0.3,0.5-0.6,0.6s-0.5,0.2-0.6,0.2l0,0c0.3,0,0.6,0.1,0.8,0.2c0.2,0.2,0.4,0.3,0.6,0.6c0.2,0.2,0.2,0.6,0.2,1
			c0,0.4-0.1,0.8-0.3,1.1s-0.6,0.6-1,0.8c-0.4,0.2-0.9,0.2-1.4,0.2c-1.4,0-2.2-0.6-2.7-1.8l1.1-0.6c0.1,0.5,0.3,0.8,0.6,1
			c0.2,0.2,0.6,0.3,1.1,0.3s0.8-0.1,1-0.3c0.2-0.2,0.4-0.6,0.4-0.9c0-0.4-0.2-0.7-0.4-0.9c-0.2-0.2-0.6-0.2-1.2-0.2h-0.4v-1h0.2
			c1,0,1.4-0.4,1.4-1.2c0-0.4-0.1-0.6-0.3-0.9c-0.2-0.2-0.6-0.3-1-0.3c-0.4,0-0.7,0.1-1,0.3c-0.3,0.2-0.4,0.5-0.5,0.8l-1.1-0.5
			c0.2-0.6,0.5-1,1-1.3s1-0.5,1.7-0.5C-130.6,228.2-130.1,228.2-129.7,228.4z"/>
		<path id="XMLID_285_" class="st6" d="M-121.1,233.9h-1.3v1.9h-1.1v-1.9h-3.7v-0.7l3.3-4.9h1.5v4.7h1.3L-121.1,233.9L-121.1,233.9z
			 M-126.1,232.9h2.5v-2.6l0.1-1.2l0,0c-0.2,0.4-0.4,0.8-0.7,1.3L-126.1,232.9z"/>
		<path id="XMLID_263_" class="st6" d="M-117,228.7c0.3,0.4,0.6,0.9,0.6,1.5s-0.2,1.1-0.6,1.5c-0.3,0.4-0.8,0.6-1.4,0.6
			s-1-0.2-1.4-0.6s-0.5-0.9-0.5-1.5s0.2-1.1,0.5-1.5s0.8-0.6,1.4-0.6C-117.8,228.2-117.3,228.3-117,228.7z M-119,229.4
			c-0.2,0.2-0.2,0.5-0.2,0.9s0.1,0.6,0.2,0.9c0.2,0.2,0.4,0.3,0.6,0.3c0.3,0,0.6-0.1,0.7-0.3c0.2-0.2,0.2-0.5,0.2-0.9
			s-0.1-0.7-0.2-0.9c-0.2-0.2-0.4-0.3-0.7-0.3S-118.9,229.1-119,229.4z M-113.7,228.2h1l-4.9,7.5h-1L-113.7,228.2z M-111.6,232.3
			c0.3,0.4,0.6,0.9,0.6,1.5s-0.2,1.1-0.6,1.5c-0.3,0.4-0.8,0.6-1.4,0.6s-1-0.2-1.4-0.6c-0.3-0.4-0.6-0.9-0.6-1.5s0.2-1.1,0.6-1.5
			c0.3-0.4,0.8-0.6,1.4-0.6S-112,231.9-111.6,232.3z M-113.6,232.9c-0.2,0.2-0.2,0.5-0.2,0.9s0.1,0.7,0.2,0.9
			c0.2,0.2,0.4,0.3,0.6,0.3c0.3,0,0.6-0.1,0.7-0.3c0.2-0.2,0.2-0.5,0.2-0.9s-0.1-0.6-0.2-0.9c-0.1-0.3-0.4-0.3-0.7-0.3
			C-113.2,232.6-113.5,232.7-113.6,232.9z"/>
	</g>
	<g id="XMLID_261_">
		<g>
			<text id="XMLID_38_" transform="matrix(0.8582 0 0 1 -139.4107 154.2545)" class="st3 st4 st14">Management </text>
		</g>
	</g>
	<rect id="a.wholesale_2_" x="60.1" y="243.2" class="st15" width="79.3" height="67"/>
	<g id="XMLID_260_">
		<g>
			<text id="XMLID_37_" transform="matrix(1 0 0 1 60.0868 153.4691)" class="st3 st4 st5">Wholesale trade</text>
		</g>
	</g>
	<g id="XMLID_247_">
		<path id="XMLID_257_" class="st6" d="M76.9,257.2H75v2.8h-1.7v-2.8h-5.5v-1.1l4.9-7.3h2.2v6.9h1.9L76.9,257.2L76.9,257.2z
			 M69.6,255.7h3.7V252l0.1-1.8l0,0c-0.2,0.6-0.6,1.2-1.1,1.8L69.6,255.7z"/>
		<path id="XMLID_254_" class="st6" d="M87.4,257.2h-1.9v2.8h-1.7v-2.8h-5.5v-1.1l4.9-7.3h2.2v6.9h1.9v1.5H87.4z M80.2,255.7h3.7
			V252l0.1-1.8l0,0c-0.2,0.6-0.6,1.2-1.1,1.8L80.2,255.7z"/>
		<path id="XMLID_248_" class="st6" d="M93.6,249.5c0.5,0.6,0.8,1.4,0.8,2.2s-0.2,1.7-0.8,2.2c-0.6,0.6-1.2,0.9-2.1,0.9
			c-0.9,0-1.5-0.3-2.1-0.9c-0.5-0.6-0.8-1.4-0.8-2.2s0.2-1.7,0.8-2.2c0.5-0.6,1.2-0.9,2.1-0.9C92.4,248.7,93.1,249,93.6,249.5z
			 M90.6,250.4c-0.2,0.3-0.3,0.7-0.3,1.4c0,0.6,0.1,1,0.3,1.3s0.6,0.5,1,0.5s0.8-0.2,1-0.5s0.3-0.7,0.3-1.3c0-0.6-0.1-1-0.3-1.4
			c-0.2-0.3-0.6-0.5-1-0.5C91.2,250,90.8,250.2,90.6,250.4z M98.4,248.8h1.5L92.6,260H91L98.4,248.8z M101.5,254.8
			c0.5,0.6,0.8,1.4,0.8,2.2c0,1-0.2,1.7-0.8,2.2c-0.5,0.6-1.2,0.9-2.1,0.9c-0.9,0-1.5-0.3-2.1-0.9c-0.5-0.6-0.8-1.4-0.8-2.2
			c0-1,0.2-1.7,0.8-2.2c0.5-0.6,1.2-0.9,2.1-0.9S101,254.2,101.5,254.8z M98.5,255.7c-0.2,0.3-0.3,0.7-0.3,1.3c0,0.6,0.1,1,0.3,1.4
			c0.2,0.3,0.6,0.5,1,0.5s0.8-0.2,1-0.5s0.3-0.7,0.3-1.4c0-0.6-0.1-1-0.3-1.3s-0.6-0.5-1-0.5C99,255.3,98.7,255.4,98.5,255.7z"/>
	</g>
	<rect id="a.management_2_" x="148.5" y="218.4" class="st16" width="122.9" height="165.1"/>
	<g id="XMLID_246_">
		<text transform="matrix(1 0 0 1 148.4922 153.4697)" class="st3 st4 st5">Accomodation &amp; food</text>
	</g>
	<g id="XMLID_223_">
		<path id="XMLID_244_" class="st6" d="M171.9,228v2.2c-2,2.1-3.4,4.2-4.3,6.5c-0.9,2.2-1.4,4.8-1.4,7.5h-2.6c0-2.6,0.5-5.1,1.4-7.4
			c1-2.3,2.3-4.5,4.2-6.5h-9.6v-2.4L171.9,228L171.9,228z"/>
		<path id="XMLID_242_" class="st6" d="M182.8,228.3c0.8,0.4,1.4,0.9,1.8,1.6c0.4,0.6,0.6,1.4,0.6,2.2s-0.2,1.4-0.5,2.1
			c-0.3,0.6-0.7,1-1.1,1.4c-0.5,0.3-1,0.5-1.4,0.5v0.1c0.6,0,1.2,0.2,1.7,0.5s1,0.7,1.3,1.4c0.3,0.6,0.5,1.2,0.5,2
			c0,0.9-0.2,1.7-0.7,2.4c-0.5,0.7-1.2,1.3-2.1,1.7c-0.9,0.4-1.9,0.6-3.1,0.6c-2.9,0-4.9-1.3-5.8-3.9l2.4-1.1c0.2,1,0.6,1.7,1.2,2.2
			c0.6,0.5,1.4,0.7,2.3,0.7c1,0,1.8-0.2,2.3-0.7c0.6-0.5,0.8-1.1,0.8-1.9c0-0.9-0.2-1.5-0.8-1.9s-1.4-0.6-2.6-0.6h-0.7v-2.1h0.6
			c2,0,3-0.8,3-2.5c0-0.8-0.2-1.4-0.7-1.8s-1.1-0.6-2-0.6s-1.6,0.2-2.1,0.6c-0.5,0.4-0.9,1-1,1.8l-2.4-1c0.3-1.2,1-2.1,2-2.7
			c1-0.6,2.2-1,3.5-1C181.1,227.8,182,227.9,182.8,228.3z"/>
		<path id="XMLID_224_" class="st6" d="M195.1,229c0.7,0.8,1.1,1.9,1.1,3.3s-0.4,2.5-1.1,3.3s-1.8,1.3-2.9,1.3
			c-1.3,0-2.2-0.4-2.9-1.3c-0.7-0.8-1.1-1.9-1.1-3.3s0.4-2.5,1.1-3.3c0.7-0.8,1.8-1.3,2.9-1.3S194.4,228.2,195.1,229z M190.7,230.4
			c-0.3,0.5-0.5,1.1-0.5,1.9c0,0.8,0.2,1.4,0.5,1.9s0.8,0.6,1.4,0.6c0.6,0,1.1-0.2,1.4-0.6c0.3-0.5,0.5-1.1,0.5-1.9
			c0-0.8-0.2-1.4-0.5-1.9s-0.8-0.6-1.4-0.6C191.5,229.7,191,229.9,190.7,230.4z M202,228h2.2l-10.6,16.2h-2.1L202,228z M206.7,236.7
			c0.7,0.8,1.1,1.9,1.1,3.3s-0.4,2.5-1.1,3.3s-1.8,1.3-2.9,1.3c-1.3,0-2.2-0.4-2.9-1.3c-0.7-0.8-1.1-1.9-1.1-3.3s0.4-2.5,1.1-3.3
			s1.8-1.3,2.9-1.3C204.9,235.4,205.9,235.8,206.7,236.7z M202.3,238.1c-0.3,0.5-0.5,1.1-0.5,1.9s0.2,1.5,0.5,1.9
			c0.3,0.5,0.8,0.6,1.4,0.6s1.1-0.2,1.4-0.6c0.3-0.5,0.5-1.1,0.5-1.9s-0.2-1.4-0.5-1.9s-0.8-0.6-1.4-0.6
			C203.1,237.3,202.6,237.6,202.3,238.1z"/>
	</g>
	<rect id="a.retail_2_" x="419" y="264" class="st17" width="160.1" height="119.5"/>
	<g id="XMLID_222_">
		<text transform="matrix(1 0 0 1 419.0331 153.4697)" class="st3 st4 st5">Retail trade</text>
	</g>
	<g id="XMLID_211_">
		<path id="XMLID_220_" class="st6" d="M441.8,280.2c0.8,0.5,1.4,1,1.8,1.8s0.6,1.7,0.6,2.8c0,1.8-0.6,3.2-1.6,4.2
			c-1.1,1-2.6,1.5-4.3,1.5c-1.5,0-2.8-0.3-3.7-0.9c-1-0.6-1.8-1.5-2.3-2.8l2.6-1.4c0.2,0.9,0.6,1.6,1.1,2.1s1.3,0.7,2.3,0.7
			s1.8-0.2,2.5-0.8c0.6-0.6,0.9-1.4,0.9-2.4s-0.2-1.8-0.8-2.4s-1.4-0.9-2.4-0.9c-1.6,0-2.7,0.5-3.4,1.4l-2.2-0.2l1-9.5h9.6v2.3h-7.6
			l-0.6,4.6l-0.1,0.3l0,0c0.8-0.9,2.1-1.4,3.7-1.4C440,279.6,441,279.7,441.8,280.2z"/>
		<path id="XMLID_218_" class="st6" d="M447.4,288.3c2.2-1.5,3.9-2.9,5.1-3.9s2.1-2.1,2.6-2.9c0.6-0.9,0.8-1.8,0.8-2.7
			s-0.3-1.6-0.9-2.2s-1.4-0.8-2.3-0.8c-1,0-1.9,0.3-2.5,1s-1,1.7-1,2.9l-2.4-1.1c0.2-1.6,0.8-2.9,1.8-3.8s2.5-1.4,4.2-1.4
			c1.2,0,2.2,0.2,3.1,0.7s1.5,1.1,2,1.9s0.7,1.7,0.7,2.7c0,1.6-0.6,3.1-1.8,4.5c-1.2,1.4-3.2,3-5.9,4.9v0.1c0.9-0.1,1.8-0.1,2.8-0.1
			h5.3v2.3h-11.7L447.4,288.3L447.4,288.3z"/>
		<path id="XMLID_212_" class="st6" d="M468.7,274.6c0.8,0.9,1.1,2,1.1,3.3c0,1.4-0.4,2.6-1.1,3.3c-0.8,0.9-1.8,1.3-3.1,1.3
			s-2.3-0.4-3.1-1.3s-1.1-2-1.1-3.3c0-1.4,0.4-2.6,1.1-3.3c0.8-0.9,1.8-1.3,3.1-1.3C466.9,273.3,467.9,273.8,468.7,274.6z
			 M464.2,276c-0.3,0.5-0.6,1.1-0.6,2s0.2,1.5,0.6,2c0.3,0.5,0.9,0.7,1.5,0.7s1.2-0.2,1.5-0.7s0.6-1.1,0.6-2s-0.2-1.5-0.6-2
			c-0.3-0.5-0.9-0.7-1.5-0.7C465,275.3,464.5,275.5,464.2,276z M475.9,273.6h2.3l-10.8,16.7H465L475.9,273.6z M480.7,282.5
			c0.8,0.9,1.1,2,1.1,3.3c0,1.4-0.4,2.6-1.1,3.3c-0.8,0.9-1.8,1.3-3.1,1.3s-2.3-0.4-3.1-1.3s-1.1-2-1.1-3.3c0-1.4,0.4-2.6,1.1-3.3
			c0.8-0.9,1.8-1.3,3.1-1.3S479.9,281.7,480.7,282.5z M476.1,283.9c-0.3,0.5-0.6,1.1-0.6,2s0.2,1.5,0.6,2c0.3,0.5,0.9,0.7,1.5,0.7
			s1.2-0.2,1.5-0.7s0.5-1.1,0.5-2s-0.2-1.5-0.5-2s-0.9-0.7-1.5-0.7C476.9,283.3,476.4,283.5,476.1,283.9z"/>
	</g>
	<rect id="a.educational_1_" x="280.6" y="316.7" class="st18" width="130.3" height="66.9"/>
	<g id="XMLID_210_">
		<text transform="matrix(1 0 0 1 280.6269 153.4697)" class="st3 st4 st5">Educational services</text>
	</g>
	<g id="XMLID_176_">
		<path id="XMLID_208_" class="st6" d="M291.8,336.2c1.6-1.1,2.9-2.1,3.7-2.9c0.9-0.8,1.5-1.5,1.9-2.2c0.4-0.6,0.6-1.4,0.6-2
			s-0.2-1.2-0.6-1.6s-1-0.6-1.7-0.6c-0.8,0-1.4,0.2-1.8,0.8c-0.5,0.5-0.7,1.2-0.8,2.2l-1.8-0.8c0.2-1.2,0.6-2.2,1.4-2.8
			c0.8-0.7,1.8-1,3.1-1c0.9,0,1.7,0.2,2.3,0.5c0.6,0.3,1.1,0.8,1.4,1.4s0.5,1.3,0.5,2c0,1.2-0.5,2.3-1.3,3.3c-0.9,1-2.3,2.2-4.4,3.6
			l0,0c0.6-0.1,1.3-0.1,2-0.1h3.9v1.8h-8.5L291.8,336.2L291.8,336.2z"/>
		<path id="XMLID_206_" class="st6" d="M311.3,325.3v1.7c-1.5,1.5-2.6,3.2-3.3,4.9s-1,3.7-1,5.7h-2c0-2,0.3-3.8,1-5.7
			c0.7-1.8,1.8-3.4,3.2-4.9h-7.3v-1.8L311.3,325.3L311.3,325.3z"/>
		<path id="XMLID_177_" class="st6" d="M318,326.1c0.6,0.6,0.9,1.4,0.9,2.5c0,1-0.3,1.8-0.9,2.5c-0.6,0.6-1.4,1-2.2,1
			c-0.9,0-1.7-0.3-2.2-1s-0.9-1.4-0.9-2.5c0-1,0.3-1.8,0.9-2.5c0.6-0.6,1.4-1,2.2-1C316.6,325.2,317.4,325.5,318,326.1z
			 M314.6,327.1c-0.2,0.3-0.4,0.8-0.4,1.4s0.2,1.1,0.4,1.4c0.2,0.3,0.6,0.5,1.1,0.5s0.9-0.2,1.1-0.5s0.4-0.8,0.4-1.4
			s-0.2-1.1-0.4-1.4s-0.6-0.5-1.1-0.5S314.8,326.8,314.6,327.1z M323.2,325.3h1.8l-8.1,12.3h-1.8L323.2,325.3z M326.7,332
			c0.6,0.6,0.9,1.4,0.9,2.5c0,1-0.3,1.8-0.9,2.5c-0.6,0.6-1.4,1-2.2,1c-0.9,0-1.7-0.3-2.2-1s-0.9-1.4-0.9-2.5c0-1,0.3-1.8,0.9-2.5
			c0.6-0.6,1.4-1,2.2-1C325.4,331,326.2,331.3,326.7,332z M323.4,333c-0.2,0.3-0.4,0.8-0.4,1.4s0.2,1.1,0.4,1.4
			c0.2,0.3,0.6,0.5,1.1,0.5s0.9-0.2,1.1-0.5s0.4-0.8,0.4-1.4s-0.2-1.1-0.4-1.4c-0.2-0.3-0.6-0.5-1.1-0.5
			C324,332.4,323.6,332.6,323.4,333z"/>
	</g>
</g>
<g id="numero_employee">
	<g id="soldi_management">
		<text id="XMLID_175_" transform="matrix(1 0 0 1 -133.1753 252.9061)" class="st6 st4 st19">735.190</text>
	</g>
	<g id="XMLID_172_">
		<text id="XMLID_173_" transform="matrix(1 0 0 1 -133.692 455.5696)" class="st6 st4 st19">3.017.039</text>
	</g>
	<g id="XMLID_170_">
		<text id="XMLID_171_" transform="matrix(1 0 0 1 -131.1378 599.5551)" class="st6 st4 st19">2.392.003</text>
	</g>
	<g id="XMLID_168_">
		<text id="XMLID_169_" transform="matrix(1 0 0 1 -19.3907 565.015)" class="st6 st4 st19">7.169.348</text>
	</g>
	<g id="XMLID_166_">
		<text id="XMLID_167_" transform="matrix(1 0 0 1 161.4248 584.4281)" class="st6 st4 st19">6.959.802</text>
	</g>
	<g id="XMLID_152_">
		<text id="XMLID_153_" transform="matrix(1 0 0 1 380.0731 586.2708)" class="st6 st4 st19">6.599.053</text>
	</g>
	<g id="XMLID_150_">
		<text id="XMLID_151_" transform="matrix(1 0 0 1 -132.8786 350.616)" class="st6 st4 st19">1.896.211</text>
	</g>
	<g id="XMLID_148_">
		<text id="XMLID_149_" transform="matrix(1 0 0 1 -23.1719 424.9465)" class="st6 st4 st19">2.797.719</text>
	</g>
	<g id="XMLID_146_">
		<text id="XMLID_147_" transform="matrix(1 0 0 1 -85.5987 252.7351)" class="st6 st4 st19">960.557</text>
	</g>
	<g id="XMLID_144_">
		<text id="XMLID_145_" transform="matrix(1 0 0 1 -21.4532 271.3162)" class="st6 st4 st19">2.729.929</text>
	</g>
	<g id="XMLID_132_">
		<text id="XMLID_133_" transform="matrix(1 0 0 1 68.2591 275.4129)" class="st6 st4 st19">2.513.529</text>
	</g>
	<g id="XMLID_130_">
		<text id="XMLID_131_" transform="matrix(1 0 0 1 161.7948 262.7278)" class="st6 st4 st19">8.848.407</text>
	</g>
	<g id="XMLID_128_">
		<text id="XMLID_129_" transform="matrix(1 0 0 1 292.4775 355.8977)" class="st6 st4 st19">3.516.791</text>
	</g>
	<g id="XMLID_126_">
		<text id="XMLID_127_" transform="matrix(1 0 0 1 433.7245 309.3392)" class="st6 st4 st19">8.031.182</text>
	</g>
	<rect id="XMLID_124_" x="-137.9" y="226.6" class="st20" width="39.1" height="36.2"/>
	<rect id="XMLID_125_" x="-90.8" y="225.3" class="st20" width="51.8" height="37.5"/>
	<rect id="XMLID_134_" x="-29.1" y="240.8" class="st20" width="80.4" height="71.7"/>
	<rect id="XMLID_135_" x="61.6" y="245.5" class="st20" width="79.3" height="67"/>
	<rect id="XMLID_136_" x="150" y="220.7" class="st20" width="122.9" height="165.1"/>
	<rect id="XMLID_137_" x="282.1" y="319" class="st20" width="130.3" height="66.9"/>
	<rect id="XMLID_138_" x="420.5" y="266.3" class="st20" width="160.1" height="119.5"/>
	<rect id="XMLID_139_" x="368.1" y="548.5" class="st20" width="212.5" height="68.2"/>
	<rect id="XMLID_140_" x="150" y="543.1" class="st20" width="208.9" height="73.7"/>
	<rect id="XMLID_141_" x="-29.2" y="522.4" class="st20" width="170" height="94.4"/>
	<rect id="XMLID_142_" x="-29.1" y="398" class="st20" width="170" height="34.1"/>
	<rect id="XMLID_143_" x="-139.2" y="422.4" class="st20" width="100.8" height="61.9"/>
	<rect id="XMLID_154_" x="-139.2" y="323.3" class="st20" width="100.9" height="38.5"/>
	<rect id="XMLID_155_" x="-138.6" y="566.5" class="st20" width="101.1" height="50.3"/>
</g>
<rect id="XMLID_3813_" x="-138.7" y="633.4" class="st21" width="16.1" height="16.2"/>
<g id="XMLID_2941_">
	<rect id="XMLID_3807_" x="30.1" y="633" class="st21" width="6.1" height="17.1"/>
	<rect id="XMLID_3778_" x="36.2" y="633" class="st22" width="6.1" height="17.1"/>
	<rect id="XMLID_3777_" x="42.3" y="633" class="st23" width="6.1" height="17.1"/>
	<rect id="XMLID_3774_" x="48.5" y="633" class="st24" width="6.1" height="17.1"/>
	<rect id="XMLID_3772_" x="54.6" y="633" class="st25" width="6.1" height="17.1"/>
	<rect id="XMLID_3771_" x="60.8" y="633" class="st26" width="6.1" height="17.1"/>
	<rect id="XMLID_3770_" x="66.9" y="633" class="st27" width="6.1" height="17.1"/>
	<rect id="XMLID_3766_" x="73.1" y="633" class="st28" width="6.1" height="17.1"/>
	<rect id="XMLID_3762_" x="79.2" y="633" class="st29" width="6.1" height="17.1"/>
	<rect id="XMLID_2991_" x="85.3" y="633" class="st30" width="6.1" height="17.1"/>
</g>
<text id="XMLID_3074_" transform="matrix(1 0 0 1 -114.8212 644.4669)"><tspan x="0" y="0" class="st31 st4 st32">n</tspan><tspan x="6" y="0" class="st31 st33 st32">°</tspan><tspan x="9.2" y="0" class="st31 st4 st32">replaceable employees </tspan></text>
<text id="XMLID_3077_" transform="matrix(1 0 0 1 99.8916 644.3744)" class="st31 st4 st32">% automatable employees per sector</text>
</svg>
