<?xml version="1.0" encoding="UTF-8" standalone="no"?>
<!-- Generator: Adobe Illustrator 19.0.0, SVG Export Plug-In . SVG Version: 6.00 Build 0)  -->

<svg
   xmlns:dc="http://purl.org/dc/elements/1.1/"
   xmlns:cc="http://creativecommons.org/ns#"
   xmlns:rdf="http://www.w3.org/1999/02/22-rdf-syntax-ns#"
   xmlns:svg="http://www.w3.org/2000/svg"
   xmlns="http://www.w3.org/2000/svg"
   xmlns:xlink="http://www.w3.org/1999/xlink"
   xmlns:sodipodi="http://sodipodi.sourceforge.net/DTD/sodipodi-0.dtd"
   xmlns:inkscape="http://www.inkscape.org/namespaces/inkscape"
   version="1.1"
   id="Слой_1"
   x="0px"
   y="0px"
   viewBox="-146 144.5 730 520"
   style="enable-background:new -146 144.5 730 520;"
   xml:space="preserve"
   sodipodi:docname="WAGES2.svg"
   inkscape:export-filename="/home/mjh/Desktop/Synthesis/First Phase/fase1/assets/svg/treemap/WAGES2.svg.png"
   inkscape:export-xdpi="96"
   inkscape:export-ydpi="96"
   inkscape:version="0.92.1 r15371"><metadata
     id="metadata21350"><rdf:RDF><cc:Work
         rdf:about=""><dc:format>image/svg+xml</dc:format><dc:type
           rdf:resource="http://purl.org/dc/dcmitype/StillImage" /></cc:Work></rdf:RDF></metadata><defs
     id="defs21348" /><sodipodi:namedview
     pagecolor="#ffffff"
     bordercolor="#666666"
     borderopacity="1"
     objecttolerance="10"
     gridtolerance="10"
     guidetolerance="10"
     inkscape:pageopacity="0"
     inkscape:pageshadow="2"
     inkscape:window-width="834"
     inkscape:window-height="480"
     id="namedview21346"
     showgrid="false"
     inkscape:zoom="0.45384615"
     inkscape:cx="129.23729"
     inkscape:cy="260"
     inkscape:window-x="0"
     inkscape:window-y="27"
     inkscape:window-maximized="0"
     inkscape:current-layer="Слой_1" /><style
     type="text/css"
     id="style21002">
	.duest0{fill:#F4F3F8;}
	.duest1{fill:#631F3B;}
	.duest2{font-family:'Karla', sans-serif;}
	.duest3{font-size:10.2812px;}
	.duest4{fill:#DC9E99;}
	.duest5{fill:#FFFFFF;}
	.duest6{fill:#D8817E;}
	.duest7{fill:#E0ADA8;}
	.duest8{fill:#D1595E;}
	.duest9{fill:#DB9B98;}
	.duest10{fill:#D98C8A;}
	.duest11{fill:#D36D6D;}
	.duest12{fill:#DDA9A4;}
	.duest13{fill:#DEA5A1;}
	.duest14{fill:#E1B6B1;}
	.duest15{fill:#D8827F;}
	.duest16{fill:#DDA19C;}
	.duest17{font-size:7.9086px;}
	.duest18{fill:#FFFFFF;fill-opacity:0;}
	.duest19{font-size:6.3269px;}
	.duest20{fill:#913939;}
	.duest21{opacity:0.9;fill:#913939;}
	.duest22{opacity:0.8;fill:#913939;}
	.duest23{opacity:0.7;fill:#913939;}
	.duest24{opacity:0.6;fill:#913939;}
	.duest25{opacity:0.5;fill:#913939;}
	.duest26{opacity:0.4;fill:#913939;}
	.duest27{opacity:0.3;fill:#913939;}
	.duest28{opacity:0.2;fill:#913939;}
	.duest29{opacity:0.1;fill:#913939;}
	.duest30{fill:#333333;}
	.duest31{font-size:10px;}
</style><g
     id="treemap_wages"><g
       id="t.finance"><image
         sodipodi:absref="/home/mjh/Desktop/Synthesis/First Phase/fase1/assets/svg/treemap/4E28DD09245E83C9.png"
         xlink:href="4E28DD09245E83C9.png"
         id="image21004"
         transform="matrix(1 0 0 1 -22.75 322.18)"
         height="95"
         width="175"
         style="overflow:visible;opacity:0.3;enable-background:new    ;" /><g
         id="g21008"><rect
           x="-19.2"
           y="324.8"
           class="duest0"
           width="167.7"
           height="88.3"
           id="rect21006" /></g></g><g
       id="XMLID_219_"><g
         id="g21012"><text
           id="XMLID_32_"
           transform="matrix(1 0 0 1 -19.2485 320.3594)"
           class="duest1 st2 st3">Finance </text>
</g></g><rect
       id="a.finance"
       x="-19.2"
       y="379.7"
       class="duest4"
       width="167.7"
       height="33.4" /><g
       id="XMLID_116_"><path
         id="XMLID_214_"
         class="duest5"
         d="M-5.2,385.4c0.5,0.2,0.8,0.6,1,0.9c0.2,0.4,0.4,0.8,0.4,1.3s-0.1,0.9-0.2,1.2    c-0.2,0.3-0.4,0.6-0.7,0.8c-0.2,0.2-0.6,0.3-0.9,0.3l0,0c0.4,0,0.7,0.1,1,0.2c0.3,0.2,0.6,0.5,0.7,0.8c0.2,0.3,0.2,0.7,0.2,1.2    c0,0.6-0.2,0.9-0.4,1.4c-0.3,0.4-0.7,0.7-1.2,0.9c-0.6,0.2-1.1,0.3-1.8,0.3c-1.7,0-2.8-0.8-3.4-2.3l1.4-0.7    c0.2,0.6,0.4,0.9,0.7,1.3c0.3,0.2,0.8,0.4,1.3,0.4c0.6,0,1-0.2,1.3-0.4c0.3-0.3,0.5-0.6,0.5-1.1c0-0.6-0.2-0.9-0.5-1.1    s-0.8-0.3-1.5-0.3h-0.4v-1.2h0.4c1.2,0,1.8-0.5,1.8-1.5c0-0.5-0.2-0.9-0.4-1.1c-0.2-0.2-0.6-0.4-1.2-0.4c-0.5,0-0.9,0.2-1.2,0.4    c-0.3,0.2-0.5,0.6-0.6,1l-1.4-0.6c0.2-0.7,0.6-1.2,1.2-1.6c0.6-0.4,1.3-0.6,2.1-0.6C-6.2,385.1-5.7,385.3-5.2,385.4z" /><path
         id="XMLID_123_"
         class="duest5"
         d="M4.1,385.6c0.5,0.3,0.9,0.9,1.2,1.6l-1.3,0.6c-0.3-0.9-0.9-1.3-1.8-1.3    c-0.5,0-0.9,0.2-1.2,0.5c-0.3,0.3-0.6,0.8-0.8,1.3c-0.2,0.6-0.3,1.2-0.3,1.9v0.2h0.1c0.2-0.6,0.5-0.9,0.9-1.2    c0.5-0.2,1-0.4,1.6-0.4s1.2,0.2,1.7,0.4s0.9,0.6,1.1,1c0.2,0.5,0.4,1,0.4,1.6c0,0.9-0.3,1.7-0.9,2.3c-0.6,0.6-1.4,0.9-2.5,0.9    c-1.2,0-2.1-0.5-2.8-1.3c-0.6-0.9-0.9-2.1-0.9-3.6c0-1,0.2-1.9,0.5-2.7c0.3-0.7,0.8-1.3,1.3-1.7c0.6-0.4,1.3-0.6,2-0.6    C2.9,385.1,3.7,385.3,4.1,385.6z M0.8,390.6c-0.3,0.3-0.5,0.7-0.5,1.3c0,0.6,0.2,0.9,0.5,1.3c0.3,0.3,0.8,0.5,1.3,0.5    c0.6,0,1-0.2,1.3-0.5s0.5-0.7,0.5-1.3s-0.2-0.9-0.5-1.3c-0.3-0.3-0.8-0.5-1.3-0.5S1.1,390.3,0.8,390.6z" /><path
         id="XMLID_117_"
         class="duest5"
         d="M10.9,385.8c0.5,0.5,0.6,1.1,0.6,1.9s-0.2,1.4-0.6,1.9c-0.5,0.5-1,0.7-1.7,0.7    s-1.3-0.2-1.7-0.7c-0.5-0.5-0.6-1.1-0.6-1.9s0.2-1.4,0.6-1.9c0.5-0.5,1-0.7,1.7-0.7S10.4,385.4,10.9,385.8z M8.3,386.6    c-0.2,0.2-0.3,0.6-0.3,1.1s0.1,0.9,0.3,1.1c0.2,0.2,0.5,0.4,0.9,0.4s0.6-0.2,0.9-0.4c0.2-0.2,0.3-0.6,0.3-1.1s-0.1-0.9-0.3-1.1    c-0.2-0.2-0.5-0.4-0.9-0.4S8.6,386.4,8.3,386.6z M15.1,385.3h1.3l-6.2,9.5H8.9L15.1,385.3z M17.8,390.3c0.5,0.5,0.6,1.1,0.6,1.9    s-0.2,1.4-0.6,1.9c-0.5,0.5-1,0.7-1.7,0.7s-1.3-0.2-1.7-0.7c-0.4-0.5-0.6-1.1-0.6-1.9s0.2-1.4,0.6-1.9c0.5-0.5,1-0.7,1.7-0.7    S17.2,389.9,17.8,390.3z M15.2,391.1c-0.2,0.2-0.3,0.6-0.3,1.1s0.1,0.9,0.3,1.1c0.2,0.2,0.5,0.4,0.9,0.4s0.6-0.2,0.9-0.4    c0.2-0.2,0.3-0.6,0.3-1.1s-0.1-0.9-0.3-1.1c-0.2-0.2-0.5-0.4-0.9-0.4S15.3,390.9,15.2,391.1z" /></g><g
       id="t.manufacturing_3_"><image
         sodipodi:absref="/home/mjh/Desktop/Synthesis/First Phase/fase1/assets/svg/treemap/4E28DD09245E83CA.png"
         xlink:href="4E28DD09245E83CA.png"
         id="image21020"
         transform="matrix(1 0 0 1 154.25 322.18)"
         height="135"
         width="215"
         style="overflow:visible;opacity:0.3;enable-background:new    ;" /><g
         id="g21024"><rect
           x="157.4"
           y="324.5"
           class="duest0"
           width="208.4"
           height="128"
           id="rect21022" /></g></g><g
       id="XMLID_790_"><g
         id="g21028"><text
           id="XMLID_33_"
           transform="matrix(1 0 0 1 157.3506 318.4986)"
           class="duest1 st2 st3">Manifacturing</text>
</g></g><rect
       id="a.manufacturing_3_"
       x="157.4"
       y="387"
       class="duest6"
       width="208.4"
       height="65.5" /><g
       id="XMLID_778_"><path
         id="XMLID_788_"
         class="duest5"
         d="M181.1,405.6c0.8,0.5,1.4,1.1,1.9,1.9s0.6,1.7,0.6,2.8c0,1.9-0.6,3.3-1.7,4.3    s-2.6,1.6-4.5,1.6c-1.6,0-2.8-0.3-3.9-0.9c-1.1-0.6-1.8-1.6-2.4-2.8l2.6-1.4c0.2,0.9,0.6,1.7,1.2,2.1c0.6,0.5,1.3,0.7,2.4,0.7    s1.9-0.3,2.5-0.9c0.6-0.6,0.9-1.4,0.9-2.5c0-1.1-0.3-1.9-0.9-2.5c-0.6-0.6-1.4-0.9-2.5-0.9c-1.7,0-2.8,0.5-3.6,1.5l-2.4-0.2    l1.1-9.9h10v2.5h-7.8l-0.6,4.8l-0.1,0.4l0,0c0.9-0.9,2.1-1.4,3.9-1.4C179.4,404.9,180.2,405.1,181.1,405.6z" /><path
         id="XMLID_785_"
         class="duest5"
         d="M188.5,414.1c-1.1-1.5-1.7-3.7-1.7-6.6c0-2.9,0.6-5.1,1.7-6.6s2.8-2.3,5-2.3s3.9,0.8,5,2.3    s1.7,3.7,1.7,6.6c0,2.9-0.6,5.1-1.7,6.6s-2.8,2.3-5,2.3C191.1,416.4,189.5,415.6,188.5,414.1z M196.2,412.2    c0.6-1.1,0.9-2.8,0.9-4.9c0-2.1-0.3-3.8-0.9-4.9c-0.6-1.1-1.6-1.7-2.8-1.7c-2.5,0-3.8,2.2-3.8,6.6c0,4.4,1.3,6.6,3.8,6.6    C194.6,413.9,195.6,413.3,196.2,412.2z" /><path
         id="XMLID_779_"
         class="duest5"
         d="M210.2,399.7c0.8,0.9,1.2,2.1,1.2,3.5c0,1.4-0.4,2.6-1.2,3.5c-0.8,0.9-1.9,1.3-3.2,1.3    c-1.3,0-2.4-0.5-3.2-1.3c-0.8-0.9-1.2-2.1-1.2-3.5c0-1.4,0.4-2.6,1.2-3.5c0.8-0.9,1.9-1.3,3.2-1.3S209.5,398.9,210.2,399.7z     M205.5,401.2c-0.4,0.5-0.6,1.2-0.6,2.1c0,0.9,0.2,1.6,0.6,2.1s0.9,0.7,1.5,0.7c0.7,0,1.2-0.2,1.6-0.7s0.6-1.2,0.6-2.1    c0-0.9-0.2-1.6-0.6-2.1s-0.9-0.7-1.6-0.7C206.4,400.5,205.9,400.7,205.5,401.2z M217.6,398.7h2.5L208.9,416h-2.5L217.6,398.7z     M222.6,408c0.8,0.9,1.2,2.1,1.2,3.5c0,1.4-0.4,2.6-1.2,3.5c-0.8,0.9-1.9,1.3-3.2,1.3c-1.3,0-2.4-0.5-3.2-1.3s-1.2-2.1-1.2-3.5    c0-1.4,0.4-2.6,1.2-3.5c0.8-0.9,1.9-1.3,3.2-1.3S221.9,407.1,222.6,408z M218,409.4c-0.4,0.5-0.6,1.2-0.6,2.1    c0,0.9,0.2,1.6,0.6,2.1s0.9,0.7,1.5,0.7c0.7,0,1.2-0.2,1.6-0.7s0.6-1.2,0.6-2.1c0-0.9-0.2-1.6-0.6-2.1s-0.9-0.7-1.6-0.7    C218.9,408.7,218.2,408.9,218,409.4z" /></g><g
       id="t.professional_3_"><image
         sodipodi:absref="/home/mjh/Desktop/Synthesis/First Phase/fase1/assets/svg/treemap/4E28DD09245E83C8.png"
         xlink:href="4E28DD09245E83C8.png"
         id="image21036"
         transform="matrix(1 0 0 1 154.25 490.18)"
         height="129"
         width="215"
         style="overflow:visible;opacity:0.3;enable-background:new    ;" /><g
         id="g21040"><rect
           x="157.4"
           y="492.5"
           class="duest0"
           width="208.4"
           height="121.9"
           id="rect21038" /></g></g><rect
       id="a.professional_2_"
       x="157.4"
       y="572"
       class="duest7"
       width="208"
       height="42.4" /><g
       id="XMLID_208_"><g
         id="g21045"><text
           id="XMLID_34_"
           transform="matrix(1 0 0 1 157.3506 487.1861)"
           class="duest1 st2 st3">Professional, scientific and tech</text>
</g></g><title
       id="title21048">autom: 285,900</title><title
       id="title21050">resto: 518,200</title><title
       id="title21052">resto: 89,900</title><title
       id="title21054">autom: 197,700</title><title
       id="title21056">autom: 122,100</title><title
       id="title21058">resto: 155,100</title><title
       id="title21060">autom: 150,400</title><title
       id="title21062">resto: 466,700</title><title
       id="title21064">autom: 114,800</title><title
       id="title21066">resto: 202,000</title><title
       id="title21068">autom: 289,300</title><title
       id="title21070">resto: 588,700</title><title
       id="title21072">autom: 47,300</title><title
       id="title21074">resto: 103,500</title><title
       id="title21076">autom: 40,300</title><title
       id="title21078">resto: 97,500</title><title
       id="title21080">autom: 275,600</title><title
       id="title21082">resto: 273,700</title><title
       id="title21084">autom: 65,600</title><title
       id="title21086">resto: 83,400</title><title
       id="title21088">autom: 152,900</title><title
       id="title21090">resto: 368,000</title><g
       id="XMLID_101_"><path
         id="XMLID_159_"
         class="duest5"
         d="M171.6,588.9c1.4-1,2.5-1.8,3.3-2.5s1.3-1.3,1.7-1.9s0.6-1.2,0.6-1.8s-0.2-1-0.6-1.4    c-0.4-0.4-0.9-0.6-1.5-0.6c-0.7,0-1.2,0.2-1.7,0.7c-0.4,0.5-0.6,1.1-0.7,1.9l-1.5-0.7c0.1-1,0.5-1.9,1.2-2.5s1.6-0.9,2.8-0.9    c0.8,0,1.4,0.2,2.1,0.5c0.6,0.3,1,0.7,1.3,1.3c0.2,0.6,0.5,1.1,0.5,1.7c0,1-0.4,2.1-1.2,3s-2.1,2-3.9,3.2l0,0    c0.6-0.1,1.2-0.1,1.8-0.1h3.4v1.5h-7.6L171.6,588.9L171.6,588.9z" /><path
         id="XMLID_161_"
         class="duest5"
         d="M188.1,580.6c0.7,1,1.1,2.4,1.1,4.1c0,1.8-0.4,3.2-1.1,4.2c-0.7,0.9-1.8,1.4-3.2,1.4    c-1,0-1.8-0.2-2.5-0.6c-0.6-0.4-1.1-1-1.4-1.8l1.7-0.8c0.2,0.6,0.4,1,0.7,1.3c0.3,0.3,0.8,0.4,1.4,0.4c0.9,0,1.7-0.4,2.1-1.1    c0.4-0.7,0.6-1.8,0.6-3.2v-0.2h-0.1c-0.2,0.6-0.5,1.1-1,1.4c-0.6,0.3-1.2,0.5-1.8,0.5c-0.7,0-1.3-0.2-1.9-0.4    c-0.6-0.3-0.9-0.7-1.3-1.3c-0.3-0.6-0.5-1.2-0.5-1.8c0-1.1,0.3-2,1-2.6s1.7-0.9,2.8-0.9C186.4,579.1,187.5,579.7,188.1,580.6z     M183.5,581.2c-0.4,0.4-0.6,0.9-0.6,1.5s0.2,1.1,0.6,1.5c0.4,0.3,0.9,0.6,1.6,0.6c0.6,0,1.2-0.2,1.6-0.6c0.4-0.4,0.6-0.9,0.6-1.4    c0-0.6-0.2-1.1-0.6-1.5s-0.9-0.6-1.6-0.6S183.9,580.9,183.5,581.2z" /><path
         id="XMLID_164_"
         class="duest5"
         d="M195.8,580c0.5,0.6,0.7,1.3,0.7,2.2s-0.2,1.7-0.7,2.2c-0.5,0.6-1.2,0.9-2,0.9    c-0.9,0-1.5-0.3-2-0.9c-0.5-0.6-0.7-1.3-0.7-2.2s0.2-1.7,0.7-2.2c0.5-0.6,1.2-0.9,2-0.9S195.2,579.4,195.8,580z M192.8,580.9    c-0.2,0.3-0.3,0.7-0.3,1.3s0.1,0.9,0.3,1.3c0.2,0.3,0.6,0.5,0.9,0.5c0.4,0,0.8-0.2,0.9-0.5c0.2-0.3,0.3-0.7,0.3-1.3    s-0.1-1-0.3-1.3c-0.2-0.3-0.6-0.5-0.9-0.5C193.4,580.5,193,580.6,192.8,580.9z M200.5,579.3h1.5l-7.1,10.9h-1.5L200.5,579.3z     M203.5,585.1c0.5,0.6,0.8,1.3,0.8,2.2s-0.2,1.7-0.8,2.2c-0.5,0.6-1.2,0.9-2,0.9c-0.9,0-1.5-0.3-2-0.9s-0.8-1.3-0.8-2.2    s0.2-1.7,0.8-2.2c0.5-0.6,1.2-0.9,2-0.9S203,584.6,203.5,585.1z M200.6,586.1c-0.2,0.3-0.3,0.7-0.3,1.3s0.1,1,0.3,1.3    c0.2,0.3,0.6,0.5,0.9,0.5c0.4,0,0.8-0.2,0.9-0.5c0.2-0.3,0.3-0.7,0.3-1.3s-0.1-0.9-0.3-1.3c-0.2-0.3-0.6-0.5-0.9-0.5    C201,585.6,200.8,585.8,200.6,586.1z" /></g><title
       id="title21096">autom: 242,000</title><title
       id="title21098">resto: 247,200</title><title
       id="title21100">autom: 125,800</title><title
       id="title21102">resto: 89,500</title><title
       id="title21104">autom: 106,200</title><title
       id="title21106">resto: 177,200</title><g
       id="t.accomodation"><image
         sodipodi:absref="/home/mjh/Desktop/Synthesis/First Phase/fase1/assets/svg/treemap/4E28DD09245E83C4.png"
         xlink:href="4E28DD09245E83C4.png"
         id="image21108"
         transform="matrix(1 0 0 1 65.25 443.18)"
         height="176"
         width="86"
         style="overflow:visible;opacity:0.3;enable-background:new    ;" /><g
         id="g21112"><rect
           x="69.1"
           y="445.6"
           class="duest0"
           width="78.6"
           height="168.8"
           id="rect21110" /></g></g><rect
       id="a.accomodation"
       x="69.1"
       y="501.6"
       class="duest8"
       width="78.6"
       height="112.8" /><g
       id="XMLID_100_"><g
         id="g21120"><text
           transform="matrix(1 0 0 1 68.9887 430.2652)"
           class="duest1 st2 st3"
           id="text21116">Accomodation </text>
<text
           transform="matrix(1 0 0 1 68.9887 440.1508)"
           class="duest1 st2 st3"
           id="text21118">&amp; food</text>
</g></g><g
       id="XMLID_82_"><path
         id="XMLID_102_"
         class="duest5"
         d="M84.4,508.6c0.6,0.4,1,0.9,1.3,1.7l-1.5,0.7c-0.3-1-1-1.5-2.1-1.5c-0.5,0-0.9,0.2-1.3,0.6    c-0.4,0.3-0.7,0.9-0.9,1.4c-0.2,0.6-0.3,1.3-0.3,2.1v0.3h0.1c0.2-0.6,0.6-1,1-1.3c0.6-0.3,1.1-0.5,1.7-0.5c0.7,0,1.3,0.2,1.8,0.4    c0.6,0.3,0.9,0.6,1.3,1.2c0.3,0.5,0.5,1.1,0.5,1.8c0,1-0.3,1.9-1,2.5c-0.6,0.6-1.6,0.9-2.8,0.9c-1.3,0-2.4-0.5-3.1-1.4    c-0.7-0.9-1.1-2.3-1.1-4c0-1.2,0.2-2.1,0.6-3c0.4-0.8,0.9-1.4,1.5-1.8s1.3-0.6,2.2-0.6C83.1,508.1,83.8,508.3,84.4,508.6z     M80.6,514.1c-0.4,0.4-0.6,0.8-0.6,1.4s0.2,1.1,0.6,1.4c0.4,0.4,0.9,0.6,1.5,0.6s1.2-0.2,1.5-0.6c0.4-0.3,0.6-0.9,0.6-1.4    c0-0.6-0.2-1.1-0.6-1.4s-0.9-0.5-1.5-0.5C81.6,513.5,80.9,513.7,80.6,514.1z" /><path
         id="XMLID_105_"
         class="duest5"
         d="M94.2,508.9c0.6,0.5,0.9,1.2,0.9,2.1c0,0.6-0.2,1-0.4,1.4s-0.6,0.7-1.1,0.9l0,0    c0.6,0.2,1.1,0.6,1.4,1c0.3,0.5,0.6,1,0.6,1.7c0,0.9-0.4,1.7-1.1,2.2c-0.7,0.6-1.7,0.8-2.9,0.8s-2.2-0.2-2.9-0.8s-1.1-1.3-1.1-2.2    c0-0.6,0.2-1.2,0.6-1.7c0.3-0.5,0.9-0.8,1.5-1l0,0c-0.5-0.2-0.9-0.5-1.2-0.9c-0.2-0.4-0.4-0.9-0.4-1.4c0-0.9,0.3-1.6,0.9-2.1    c0.6-0.5,1.5-0.8,2.6-0.8C92.8,508.1,93.6,508.3,94.2,508.9z M93.2,517c0.4-0.3,0.6-0.7,0.6-1.3s-0.2-0.9-0.6-1.3    s-0.9-0.5-1.7-0.5c-0.7,0-1.3,0.2-1.7,0.5s-0.6,0.7-0.6,1.3s0.2,0.9,0.6,1.3s0.9,0.5,1.7,0.5S92.9,517.3,93.2,517z M90.4,509.9    c-0.3,0.2-0.5,0.6-0.5,1.1s0.2,0.9,0.5,1.1s0.8,0.4,1.3,0.4c0.6,0,1-0.2,1.3-0.4s0.5-0.6,0.5-1.1s-0.2-0.9-0.5-1.1    c-0.3-0.2-0.8-0.4-1.3-0.4C91.1,509.5,90.6,509.7,90.4,509.9z" /><path
         id="XMLID_109_"
         class="duest5"
         d="M101.9,508.9c0.5,0.6,0.7,1.3,0.7,2.1s-0.2,1.6-0.7,2.1c-0.5,0.6-1.1,0.8-2,0.8    c-0.8,0-1.4-0.2-2-0.8c-0.5-0.6-0.7-1.3-0.7-2.1s0.2-1.6,0.7-2.1c0.5-0.6,1.1-0.8,2-0.8C100.6,508.1,101.4,508.3,101.9,508.9z     M98.9,509.8c-0.2,0.3-0.3,0.7-0.3,1.3s0.1,0.9,0.3,1.3c0.2,0.3,0.6,0.5,0.9,0.5s0.7-0.2,0.9-0.5s0.3-0.7,0.3-1.3    s-0.1-0.9-0.3-1.3c-0.2-0.3-0.6-0.5-0.9-0.5C99.4,509.4,99.1,509.4,98.9,509.8z M106.4,508.3h1.5l-6.9,10.5h-1.5L106.4,508.3z     M109.4,513.9c0.5,0.6,0.7,1.3,0.7,2.1s-0.2,1.6-0.7,2.1c-0.5,0.6-1.1,0.8-2,0.8c-0.8,0-1.4-0.2-2-0.8c-0.5-0.6-0.7-1.3-0.7-2.1    s0.2-1.6,0.7-2.1c0.5-0.6,1.1-0.8,2-0.8S108.9,513.3,109.4,513.9z M106.4,514.7c-0.2,0.3-0.3,0.7-0.3,1.3s0.1,0.9,0.3,1.3    s0.6,0.5,0.9,0.5s0.7-0.2,0.9-0.5s0.3-0.7,0.3-1.3s-0.1-0.9-0.3-1.3s-0.6-0.5-0.9-0.5C106.9,514.3,106.6,514.5,106.4,514.7z" /></g><g
       id="t.wholesale_4_"><image
         sodipodi:absref="/home/mjh/Desktop/Synthesis/First Phase/fase1/assets/svg/treemap/4E28DD09245E83C5.png"
         xlink:href="4E28DD09245E83C5.png"
         id="image21127"
         transform="matrix(1 0 0 1 -22.75 443.18)"
         height="176"
         width="86"
         style="overflow:visible;opacity:0.3;enable-background:new    ;" /><g
         id="g21131"><rect
           x="-19.2"
           y="445.6"
           class="duest0"
           width="79.5"
           height="168.7"
           id="rect21129" /></g></g><rect
       id="a.wholesale_4_"
       x="-19.2"
       y="561.7"
       class="duest9"
       width="79.5"
       height="52.5" /><g
       id="XMLID_80_"><g
         id="g21136"><text
           id="XMLID_36_"
           transform="matrix(1 0 0 1 -19.2489 440.2739)"
           class="duest1 st2 st3">Wholesale Trade</text>
</g></g><g
       id="XMLID_9_"><path
         id="XMLID_75_"
         class="duest5"
         d="M-5.6,566.9c0.4,0.2,0.7,0.5,0.9,0.9c0.2,0.3,0.3,0.7,0.3,1.2c0,0.4-0.1,0.8-0.2,1.1    c-0.2,0.3-0.4,0.6-0.6,0.7c-0.2,0.2-0.5,0.2-0.8,0.2l0,0c0.3,0,0.6,0.1,0.9,0.2c0.2,0.2,0.5,0.4,0.6,0.7c0.2,0.3,0.2,0.6,0.2,1    c0,0.5-0.2,0.9-0.4,1.3c-0.2,0.4-0.6,0.6-1.1,0.9c-0.5,0.2-1,0.3-1.7,0.3c-1.6,0-2.6-0.7-3.1-2.1l1.3-0.6c0.2,0.5,0.3,0.9,0.6,1.1    c0.3,0.2,0.7,0.4,1.3,0.4c0.6,0,0.9-0.2,1.3-0.4c0.3-0.2,0.5-0.6,0.5-1c0-0.5-0.2-0.8-0.4-1c-0.3-0.2-0.7-0.3-1.3-0.3h-0.4v-1.1    h0.3c1.1,0,1.7-0.5,1.7-1.3c0-0.5-0.2-0.8-0.4-1s-0.6-0.3-1-0.3c-0.5,0-0.9,0.1-1.1,0.3s-0.5,0.6-0.6,0.9l-1.3-0.6    c0.2-0.6,0.6-1.1,1.1-1.4c0.6-0.3,1.2-0.6,1.9-0.6C-6.6,566.6-6.1,566.8-5.6,566.9z" /><path
         id="XMLID_59_"
         class="duest5"
         d="M3.4,566.8v1.2c-1.1,1.1-1.8,2.3-2.3,3.5s-0.7,2.5-0.7,4H-1c0-1.4,0.2-2.7,0.8-4    c0.5-1.3,1.3-2.5,2.2-3.5h-5.1v-1.2H3.4L3.4,566.8z" /><path
         id="XMLID_8_"
         class="duest5"
         d="M8.2,567.3c0.4,0.5,0.6,1,0.6,1.7s-0.2,1.3-0.6,1.7c-0.4,0.5-0.9,0.6-1.6,0.6s-1.2-0.2-1.6-0.6    c-0.4-0.5-0.6-1-0.6-1.7s0.2-1.3,0.6-1.7c0.4-0.5,0.9-0.6,1.6-0.6C7.2,566.6,7.8,566.9,8.2,567.3z M5.8,568    c-0.2,0.2-0.2,0.6-0.2,1s0.1,0.8,0.2,1s0.5,0.4,0.8,0.4s0.6-0.2,0.8-0.4c0.2-0.2,0.2-0.6,0.2-1s-0.1-0.8-0.2-1    c-0.2-0.2-0.5-0.4-0.8-0.4S5.9,567.8,5.8,568z M11.9,566.8h1.2l-5.7,8.7H6.2L11.9,566.8z M14.3,571.4c0.4,0.5,0.6,1,0.6,1.7    s-0.2,1.3-0.6,1.7c-0.4,0.5-0.9,0.6-1.6,0.6s-1.2-0.2-1.6-0.6c-0.4-0.5-0.6-1-0.6-1.7s0.2-1.3,0.6-1.7c0.4-0.5,0.9-0.6,1.6-0.6    C13.4,570.7,13.9,571,14.3,571.4z M11.9,572.2c-0.2,0.2-0.2,0.6-0.2,1s0.1,0.8,0.2,1c0.2,0.2,0.5,0.4,0.8,0.4s0.6-0.2,0.8-0.4    s0.2-0.6,0.2-1s-0.1-0.8-0.2-1s-0.5-0.4-0.8-0.4S12.2,571.9,11.9,572.2z" /></g><g
       id="t.other"><image
         sodipodi:absref="/home/mjh/Desktop/Synthesis/First Phase/fase1/assets/svg/treemap/4E28DD09245E83C6.png"
         xlink:href="4E28DD09245E83C6.png"
         id="image21143"
         transform="matrix(1 0 0 1 -143.75 478.18)"
         height="70"
         width="118"
         style="overflow:visible;opacity:0.3;enable-background:new    ;" /><g
         id="g21147"><rect
           x="-140.1"
           y="480.8"
           class="duest0"
           width="111.3"
           height="63"
           id="rect21145" /></g></g><rect
       id="a.other"
       x="-140.1"
       y="513.4"
       class="duest10"
       width="111.3"
       height="30.5" /><g
       id="XMLID_6_"><g
         id="g21152"><text
           id="XMLID_38_"
           transform="matrix(1 0 0 1 -137.8056 477.0103)"
           class="duest1 st2 st3">Other Services</text>
</g></g><g
       id="XMLID_5_"><path
         id="XMLID_170_"
         class="duest5"
         d="M-126.1,524.2h-1.4v2h-1.3v-2h-4v-0.8l3.6-5.2h1.6v5h1.3v1H-126.1z M-131.4,523.2h2.7v-2.8    l0.1-1.3l0,0c-0.2,0.4-0.5,0.9-0.8,1.3L-131.4,523.2z" /><path
         id="XMLID_173_"
         class="duest5"
         d="M-118.6,524.2h-1.3v2h-1.3v-2h-4v-0.8l3.6-5.2h1.6v5h1.3L-118.6,524.2L-118.6,524.2z     M-123.8,523.2h2.7v-2.8l0.1-1.3l0,0c-0.2,0.4-0.5,0.9-0.8,1.3L-123.8,523.2z" /><path
         id="XMLID_176_"
         class="duest5"
         d="M-114.1,518.7c0.4,0.4,0.6,0.9,0.6,1.7s-0.2,1.2-0.6,1.7c-0.4,0.4-0.9,0.6-1.5,0.6    c-0.6,0-1.1-0.2-1.5-0.6c-0.4-0.4-0.6-0.9-0.6-1.7s0.2-1.2,0.6-1.7c0.4-0.4,0.9-0.6,1.5-0.6C-114.9,518.1-114.3,518.3-114.1,518.7    z M-116.2,519.4c-0.2,0.2-0.2,0.6-0.2,0.9s0.1,0.7,0.2,0.9s0.4,0.3,0.7,0.3c0.3,0,0.6-0.1,0.7-0.3s0.2-0.6,0.2-0.9    s-0.1-0.7-0.2-0.9s-0.4-0.3-0.7-0.3C-115.8,519-116.1,519.2-116.2,519.4z M-110.6,518.2h1.1l-5.2,8.1h-1.1L-110.6,518.2z     M-108.2,522.5c0.4,0.4,0.6,0.9,0.6,1.7c0,0.7-0.2,1.2-0.6,1.7c-0.4,0.4-0.9,0.6-1.5,0.6s-1.1-0.2-1.5-0.6    c-0.4-0.4-0.6-0.9-0.6-1.7c0-0.7,0.2-1.2,0.6-1.7c0.4-0.4,0.9-0.6,1.5-0.6S-108.7,522.1-108.2,522.5z M-110.6,523.2    c-0.2,0.2-0.2,0.6-0.2,0.9s0.1,0.7,0.2,0.9c0.1,0.2,0.4,0.3,0.7,0.3s0.6-0.1,0.7-0.3c0.1-0.2,0.2-0.6,0.2-0.9s-0.1-0.7-0.2-0.9    c-0.1-0.2-0.4-0.3-0.7-0.3S-110.3,523-110.6,523.2z" /></g><g
       id="t.management_4_"><image
         sodipodi:absref="/home/mjh/Desktop/Synthesis/First Phase/fase1/assets/svg/treemap/4E28DD09245E83C7.png"
         xlink:href="4E28DD09245E83C7.png"
         id="image21159"
         transform="matrix(1 0 0 1 -143.75 558.18)"
         height="61"
         width="118"
         style="overflow:visible;opacity:0.3;enable-background:new    ;" /><g
         id="g21163"><rect
           x="-140.1"
           y="560.5"
           class="duest0"
           width="111.3"
           height="53.9"
           id="rect21161" /></g></g><rect
       id="a.management_5_"
       x="-140.1"
       y="591.7"
       class="duest7"
       width="111.3"
       height="22.7" /><g
       id="XMLID_633_"><g
         id="g21168"><text
           id="XMLID_41_"
           transform="matrix(1 0 0 1 -139.3871 556.0767)"
           class="duest1 st2 st3">Management</text>
</g></g><g
       id="XMLID_621_"><path
         id="XMLID_631_"
         class="duest5"
         d="M-132.6,602.4c1-0.7,1.8-1.3,2.4-1.8c0.6-0.5,0.9-0.9,1.2-1.3c0.2-0.4,0.4-0.8,0.4-1.3    c0-0.4-0.2-0.7-0.4-1c-0.2-0.2-0.6-0.4-1-0.4c-0.5,0-0.9,0.2-1.1,0.5c-0.3,0.3-0.5,0.8-0.5,1.3l-1.1-0.5c0.1-0.7,0.4-1.3,0.9-1.7    s1.1-0.6,1.9-0.6c0.6,0,1,0.1,1.4,0.3c0.4,0.2,0.7,0.5,0.9,0.9s0.3,0.8,0.3,1.3c0,0.7-0.2,1.4-0.8,2.1c-0.6,0.6-1.4,1.4-2.7,2.2    l0,0c0.4,0,0.8-0.1,1.3-0.1h2.5v1.1h-5.3v-0.9L-132.6,602.4L-132.6,602.4z" /><path
         id="XMLID_628_"
         class="duest5"
         d="M-120.8,596.5c0.6,0.7,0.8,1.7,0.8,2.9s-0.2,2.3-0.8,2.9s-1.3,1-2.3,1    c-0.7,0-1.3-0.2-1.7-0.4c-0.5-0.3-0.8-0.7-1-1.3l1.2-0.6c0.2,0.4,0.3,0.7,0.5,0.9c0.2,0.2,0.6,0.3,1,0.3c0.7,0,1.2-0.2,1.5-0.8    c0.3-0.6,0.5-1.3,0.5-2.2v0h-0.1c-0.1,0.5-0.3,0.8-0.7,1s-0.8,0.3-1.3,0.3s-0.9-0.1-1.3-0.3s-0.7-0.5-0.9-0.9s-0.3-0.8-0.3-1.3    c0-0.8,0.2-1.4,0.7-1.8c0.5-0.5,1.2-0.7,2-0.7S-121.4,595.8-120.8,596.5z M-124.2,596.9c-0.2,0.2-0.4,0.6-0.4,1    c0,0.5,0.2,0.8,0.4,1s0.6,0.4,1.1,0.4s0.8-0.2,1.1-0.4c0.2-0.2,0.4-0.6,0.4-1s-0.2-0.8-0.4-1s-0.6-0.4-1.1-0.4    C-123.7,596.6-123.9,596.7-124.2,596.9z" /><path
         id="XMLID_622_"
         class="duest5"
         d="M-115.6,596c0.3,0.4,0.6,0.9,0.6,1.6c0,0.6-0.2,1.2-0.6,1.6c-0.3,0.4-0.8,0.6-1.4,0.6    c-0.6,0-1-0.2-1.4-0.6c-0.3-0.4-0.6-0.9-0.6-1.6c0-0.6,0.2-1.2,0.6-1.6c0.3-0.4,0.8-0.6,1.4-0.6    C-116.4,595.5-115.9,595.6-115.6,596z M-117.8,596.7c-0.2,0.2-0.2,0.6-0.2,0.9c0,0.4,0.1,0.7,0.2,0.9c0.2,0.2,0.4,0.3,0.7,0.3    c0.3,0,0.6-0.1,0.7-0.3c0.2-0.2,0.2-0.5,0.2-0.9s-0.1-0.7-0.2-0.9s-0.4-0.3-0.7-0.3C-117.3,596.4-117.6,596.5-117.8,596.7z     M-112.2,595.6h1.1l-5,7.7h-1.1L-112.2,595.6z M-110.2,599.7c0.3,0.4,0.6,0.9,0.6,1.6c0,0.6-0.2,1.2-0.6,1.6    c-0.3,0.4-0.8,0.6-1.4,0.6c-0.6,0-1-0.2-1.4-0.6c-0.3-0.4-0.6-0.9-0.6-1.6c0-0.6,0.2-1.2,0.6-1.6c0.4-0.4,0.8-0.6,1.4-0.6    S-110.4,599.3-110.2,599.7z M-112.2,600.3c-0.2,0.2-0.2,0.5-0.2,0.9s0.1,0.7,0.2,0.9c0.2,0.2,0.4,0.3,0.7,0.3    c0.3,0,0.6-0.1,0.7-0.3c0.2-0.2,0.2-0.6,0.2-0.9s-0.1-0.7-0.2-0.9c-0.2-0.2-0.4-0.3-0.7-0.3C-111.8,600-112.1,600.1-112.2,600.3z" /></g><g
       id="t.transportation_4_"><image
         sodipodi:absref="/home/mjh/Desktop/Synthesis/First Phase/fase1/assets/svg/treemap/4E28DD09245E83EE.png"
         xlink:href="4E28DD09245E83EE.png"
         id="image21175"
         transform="matrix(1 0 0 1 -143.75 291.18)"
         height="98"
         width="118"
         style="overflow:visible;opacity:0.3;enable-background:new    ;" /><g
         id="g21179"><rect
           x="-140.1"
           y="293.6"
           class="duest0"
           width="111.3"
           height="90.9"
           id="rect21177" /></g></g><g
       id="XMLID_618_"><g
         id="g21183"><text
           id="XMLID_43_"
           transform="matrix(1 0 0 1 -137.8232 289.4097)"
           class="duest1 st2 st3">Transportation </text>
</g></g><rect
       id="a.transportation_4_"
       x="-140.2"
       y="331.6"
       class="duest11"
       width="111.4"
       height="52.8" /><g
       id="XMLID_4_"><path
         id="XMLID_616_"
         class="duest5"
         d="M-127.2,343.3c0.5,0.2,0.8,0.6,1,1.1s0.4,0.9,0.4,1.6c0,1-0.3,1.8-0.9,2.4    c-0.6,0.6-1.4,0.9-2.5,0.9c-0.9,0-1.6-0.2-2.1-0.6c-0.6-0.3-1-0.9-1.3-1.6l1.4-0.8c0.2,0.6,0.4,0.9,0.6,1.2    c0.3,0.2,0.7,0.4,1.3,0.4c0.6,0,1-0.2,1.4-0.5c0.3-0.3,0.6-0.8,0.6-1.3c0-0.6-0.2-1-0.5-1.4c-0.3-0.4-0.8-0.5-1.3-0.5    c-0.9,0-1.6,0.2-2,0.8l-1.3-0.1l0.6-5.5h5.5v1.3h-4.3l-0.3,2.7v0.2l0,0c0.5-0.5,1.2-0.8,2.1-0.8    C-128.2,342.9-127.7,343-127.2,343.3z" /><path
         id="XMLID_213_"
         class="duest5"
         d="M-118.2,340c0.6,0.5,0.9,1.1,0.9,1.9c0,0.5-0.2,0.9-0.4,1.3c-0.2,0.4-0.6,0.6-1,0.9l0,0    c0.6,0.2,1,0.6,1.3,0.9c0.3,0.4,0.5,0.9,0.5,1.5c0,0.9-0.3,1.5-0.9,2c-0.6,0.5-1.5,0.7-2.6,0.7c-1.1,0-2-0.2-2.6-0.7    c-0.6-0.5-0.9-1.2-0.9-2c0-0.6,0.2-1.1,0.5-1.5c0.3-0.4,0.8-0.7,1.3-0.9l0,0c-0.5-0.2-0.8-0.5-1-0.9c-0.2-0.4-0.4-0.8-0.4-1.3    c0-0.8,0.3-1.4,0.9-1.9s1.3-0.7,2.4-0.7C-119.6,339.3-118.8,339.6-118.2,340z M-119.1,347.5c0.4-0.3,0.6-0.6,0.6-1.2    c0-0.5-0.2-0.9-0.6-1.2c-0.4-0.3-0.9-0.4-1.5-0.4c-0.6,0-1.1,0.2-1.5,0.4c-0.4,0.3-0.6,0.7-0.6,1.2s0.2,0.9,0.6,1.2    c0.4,0.3,0.9,0.4,1.5,0.4C-119.9,347.9-119.3,347.7-119.1,347.5z M-121.8,341c-0.3,0.2-0.5,0.6-0.5,1c0,0.5,0.2,0.8,0.5,1    s0.7,0.4,1.2,0.4s0.9-0.2,1.2-0.4c0.3-0.2,0.5-0.6,0.5-1c0-0.4-0.2-0.8-0.5-1s-0.7-0.4-1.2-0.4S-121.4,340.7-121.8,341z" /><path
         id="XMLID_81_"
         class="duest5"
         d="M-111.3,340c0.5,0.5,0.6,1.1,0.6,2c0,0.9-0.2,1.4-0.6,2c-0.5,0.5-1,0.7-1.7,0.7    c-0.7,0-1.3-0.2-1.7-0.7c-0.5-0.5-0.6-1.1-0.6-2c0-0.9,0.2-1.4,0.6-2c0.5-0.5,1-0.7,1.7-0.7C-112.3,339.3-111.8,339.6-111.3,340z     M-113.9,340.8c-0.2,0.2-0.3,0.6-0.3,1.1s0.1,0.9,0.3,1.1c0.2,0.2,0.5,0.4,0.9,0.4c0.4,0,0.6-0.2,0.9-0.4c0.2-0.2,0.3-0.6,0.3-1.1    s-0.1-0.9-0.3-1.1c-0.2-0.2-0.5-0.4-0.9-0.4C-113.4,340.4-113.8,340.6-113.9,340.8z M-107.2,339.5h1.3l-6.2,9.6h-1.3L-107.2,339.5    z M-104.4,344.5c0.5,0.5,0.6,1.1,0.6,2c0,0.9-0.2,1.4-0.6,2c-0.5,0.5-1,0.7-1.7,0.7s-1.3-0.2-1.7-0.7c-0.4-0.5-0.6-1.1-0.6-2    c0-0.9,0.2-1.4,0.6-2c0.4-0.6,1-0.7,1.7-0.7S-104.8,344.1-104.4,344.5z M-107.1,345.4c-0.2,0.2-0.3,0.6-0.3,1.1s0.1,0.9,0.3,1.1    c0.2,0.2,0.5,0.4,0.9,0.4s0.6-0.2,0.9-0.4c0.2-0.2,0.3-0.6,0.3-1.1s-0.1-0.9-0.3-1.1s-0.5-0.4-0.9-0.4    C-106.6,344.9-106.8,345.1-107.1,345.4z" /></g><g
       id="t.information_4_"><image
         sodipodi:absref="/home/mjh/Desktop/Synthesis/First Phase/fase1/assets/svg/treemap/4E28DD09245E83EF.png"
         xlink:href="4E28DD09245E83EF.png"
         id="image21191"
         transform="matrix(1 0 0 1 -143.75 399.18)"
         height="69"
         width="118"
         style="overflow:visible;opacity:0.3;enable-background:new    ;" /><g
         id="g21195"><rect
           x="-140.1"
           y="401.6"
           class="duest0"
           width="111.3"
           height="61.8"
           id="rect21193" /></g></g><rect
       id="a.information_4_"
       x="-140.1"
       y="439.4"
       class="duest12"
       width="111.3"
       height="24" /><g
       id="XMLID_207_"><g
         id="g21200"><text
           id="XMLID_45_"
           transform="matrix(1 0 0 1 -138.5967 396.8335)"
           class="duest1 st2 st3">Information</text>
</g></g><g
       id="XMLID_138_"><path
         id="XMLID_205_"
         class="duest5"
         d="M-127.8,443.2c0.4,0.2,0.8,0.5,0.9,0.9c0.2,0.3,0.3,0.7,0.3,1.2c0,0.4-0.1,0.8-0.2,1.1    c-0.2,0.3-0.4,0.6-0.6,0.7c-0.2,0.2-0.5,0.2-0.8,0.2l0,0c0.3,0,0.6,0.1,0.9,0.2c0.3,0.2,0.5,0.4,0.6,0.7c0.1,0.3,0.2,0.6,0.2,1.1    s-0.2,0.9-0.4,1.3c-0.2,0.4-0.6,0.7-1.1,0.9c-0.5,0.2-1,0.3-1.7,0.3c-1.6,0-2.6-0.7-3.2-2.1l1.3-0.6c0.2,0.5,0.3,0.9,0.6,1.1    s0.7,0.4,1.3,0.4s0.9-0.2,1.3-0.4c0.4-0.2,0.5-0.6,0.5-1c0-0.5-0.2-0.8-0.4-1c-0.3-0.2-0.7-0.3-1.3-0.3h-0.4v-1.1h0.4    c1.1,0,1.7-0.5,1.7-1.3c0-0.5-0.2-0.8-0.4-1c-0.2-0.2-0.6-0.3-1-0.3c-0.5,0-0.9,0.1-1.1,0.3c-0.3,0.2-0.5,0.6-0.6,0.9l-1.3-0.6    c0.2-0.6,0.6-1.1,1.1-1.5c0.6-0.3,1.2-0.6,1.9-0.6C-128.8,442.8-128.2,442.9-127.8,443.2z" /><path
         id="XMLID_145_"
         class="duest5"
         d="M-121.2,443v8.8h-1.3v-6.5c0-0.3,0-0.6,0-0.7c-0.3,0.3-0.6,0.6-1,0.8    c-0.4,0.2-0.8,0.4-1.2,0.5l-0.2-1.3c0.2,0,0.6-0.2,0.9-0.3c0.4-0.2,0.7-0.4,1-0.6c0.3-0.2,0.6-0.5,0.7-0.6L-121.2,443L-121.2,443z    " /><path
         id="XMLID_139_"
         class="duest5"
         d="M-115.6,443.6c0.4,0.5,0.6,1,0.6,1.7s-0.2,1.3-0.6,1.7c-0.4,0.5-0.9,0.6-1.6,0.6    c-0.6,0-1.2-0.2-1.6-0.6c-0.4-0.5-0.6-1-0.6-1.7s0.2-1.3,0.6-1.7c0.4-0.5,0.9-0.6,1.6-0.6C-116.6,442.8-116.1,443.1-115.6,443.6z     M-118.1,444.3c-0.2,0.2-0.2,0.6-0.2,1c0,0.4,0.1,0.8,0.2,1c0.2,0.2,0.5,0.4,0.8,0.4s0.6-0.2,0.8-0.4c0.2-0.2,0.2-0.6,0.2-1    c0-0.5-0.1-0.8-0.2-1c-0.2-0.2-0.5-0.4-0.8-0.4S-117.8,444-118.1,444.3z M-111.8,443h1.2l-5.7,8.8h-1.3L-111.8,443z M-109.3,447.7    c0.4,0.5,0.6,1,0.6,1.7s-0.2,1.3-0.6,1.7c-0.4,0.5-0.9,0.6-1.6,0.6c-0.6,0-1.2-0.2-1.6-0.6c-0.4-0.5-0.6-1-0.6-1.7    s0.2-1.3,0.6-1.7c0.4-0.5,0.9-0.6,1.6-0.6C-110.2,447-109.8,447.2-109.3,447.7z M-111.8,448.4c-0.2,0.2-0.2,0.6-0.2,1    c0,0.4,0.1,0.8,0.2,1c0.2,0.2,0.5,0.4,0.8,0.4c0.3,0,0.6-0.2,0.8-0.4c0.2-0.2,0.2-0.6,0.2-1c0-0.5-0.1-0.8-0.2-1    c-0.2-0.2-0.5-0.4-0.8-0.4C-111.3,448.1-111.6,448.1-111.8,448.4z" /></g><g
       id="t.health"><image
         sodipodi:absref="/home/mjh/Desktop/Synthesis/First Phase/fase1/assets/svg/treemap/4BE7F25241A90E99.png"
         xlink:href="4BE7F25241A90E99.png"
         id="image21207"
         transform="matrix(1 0 0 1 369.25 155.18)"
         height="227"
         width="214"
         style="overflow:visible;opacity:0.3;enable-background:new    ;" /><g
         id="g21211"><rect
           x="373"
           y="158"
           class="duest0"
           width="206.7"
           height="219.4"
           id="rect21209" /></g></g><rect
       id="a.health"
       x="373"
       y="306"
       class="duest13"
       width="206.7"
       height="71.5" /><g
       id="XMLID_3_"><g
         id="g21216"><text
           id="XMLID_47_"
           transform="matrix(1 0 0 1 373.5909 152.9233)"
           class="duest1 st2 st3">Health Care </text>
</g></g><g
       id="XMLID_2_"><path
         id="XMLID_192_"
         class="duest5"
         d="M391.5,312c0.6,0.3,1,0.6,1.3,1.1s0.5,1,0.5,1.6c0,0.6-0.1,1-0.3,1.5c-0.2,0.4-0.5,0.8-0.9,1    s-0.7,0.3-1,0.3l0,0c0.5,0,0.9,0.1,1.3,0.3s0.6,0.6,0.9,0.9c0.2,0.4,0.3,0.9,0.3,1.4c0,0.6-0.2,1.2-0.6,1.7    c-0.3,0.5-0.9,0.9-1.5,1.2c-0.6,0.3-1.4,0.4-2.2,0.4c-2.1,0-3.5-0.9-4.2-2.8l1.7-0.9c0.2,0.7,0.5,1.2,0.9,1.5s0.9,0.5,1.7,0.5    c0.7,0,1.3-0.2,1.7-0.6c0.4-0.3,0.6-0.8,0.6-1.4c0-0.6-0.2-1.1-0.6-1.3c-0.4-0.2-1-0.4-1.8-0.4h-0.6v-1.5h0.5    c1.5,0,2.2-0.6,2.2-1.8c0-0.6-0.2-1-0.5-1.3s-0.8-0.5-1.4-0.5s-1.1,0.2-1.5,0.5s-0.6,0.7-0.7,1.3l-1.8-0.5c0.2-0.9,0.7-1.5,1.4-2    c0.7-0.5,1.6-0.7,2.5-0.7C390.2,311.6,391,311.7,391.5,312z" /><path
         id="XMLID_194_"
         class="duest5"
         d="M395.9,322.1c1.5-1.1,2.8-2,3.6-2.8c0.9-0.7,1.4-1.4,1.8-2.1c0.4-0.6,0.6-1.3,0.6-1.9    c0-0.6-0.2-1.1-0.6-1.5c-0.4-0.4-0.9-0.6-1.7-0.6c-0.7,0-1.3,0.2-1.7,0.7c-0.4,0.5-0.7,1.2-0.7,2.1l-1.7-0.8    c0.1-1.1,0.6-2,1.3-2.7c0.7-0.6,1.7-0.9,2.9-0.9c0.9,0,1.6,0.2,2.2,0.5s1.1,0.8,1.4,1.3c0.3,0.6,0.5,1.2,0.5,1.9    c0,1.1-0.4,2.2-1.3,3.2s-2.2,2.1-4.2,3.4l0,0c0.6-0.1,1.3-0.1,1.9-0.1h3.7v1.7h-8.1V322L395.9,322.1L395.9,322.1z" /><path
         id="XMLID_196_"
         class="duest5"
         d="M410.9,312.5c0.6,0.6,0.8,1.4,0.8,2.4s-0.2,1.7-0.8,2.4c-0.6,0.6-1.3,0.9-2.1,0.9    c-0.9,0-1.6-0.3-2.1-0.9c-0.6-0.6-0.8-1.4-0.8-2.4s0.2-1.7,0.8-2.4c0.6-0.7,1.3-0.9,2.1-0.9C409.5,311.6,410.2,311.9,410.9,312.5z     M407.6,313.5c-0.2,0.3-0.4,0.8-0.4,1.4c0,0.6,0.2,1,0.4,1.3s0.6,0.5,1,0.5c0.5,0,0.8-0.2,1-0.5s0.4-0.8,0.4-1.3    c0-0.6-0.2-1.1-0.4-1.4s-0.6-0.5-1-0.5S407.9,313.1,407.6,313.5z M415.9,311.8h1.7l-7.7,11.7h-1.6L415.9,311.8z M419.2,318    c0.6,0.6,0.8,1.4,0.8,2.4s-0.2,1.7-0.8,2.4c-0.6,0.7-1.3,0.9-2.1,0.9c-0.9,0-1.6-0.3-2.1-0.9c-0.6-0.6-0.8-1.4-0.8-2.4    s0.2-1.7,0.8-2.4c0.6-0.6,1.3-0.9,2.1-0.9S418.6,317.4,419.2,318z M416,319c-0.2,0.3-0.4,0.8-0.4,1.3c0,0.6,0.2,1,0.4,1.4    c0.2,0.3,0.6,0.5,1,0.5s0.8-0.2,1-0.5s0.4-0.8,0.4-1.4c0-0.6-0.2-1-0.4-1.3c-0.2-0.3-0.6-0.5-1-0.5    C416.5,318.5,416.2,318.7,416,319z" /></g><g
       id="t.educational_3_"><image
         sodipodi:absref="/home/mjh/Desktop/Synthesis/First Phase/fase1/assets/svg/treemap/4BE7F25241A90E98.png"
         xlink:href="4BE7F25241A90E98.png"
         id="image21223"
         transform="matrix(1 0 0 1 154.25 155.18)"
         height="150"
         width="215"
         style="overflow:visible;opacity:0.3;enable-background:new    ;" /><g
         id="g21227"><rect
           x="157.4"
           y="158"
           class="duest0"
           width="208.4"
           height="142.4"
           id="rect21225" /></g></g><rect
       id="a.educational_3_"
       x="157.4"
       y="259.3"
       class="duest14"
       width="208.4"
       height="40.9" /><g
       id="XMLID_204_"><g
         id="g21232"><text
           id="XMLID_49_"
           transform="matrix(1 0 0 1 157.3507 152.9233)"
           class="duest1 st2 st3">Educational Services</text>
</g></g><g
       id="XMLID_182_"><path
         id="XMLID_202_"
         class="duest5"
         d="M171.6,276.4c1.5-1,2.6-1.9,3.4-2.6c0.8-0.7,1.4-1.3,1.7-2c0.3-0.6,0.6-1.2,0.6-1.8    s-0.2-1.1-0.6-1.4c-0.4-0.4-0.9-0.6-1.6-0.6c-0.7,0-1.3,0.2-1.7,0.7s-0.6,1.1-0.7,1.9l-1.6-0.7c0.1-1.1,0.6-1.9,1.3-2.5    c0.7-0.6,1.7-0.9,2.8-0.9c0.8,0,1.5,0.2,2.1,0.5s1,0.7,1.3,1.3c0.3,0.6,0.5,1.1,0.5,1.8c0,1.1-0.4,2.1-1.2,3.1s-2.1,2.1-4,3.2l0,0    c0.6-0.1,1.2-0.1,1.8-0.1h3.5v1.6h-7.8L171.6,276.4L171.6,276.4z" /><path
         id="XMLID_189_"
         class="duest5"
         d="M189.8,275h-1.9v2.8h-1.7V275h-5.5v-1.1l5-7.3h2.2v7h1.9V275L189.8,275z M182.5,273.6h3.7    v-3.8l0.1-1.8l0,0c-0.2,0.6-0.6,1.2-1.1,1.9L182.5,273.6z" /><path
         id="XMLID_183_"
         class="duest5"
         d="M196,267.3c0.5,0.6,0.8,1.3,0.8,2.3s-0.2,1.7-0.8,2.3s-1.2,0.9-2.1,0.9s-1.5-0.3-2.1-0.9    c-0.6-0.6-0.8-1.3-0.8-2.3s0.2-1.7,0.8-2.3c0.5-0.6,1.2-0.9,2.1-0.9C194.9,266.4,195.5,266.7,196,267.3z M193,268.2    c-0.2,0.3-0.3,0.8-0.3,1.3c0,0.6,0.1,1,0.3,1.3s0.6,0.5,0.9,0.5c0.5,0,0.8-0.2,1-0.5s0.3-0.7,0.3-1.3c0-0.6-0.1-1-0.3-1.3    c-0.2-0.3-0.6-0.5-1-0.5C193.5,267.8,193.1,267.9,193,268.2z M200.8,266.6h1.6l-7.3,11.2h-1.6L200.8,266.6z M204,272.6    c0.5,0.6,0.8,1.3,0.8,2.3s-0.2,1.7-0.8,2.3c-0.5,0.6-1.2,0.9-2.1,0.9s-1.5-0.3-2.1-0.9c-0.5-0.6-0.8-1.3-0.8-2.3s0.2-1.7,0.8-2.3    c0.5-0.6,1.2-0.9,2.1-0.9S203.5,272,204,272.6z M201,273.5c-0.2,0.3-0.3,0.7-0.3,1.3s0.1,1,0.3,1.3s0.6,0.5,0.9,0.5    c0.5,0,0.8-0.2,1-0.5s0.3-0.8,0.3-1.3c0-0.6-0.1-1-0.3-1.3c-0.2-0.3-0.6-0.5-1-0.5S201.1,273.2,201,273.5z" /></g><g
       id="t.retail"><image
         sodipodi:absref="/home/mjh/Desktop/Synthesis/First Phase/fase1/assets/svg/treemap/4BE7F25241A90E97.png"
         xlink:href="4BE7F25241A90E97.png"
         id="image21239"
         transform="matrix(1 0 0 1 -23.75 155.18)"
         height="149"
         width="176"
         style="overflow:visible;opacity:0.3;enable-background:new    ;" /><g
         id="g21243"><rect
           x="-20.2"
           y="158"
           class="duest0"
           width="168.7"
           height="142.2"
           id="rect21241" /></g></g><rect
       id="a.retail"
       x="-20.2"
       y="229.5"
       class="duest15"
       width="168.7"
       height="70.6" /><g
       id="XMLID_1_"><path
         id="XMLID_147_"
         class="duest5"
         d="M0.9,249.8h-2.4v3.5h-2.1v-3.5h-6.8v-1.3l6.2-9h2.8v8.6H1L0.9,249.8L0.9,249.8z M-8.2,248.1    h4.6v-4.7l0.1-2.2h-0.1c-0.3,0.7-0.8,1.5-1.3,2.3L-8.2,248.1z" /><path
         id="XMLID_150_"
         class="duest5"
         d="M12.1,241.1c0.9,1.3,1.4,3,1.4,5.2c0,2.4-0.5,4.1-1.4,5.3c-0.9,1.2-2.3,1.8-4.1,1.8    c-1.3,0-2.3-0.2-3.1-0.8c-0.8-0.6-1.4-1.3-1.8-2.3l2.1-0.9c0.2,0.7,0.6,1.3,0.9,1.7c0.4,0.4,1,0.6,1.8,0.6c1.3,0,2.1-0.5,2.6-1.4    c0.6-0.9,0.8-2.3,0.8-4v-0.2l0,0c-0.2,0.8-0.6,1.4-1.3,1.8c-0.7,0.4-1.5,0.6-2.4,0.6s-1.7-0.2-2.4-0.6c-0.7-0.4-1.3-0.9-1.7-1.6    c-0.4-0.7-0.6-1.5-0.6-2.4c0-1.4,0.5-2.5,1.3-3.3s2.1-1.2,3.6-1.2C9.8,239.2,11.2,239.8,12.1,241.1z M6.1,241.8    c-0.5,0.5-0.7,1.1-0.7,1.9s0.2,1.4,0.7,1.9s1.1,0.6,2,0.6c0.8,0,1.5-0.2,2-0.7s0.7-1.1,0.7-1.8c0-0.8-0.2-1.4-0.7-1.9    s-1.2-0.7-2-0.7C7.2,241.2,6.6,241.3,6.1,241.8z" /><path
         id="XMLID_153_"
         class="duest5"
         d="M21.7,240.2c0.6,0.7,0.9,1.7,0.9,2.8c0,1.2-0.3,2.1-0.9,2.8s-1.5,1-2.5,1s-1.9-0.3-2.5-1    s-0.9-1.7-0.9-2.8c0-1.2,0.3-2.1,0.9-2.8c0.6-0.7,1.5-1,2.5-1S21.1,239.5,21.7,240.2z M17.8,241.4c-0.3,0.4-0.4,0.9-0.4,1.7    c0,0.7,0.2,1.3,0.4,1.7c0.3,0.4,0.7,0.6,1.3,0.6c0.6,0,0.9-0.2,1.3-0.6c0.3-0.4,0.4-0.9,0.4-1.7c0-0.7-0.2-1.3-0.4-1.7    c-0.3-0.4-0.7-0.6-1.3-0.6C18.6,240.8,18.2,241,17.8,241.4z M27.7,239.4h1.9l-9,13.8h-2L27.7,239.4z M31.6,246.8    c0.6,0.7,0.9,1.7,0.9,2.8c0,1.2-0.3,2.1-0.9,2.8s-1.5,1-2.5,1s-1.9-0.3-2.5-1s-0.9-1.7-0.9-2.8c0-1.2,0.3-2.1,0.9-2.8    c0.6-0.7,1.5-1,2.5-1C30.2,245.7,30.8,246.1,31.6,246.8z M27.8,248c-0.3,0.4-0.4,0.9-0.4,1.7c0,0.7,0.2,1.3,0.4,1.7    c0.3,0.4,0.7,0.6,1.3,0.6c0.6,0,0.9-0.2,1.3-0.6c0.3-0.4,0.4-0.9,0.4-1.7c0-0.7-0.2-1.3-0.4-1.7c-0.2-0.4-0.7-0.6-1.3-0.6    C28.4,247.3,28.1,247.6,27.8,248z" /></g><g
       id="XMLID_11_"><g
         id="g21252"><text
           id="XMLID_44_"
           transform="matrix(1 0 0 1 -20.1186 152.9233)"
           class="duest1 st2 st3">Retail trade</text>
</g></g><g
       id="t.construction_3_"><image
         sodipodi:absref="/home/mjh/Desktop/Synthesis/First Phase/fase1/assets/svg/treemap/4BE7F25241A90E88.png"
         xlink:href="4BE7F25241A90E88.png"
         id="image21255"
         transform="matrix(1 0 0 1 -143.75 155.18)"
         height="127"
         width="118"
         style="overflow:visible;opacity:0.3;enable-background:new    ;" /><g
         id="g21259"><rect
           x="-140.1"
           y="158"
           class="duest0"
           width="111.3"
           height="119.7"
           id="rect21257" /></g></g><rect
       id="a.construction_4_"
       x="-140.1"
       y="225.2"
       class="duest10"
       width="111.3"
       height="52.4" /><g
       id="XMLID_96_"><g
         id="g21264"><text
           id="XMLID_42_"
           transform="matrix(1 0 0 1 -137.9164 152.9233)"
           class="duest1 st2 st3">Construction</text>
</g></g><g
       id="XMLID_83_"><path
         id="XMLID_93_"
         class="duest5"
         d="M-123.7,241.7h-1.9v2.5h-1.7v-2.5h-5.5v-1l5-6.6h2.2v6.3h1.9    C-123.6,240.4-123.6,241.7-123.7,241.7z M-130.9,240.5h3.7V237l0.1-1.7l0,0c-0.2,0.6-0.6,1.1-1.1,1.7L-130.9,240.5z" /><path
         id="XMLID_90_"
         class="duest5"
         d="M-113.2,241.7h-1.9v2.5h-1.7v-2.5h-5.5v-1l5-6.6h2.2v6.3h1.9    C-113.1,240.4-113.1,241.7-113.2,241.7z M-120.3,240.5h3.6V237l0.1-1.7l0,0c-0.2,0.6-0.6,1.1-1.1,1.7L-120.3,240.5z" /><path
         id="XMLID_84_"
         class="duest5"
         d="M-106.9,234.8c0.5,0.6,0.8,1.2,0.8,2.1c0,0.9-0.2,1.5-0.8,2.1c-0.5,0.6-1.2,0.8-2.1,0.8    c-0.9,0-1.5-0.2-2.1-0.8c-0.5-0.6-0.8-1.2-0.8-2.1c0-0.9,0.2-1.5,0.8-2.1c0.5-0.6,1.2-0.8,2.1-0.8    C-108.2,234-107.4,234.2-106.9,234.8z M-109.9,235.6c-0.2,0.3-0.3,0.7-0.3,1.2s0.1,0.9,0.3,1.2c0.2,0.3,0.6,0.4,0.9,0.4    c0.5,0,0.8-0.2,1-0.4c0.2-0.3,0.3-0.7,0.3-1.2c0-0.6-0.1-0.9-0.3-1.2s-0.6-0.4-1-0.4C-109.4,235.2-109.8,235.3-109.9,235.6z     M-102.2,234.1h1.6l-7.3,10.2h-1.6L-102.2,234.1z M-98.9,239.6c0.5,0.6,0.8,1.2,0.8,2.1s-0.2,1.5-0.8,2.1    c-0.5,0.6-1.2,0.8-2.1,0.8c-0.9,0-1.5-0.2-2.1-0.8c-0.5-0.6-0.8-1.2-0.8-2.1s0.2-1.5,0.8-2.1c0.5-0.6,1.2-0.8,2.1-0.8    C-100.2,238.8-99.4,239-98.9,239.6z M-101.9,240.4c-0.2,0.3-0.3,0.7-0.3,1.2c0,0.6,0.1,0.9,0.3,1.2c0.2,0.3,0.6,0.4,0.9,0.4    c0.5,0,0.8-0.2,1-0.4c0.2-0.3,0.3-0.7,0.3-1.2s-0.1-0.9-0.3-1.2c-0.2-0.3-0.6-0.4-1-0.4C-101.4,240-101.8,240.1-101.9,240.4z" /></g><g
       id="t.admin"><image
         sodipodi:absref="/home/mjh/Desktop/Synthesis/First Phase/fase1/assets/svg/treemap/4BE7F25241A90E8B.png"
         xlink:href="4BE7F25241A90E8B.png"
         id="image21271"
         transform="matrix(1 0 0 1 369.25 417.18)"
         height="202"
         width="214"
         style="overflow:visible;opacity:0.3;enable-background:new    ;" /><g
         id="g21275"><rect
           x="373"
           y="420.1"
           class="duest0"
           width="206.7"
           height="194.2"
           id="rect21273" /></g></g><rect
       id="a.admin"
       x="373"
       y="538.7"
       class="duest16"
       width="206.7"
       height="75.8" /><g
       id="XMLID_55_"><g
         id="g21280"><text
           id="XMLID_40_"
           transform="matrix(1 0 0 1 373.5908 414.3257)"
           class="duest1 st2 st3">Administrative</text>
</g></g><g
       id="XMLID_58_"><path
         id="XMLID_126_"
         class="duest5"
         d="M392.5,549.9c0.6,0.3,1.2,0.7,1.5,1.3s0.5,1.1,0.5,1.8c0,0.6-0.2,1.2-0.4,1.7    c-0.2,0.5-0.6,0.9-0.9,1.1c-0.4,0.2-0.8,0.4-1.2,0.4v0.1c0.5,0,0.9,0.2,1.4,0.4c0.4,0.2,0.8,0.6,1,1.1s0.4,1,0.4,1.7    s-0.2,1.4-0.6,2s-0.9,1-1.7,1.3c-0.7,0.3-1.6,0.5-2.5,0.5c-2.5,0-4-1.1-4.8-3.2l2-0.9c0.2,0.8,0.6,1.3,0.9,1.7    c0.5,0.4,1.1,0.6,1.9,0.6s1.4-0.2,1.9-0.6c0.5-0.4,0.7-0.9,0.7-1.6c0-0.7-0.2-1.3-0.6-1.6c-0.5-0.3-1.1-0.5-2.1-0.5h-0.6v-1.7h0.6    c1.7,0,2.5-0.7,2.5-2.1c0-0.7-0.2-1.2-0.6-1.5s-0.9-0.6-1.7-0.6c-0.7,0-1.3,0.2-1.7,0.6c-0.4,0.3-0.7,0.9-0.8,1.5l-2-0.8    c0.3-0.9,0.9-1.7,1.7-2.2c0.8-0.6,1.8-0.8,2.9-0.8C391,549.4,391.8,549.6,392.5,549.9z" /><path
         id="XMLID_128_"
         class="duest5"
         d="M404.8,554.9c0.6,0.4,1.1,0.9,1.5,1.5c0.3,0.6,0.6,1.3,0.6,2.2c0,1.4-0.4,2.5-1.3,3.4    c-0.9,0.8-2.1,1.2-3.5,1.2c-1.2,0-2.2-0.2-3-0.7s-1.4-1.2-1.8-2.2l2.1-1.1c0.2,0.7,0.5,1.3,0.9,1.7s1,0.6,1.8,0.6s1.5-0.2,2-0.6    c0.5-0.5,0.7-1.1,0.7-1.9c0-0.9-0.2-1.5-0.6-1.9c-0.5-0.5-1.1-0.7-1.9-0.7c-1.3,0-2.1,0.4-2.7,1.2l-1.8-0.2l0.9-7.6h7.8v1.9h-6    l-0.5,3.7l-0.1,0.3l0,0c0.6-0.7,1.7-1.1,2.9-1.1C403.4,554.4,404,554.6,404.8,554.9z" /><path
         id="XMLID_130_"
         class="duest5"
         d="M414.4,550.4c0.6,0.7,0.9,1.6,0.9,2.7c0,1.1-0.3,2.1-0.9,2.7c-0.6,0.6-1.4,1-2.5,1    s-1.8-0.3-2.5-1c-0.6-0.7-0.9-1.6-0.9-2.7c0-1.1,0.3-2.1,0.9-2.7c0.6-0.7,1.4-1,2.5-1S413.8,549.7,414.4,550.4z M410.8,551.5    c-0.2,0.4-0.4,0.9-0.4,1.6s0.2,1.2,0.4,1.6c0.2,0.4,0.6,0.6,1.2,0.6s0.9-0.2,1.2-0.6c0.3-0.4,0.4-0.9,0.4-1.6s-0.2-1.2-0.4-1.6    c-0.2-0.4-0.7-0.6-1.2-0.6C411.5,551,411,551.1,410.8,551.5z M420.1,549.6h1.9l-8.7,13.4h-2L420.1,549.6z M424,556.8    c0.6,0.7,0.9,1.6,0.9,2.7c0,1.1-0.3,2.1-0.9,2.7c-0.6,0.7-1.4,1-2.5,1s-1.8-0.3-2.5-1c-0.6-0.7-0.9-1.6-0.9-2.7    c0-1.1,0.3-2.1,0.9-2.7c0.6-0.7,1.4-1,2.5-1C422.5,555.7,423.4,556.1,424,556.8z M420.4,557.9c-0.3,0.4-0.4,0.9-0.4,1.6    s0.2,1.2,0.4,1.6c0.2,0.4,0.6,0.6,1.2,0.6s0.9-0.2,1.2-0.6c0.2-0.4,0.4-0.9,0.4-1.6s-0.2-1.2-0.4-1.6c-0.3-0.4-0.7-0.6-1.2-0.6    C421,557.3,420.5,557.6,420.4,557.9z" /></g></g><g
     id="numero_soldi"><g
       id="XMLID_22_"><text
         id="XMLID_73_"
         transform="matrix(1 0 0 1 -11.141 265.9612)"
         class="duest5 st2 st17">119.714 M$</text>
</g><g
       id="XMLID_60_"><text
         id="XMLID_71_"
         transform="matrix(1 0 0 1 170.2129 290.5671)"
         class="duest5 st2 st17">36.656 M$</text>
</g><g
       id="XMLID_18_"><text
         id="XMLID_68_"
         transform="matrix(1 0 0 1 -12.2426 407.1511)"
         class="duest5 st2 st17">41.601 M$</text>
<rect
         id="XMLID_310_"
         x="-20"
         y="381.6"
         class="duest18"
         width="167.7"
         height="33.4" /></g><g
       id="XMLID_61_"><text
         id="XMLID_57_"
         transform="matrix(1 0 0 1 384.3262 336.8098)"
         class="duest5 st2 st17">95.324 M$</text>
</g><g
       id="XMLID_62_"><text
         id="XMLID_226_"
         transform="matrix(1 0 0 1 170.1865 602.0884)"
         class="duest5 st2 st17">44.881 M$</text>
</g><g
       id="XMLID_63_"><text
         id="XMLID_225_"
         transform="matrix(1 0 0 1 -11.4521 587.8425)"
         class="duest5 st2 st17">39.797 M$</text>
</g><g
       id="XMLID_64_"><text
         id="XMLID_224_"
         transform="matrix(1 0 0 1 -134.0151 612.4595)"
         class="duest5 st2 st19">11.786 M$</text>
</g><g
       id="XMLID_20_"><text
         id="XMLID_223_"
         transform="matrix(1 0 0 1 170.4225 429.7341)"
         class="duest5 st2 st17">11.786 M$</text>
</g><g
       id="XMLID_65_"><text
         id="XMLID_222_"
         transform="matrix(1 0 0 1 -133.6528 535.483)"
         class="duest5 st2 st19">28.882 M$</text>
</g><g
       id="XMLID_14_"><text
         id="XMLID_221_"
         transform="matrix(1 0 0 1 -133.7367 461.3122)"
         class="duest5 st2 st19">14.836 M$</text>
</g><g
       id="XMLID_67_"><text
         id="XMLID_39_"
         transform="matrix(1 0 0 1 -133.7695 362.6628)"
         class="duest5 st2 st17">73.505 M$</text>
</g><g
       id="XMLID_26_"><text
         id="XMLID_37_"
         transform="matrix(1 0 0 1 -133.4873 257.7146)"
         class="duest5 st2 st17">53.782 M$</text>
</g><g
       id="XMLID_658_"><text
         id="XMLID_220_"
         transform="matrix(1 0 0 1 77.6982 532.6705)"
         class="duest5 st2 st17">135.902 M$</text>
</g><g
       id="XMLID_16_"><text
         id="XMLID_234_"
         transform="matrix(1 0 0 1 384.5996 576.0914)"
         class="duest5 st2 st17">101.653 M$</text>
</g><rect
       id="XMLID_309_"
       x="68.3"
       y="503.5"
       class="duest18"
       width="78.6"
       height="112.8" /><rect
       id="XMLID_303_"
       x="-20.9"
       y="231.4"
       class="duest18"
       width="168.7"
       height="70.6" /><rect
       id="XMLID_313_"
       x="-140.9"
       y="515.3"
       class="duest18"
       width="111.3"
       height="30.5" /><rect
       id="XMLID_311_"
       x="-141"
       y="333.5"
       class="duest18"
       width="111.4"
       height="52.8" /><rect
       id="XMLID_302_"
       x="-140.9"
       y="227.1"
       class="duest18"
       width="111.3"
       height="52.4" /><rect
       id="XMLID_307_"
       x="156.6"
       y="388.9"
       class="duest18"
       width="208.4"
       height="65.5" /><rect
       id="XMLID_308_"
       x="156.6"
       y="573.9"
       class="duest18"
       width="208.4"
       height="42.4" /></g><rect
     id="XMLID_3813_"
     x="-138.5"
     y="633"
     class="duest20"
     width="16.1"
     height="16.2" /><g
     id="XMLID_2941_"><rect
       id="XMLID_3807_"
       x="30.2"
       y="632.5"
       class="duest20"
       width="6.1"
       height="17.1" /><rect
       id="XMLID_3778_"
       x="36.3"
       y="632.5"
       class="duest21"
       width="6.1"
       height="17.1" /><rect
       id="XMLID_3777_"
       x="42.5"
       y="632.5"
       class="duest22"
       width="6.1"
       height="17.1" /><rect
       id="XMLID_3774_"
       x="48.6"
       y="632.5"
       class="duest23"
       width="6.1"
       height="17.1" /><rect
       id="XMLID_3772_"
       x="54.8"
       y="632.5"
       class="duest24"
       width="6.1"
       height="17.1" /><rect
       id="XMLID_3771_"
       x="60.9"
       y="632.5"
       class="duest25"
       width="6.1"
       height="17.1" /><rect
       id="XMLID_3770_"
       x="67.1"
       y="632.5"
       class="duest26"
       width="6.1"
       height="17.1" /><rect
       id="XMLID_3766_"
       x="73.2"
       y="632.5"
       class="duest27"
       width="6.1"
       height="17.1" /><rect
       id="XMLID_3762_"
       x="79.3"
       y="632.5"
       class="duest28"
       width="6.1"
       height="17.1" /><rect
       id="XMLID_2991_"
       x="85.5"
       y="632.5"
       class="duest29"
       width="6.1"
       height="17.1" /></g><text
     id="XMLID_3074_"
     transform="matrix(1 0 0 1 -114.6794 643.9876)"><tspan
       x="0"
       y="0"
       class="duest30 st2 st31"
       id="tspan21337">n</tspan><tspan
       x="6"
       y="0"
       class="duest30 st32 st31"
       id="tspan21339">°</tspan><tspan
       x="9.2"
       y="0"
       class="duest30 st2 st31"
       id="tspan21341">replaceable wages</tspan></text>
<text
     id="XMLID_3077_"
     transform="matrix(1 0 0 1 100.0334 643.8951)"
     class="duest30 st2 st31">% automatable wages per sector</text>
</svg>