<?xml version="1.0" encoding="utf-8"?>
<!-- Generator: Adobe Illustrator 21.0.2, SVG Export Plug-In . SVG Version: 6.00 Build 0)  -->
<svg version="1.1" xmlns="http://www.w3.org/2000/svg" xmlns:xlink="http://www.w3.org/1999/xlink" x="0px" y="0px"
	 viewBox="0 0 1024 403" style="enable-background:new 0 0 1024 403;" xml:space="preserve">
<style type="text/css">
	.st0{fill:#F2F4F8;}
	.st1{fill:none;stroke:#333333;stroke-miterlimit:10;}
	.st2{fill:none;stroke:#DDDCE9;stroke-miterlimit:10;}
	.st3{fill:none;}
	.st4{fill:#333333;}
	.st5{font-family:'Karla-Regular';}
	.st6{font-size:12px;}
	.st7{fill:none;stroke:#BB7F96;stroke-width:2;stroke-linecap:round;}
	.st8{fill:#BB7F96;}
	.st9{fill:#803658;}
	.st10{font-size:10px;}
	.st11{fill:none;stroke:#BB7F96;stroke-miterlimit:10;}
	.st12{fill:none;stroke:#FFFFFF;stroke-miterlimit:10;}
	.st13{fill:none;stroke:#803658;stroke-width:2;stroke-linecap:round;stroke-linejoin:round;}
	.st14{fill:none;stroke:#FFFFFF;stroke-linecap:round;stroke-miterlimit:10;}
	.st15{fill:none;stroke:#803658;stroke-miterlimit:10;}
	.st16{fill:none;stroke:#803658;stroke-linecap:round;stroke-miterlimit:10;}
</style>
<g id="Rise">
	<g id="Background">
		<rect id="XMLID_3284_" x="1" class="st0" width="1024" height="402.9"/>
	</g>
	<g id="Grid">
		<polyline id="XMLID_3281_" class="st1" points="180.6,108.1 180.6,325.6 902.5,325.6 		"/>
		<line id="XMLID_3280_" class="st2" x1="373.9" y1="325.6" x2="373.9" y2="108.1"/>
		<line id="XMLID_3279_" class="st2" x1="515.9" y1="325.6" x2="515.9" y2="108.1"/>
		<line id="XMLID_3278_" class="st2" x1="657.9" y1="325.6" x2="657.9" y2="108.1"/>
		<line id="XMLID_3277_" class="st2" x1="800" y1="108.1" x2="800" y2="325.6"/>
		<polyline id="XMLID_3276_" class="st2" points="231.9,301.1 231.9,325.6 231.9,108.1 		"/>
		<g id="XMLID_3255_">
			<rect id="XMLID_32_" x="193.3" y="338.8" class="st3" width="44.7" height="10.3"/>
			<text transform="matrix(1 0 0 1 204.6084 346.9621)" class="st4 st5 st6">2011</text>
		</g>
		<g id="XMLID_3701_">
			<rect id="XMLID_30_" x="136" y="317.4" class="st3" width="44.7" height="10.3"/>
			<text transform="matrix(1 0 0 1 154.7268 325.6506)" class="st4 st5 st6">0</text>
		</g>
		<g id="XMLID_2935_">
			<rect id="XMLID_26_" x="136" y="274.6" class="st3" width="44.7" height="10.3"/>
			<text transform="matrix(1 0 0 1 147.7727 282.7957)" class="st4 st5 st6">500</text>
		</g>
		<g id="XMLID_3233_">
			<rect id="XMLID_24_" x="136" y="231.7" class="st3" width="44.7" height="10.3"/>
			<text transform="matrix(1 0 0 1 145.613 239.9406)" class="st4 st5 st6">1000</text>
		</g>
		<g id="XMLID_3235_">
			<rect id="XMLID_23_" x="136" y="188.9" class="st3" width="44.7" height="10.3"/>
			<text transform="matrix(1 0 0 1 145.7869 197.0858)" class="st4 st5 st6">1500</text>
		</g>
		<g id="XMLID_3266_">
			<rect id="XMLID_21_" x="136" y="146" class="st3" width="44.7" height="10.3"/>
			<text transform="matrix(1 0 0 1 144.1189 154.2307)" class="st4 st5 st6">2000</text>
		</g>
		<g id="XMLID_3711_">
			<rect id="XMLID_20_" x="136" y="103.2" class="st3" width="44.7" height="10.3"/>
			<text transform="matrix(1 0 0 1 144.2932 111.3757)" class="st4 st5 st6">2500</text>
		</g>
		<g id="XMLID_3242_">
			<rect id="XMLID_19_" x="336.4" y="338.8" class="st3" width="44.7" height="10.3"/>
			<text transform="matrix(1 0 0 1 346.2273 346.9621)" class="st4 st5 st6">2012</text>
		</g>
		<g id="XMLID_3236_">
			<rect id="XMLID_18_" x="479.5" y="338.8" class="st3" width="44.7" height="10.3"/>
			<text transform="matrix(1 0 0 1 489.2742 346.9621)" class="st4 st5 st6">2013</text>
		</g>
		<g id="XMLID_2949_">
			<rect id="XMLID_16_" x="622.6" y="338.8" class="st3" width="44.7" height="10.3"/>
			<text transform="matrix(1 0 0 1 632.5791 346.9621)" class="st4 st5 st6">2014</text>
		</g>
		<g id="XMLID_2911_">
			<rect id="XMLID_17_" x="765.7" y="338.8" class="st3" width="44.7" height="10.3"/>
			<text transform="matrix(1 0 0 1 775.656 346.9621)" class="st4 st5 st6">2015</text>
		</g>
	</g>
</g>
<g id="Robo">
	<g id="RoboLinea">
		<g>
			<polyline class="st7" points="232.5,312.5 374,309.4 516,309.4 657.9,301.1 800,273.4 			"/>
			<g>
				
					<ellipse transform="matrix(0.9998 -2.164084e-02 2.164084e-02 0.9998 -6.7093 5.1092)" class="st8" cx="232.7" cy="312.5" rx="3.8" ry="3.8"/>
			</g>
		</g>
	</g>
	<text id="RoboLabel" transform="matrix(1 0 0 1 814.2915 276.2673)" class="st9 st5 st10">587</text>
	<g id="RoboButtonWhite">
		<circle id="XMLID_5168_" class="st11" cx="728.9" cy="33.2" r="10.9"/>
		<line id="XMLID_5167_" class="st11" x1="728.9" y1="27.1" x2="728.9" y2="39.3"/>
		<line id="XMLID_5164_" class="st11" x1="722.7" y1="33.2" x2="735" y2="33.2"/>
	</g>
	<g id="RoboButtonBlack">
		<circle id="XMLID_3742_" class="st8" cx="728.9" cy="33.2" r="10.9"/>
		<line id="XMLID_3713_" class="st12" x1="728.9" y1="27.1" x2="728.9" y2="39.3"/>
		<line id="XMLID_3712_" class="st12" x1="722.7" y1="33.2" x2="735" y2="33.2"/>
	</g>
</g>
<g id="Ai">
	<g id="AILinea">
		<g id="XMLID_3270_">
			<g>
				<polyline class="st13" points="232.5,300.8 374,290.4 516,259.4 658,135.4 800,118.4 				"/>
				<g>
					
						<ellipse transform="matrix(0.9973 -7.315458e-02 7.315458e-02 0.9973 -21.3837 17.8287)" class="st9" cx="232.7" cy="300.8" rx="3.8" ry="3.8"/>
				</g>
			</g>
		</g>
	</g>
	<text id="AILabel" transform="matrix(1 0 0 1 814.2915 120.2673)" class="st9 st5 st10">2388</text>
	<g id="AIButtonBlack">
		<circle id="XMLID_3667_" class="st9" cx="303.6" cy="32.3" r="10.9"/>
		<line id="XMLID_3666_" class="st14" x1="303.6" y1="26.2" x2="303.6" y2="38.4"/>
		<line id="XMLID_3303_" class="st14" x1="297.4" y1="32.3" x2="309.7" y2="32.3"/>
	</g>
	<g id="AIButtonWhite">
		<circle id="XMLID_51_" class="st15" cx="303.6" cy="32.3" r="10.9"/>
		<line id="XMLID_40_" class="st16" x1="303.6" y1="26.2" x2="303.6" y2="38.4"/>
		<line id="XMLID_39_" class="st16" x1="297.4" y1="32.3" x2="309.7" y2="32.3"/>
	</g>
</g>
</svg>
