<?xml version="1.0" encoding="utf-8"?>
<!-- Generator: Adobe Illustrator 19.0.0, SVG Export Plug-In . SVG Version: 6.00 Build 0)  -->
<svg version="1.1" xmlns="http://www.w3.org/2000/svg" xmlns:xlink="http://www.w3.org/1999/xlink" x="0px" y="0px"
	 viewBox="0 0 750 480" style="enable-background:new 0 0 750 480;" xml:space="preserve">
<style type="text/css">
	.st0{fill:#F2F5F9;}
	.st1{fill:#ABB7D5;}
	.st2{fill:#9BAACC;}
	.st3{fill:#788EBA;}
	.st4{fill:#8D9EC5;}
	.st5{fill:#90A1C6;}
	.st6{fill:#97A7CA;}
	.st7{fill:none;stroke:#8E9097;stroke-width:1.1572;stroke-miterlimit:10;}
	.st8{fill:#373737;}
	.st9{font-family:'Karla-Regular';}
	.st10{font-size:10px;}
	.st11{fill:#FFFFFF;}
	.st12{fill:#A6B3D2;}
	.st13{fill:#A1AFCF;}
	.st14{fill:#A9B6D3;}
	.st15{fill:#5B79AB;}
	.st16{fill:#8599C1;}
	.st17{fill:#BAC4DC;}
	.st18{font-family:'WorkSans-Regular';}
	.st19{font-size:7.8003px;}
	.st20{opacity:0;fill:#FFFFFF;}
</style>
<g id="employee_treemap">
	<rect id="t.professional_2_" x="139" y="189.9" class="st0" width="166.3" height="97.1"/>
	<rect id="t.finance_1_" x="31" y="353.9" class="st0" width="98.9" height="113.9"/>
	<rect id="t.transportation_2_" x="31.2" y="233.8" class="st0" width="98.6" height="102.9"/>
	<rect id="t.other_1_" x="31.2" y="139.5" class="st0" width="98.8" height="77.2"/>
	<rect id="t.construction_2_" x="139" y="22.2" class="st0" width="78.6" height="147.9"/>
	<rect id="t.wholesale_2_" x="227.7" y="22.2" class="st0" width="77.6" height="147.9"/>
	<rect id="a.construction_4_" x="139" y="253.7" class="st1" width="166.3" height="33.4"/>
	<rect id="a.finance_1_" x="31" y="418.6" class="st2" width="98.9" height="49.2"/>
	<rect id="a.transportation_2_" x="31.2" y="276" class="st3" width="98.6" height="60.6"/>
	<rect id="a.other_services_1_" x="31.2" y="179.1" class="st4" width="98.8" height="37.7"/>
	<rect id="a.construction_1_" x="139" y="99.9" class="st5" width="78.6" height="70.2"/>
	<rect id="a.wholesale_2_" x="227.7" y="104.5" class="st6" width="77.6" height="65.6"/>
	<path id="XMLID_479_" class="st7" d="M129.9,391.4"/>
	<g id="XMLID_465_">
		<text id="XMLID_396_" transform="matrix(1 0 0 1 138.9743 184.9355)" class="st8 st9 st10">Professional, scientific and tech</text>
	</g>
	<g id="XMLID_453_">
		<path id="XMLID_463_" class="st11" d="M151.7,259c0.5,0.2,0.9,0.6,1.1,1c0.3,0.4,0.4,0.8,0.4,1.3c0,0.5-0.1,0.9-0.3,1.3
			c-0.2,0.4-0.4,0.7-0.7,0.9c-0.3,0.2-0.6,0.3-0.9,0.3v0c0.4,0,0.7,0.1,1,0.3c0.3,0.2,0.6,0.5,0.8,0.8c0.2,0.4,0.3,0.8,0.3,1.2
			c0,0.5-0.2,1-0.5,1.5c-0.3,0.4-0.7,0.8-1.3,1c-0.5,0.2-1.2,0.4-1.9,0.4c-1.8,0-3-0.8-3.6-2.4l1.5-0.7c0.2,0.6,0.4,1,0.7,1.3
			c0.3,0.3,0.8,0.4,1.4,0.4c0.6,0,1.1-0.1,1.4-0.4c0.3-0.3,0.5-0.7,0.5-1.2c0-0.5-0.2-0.9-0.5-1.2c-0.3-0.2-0.8-0.3-1.6-0.3h-0.5
			v-1.3h0.4c1.2,0,1.9-0.5,1.9-1.5c0-0.5-0.1-0.9-0.4-1.1c-0.3-0.3-0.7-0.4-1.2-0.4c-0.5,0-1,0.1-1.3,0.4c-0.3,0.3-0.5,0.6-0.6,1.1
			l-1.5-0.6c0.2-0.7,0.6-1.3,1.2-1.7c0.6-0.4,1.3-0.6,2.2-0.6C150.6,258.6,151.2,258.8,151.7,259z"/>
		<path id="XMLID_460_" class="st11" d="M163,266.2h-1.7v2.5h-1.5v-2.5h-4.9v-1l4.4-6.5h2v6.2h1.7V266.2z M156.5,265h3.3v-3.4
			l0.1-1.6h0c-0.2,0.5-0.6,1.1-1,1.7L156.5,265z"/>
		<path id="XMLID_454_" class="st11" d="M168.6,259.4c0.5,0.5,0.7,1.2,0.7,2c0,0.8-0.2,1.5-0.7,2c-0.5,0.5-1.1,0.8-1.8,0.8
			c-0.8,0-1.4-0.3-1.8-0.8c-0.5-0.5-0.7-1.2-0.7-2c0-0.8,0.2-1.5,0.7-2c0.5-0.5,1.1-0.8,1.8-0.8
			C167.5,258.6,168.1,258.9,168.6,259.4z M165.9,260.2c-0.2,0.3-0.3,0.7-0.3,1.2c0,0.5,0.1,0.9,0.3,1.2c0.2,0.3,0.5,0.4,0.9,0.4
			c0.4,0,0.7-0.1,0.9-0.4c0.2-0.3,0.3-0.7,0.3-1.2c0-0.5-0.1-0.9-0.3-1.2c-0.2-0.3-0.5-0.4-0.9-0.4
			C166.4,259.8,166.1,260,165.9,260.2z M172.9,258.8h1.4l-6.5,9.9h-1.4L172.9,258.8z M175.7,264.1c0.5,0.5,0.7,1.2,0.7,2
			c0,0.8-0.2,1.5-0.7,2c-0.5,0.5-1.1,0.8-1.8,0.8c-0.8,0-1.4-0.3-1.8-0.8c-0.5-0.5-0.7-1.2-0.7-2c0-0.8,0.2-1.5,0.7-2
			c0.5-0.5,1.1-0.8,1.8-0.8C174.6,263.3,175.2,263.6,175.7,264.1z M173,264.9c-0.2,0.3-0.3,0.7-0.3,1.2c0,0.5,0.1,0.9,0.3,1.2
			c0.2,0.3,0.5,0.4,0.9,0.4c0.4,0,0.7-0.1,0.9-0.4c0.2-0.3,0.3-0.7,0.3-1.2c0-0.5-0.1-0.9-0.3-1.2c-0.2-0.3-0.5-0.4-0.9-0.4
			C173.5,264.5,173.2,264.7,173,264.9z"/>
	</g>
	<rect id="t.health_1_" x="527.5" y="275.8" class="st0" width="208" height="192"/>
	<rect id="a.helth_1_" x="527.5" y="401" class="st12" width="208" height="66.8"/>
	<g id="XMLID_452_">
		<text id="XMLID_397_" transform="matrix(1 0 0 1 527.637 271.0698)" class="st8 st9 st10">Health care</text>
	</g>
	<path id="XMLID_450_" class="st11" d="M546.9,407.9c0.8,0.4,1.3,0.9,1.7,1.5c0.4,0.6,0.6,1.3,0.6,2.1c0,0.7-0.1,1.4-0.4,2
		c-0.3,0.6-0.7,1-1.1,1.3c-0.4,0.3-0.9,0.5-1.4,0.5v0c0.6,0,1.1,0.2,1.6,0.5c0.5,0.3,0.9,0.7,1.2,1.3c0.3,0.6,0.5,1.2,0.5,1.9
		c0,0.9-0.2,1.6-0.7,2.3c-0.5,0.7-1.1,1.2-2,1.6c-0.9,0.4-1.9,0.6-3,0.6c-2.8,0-4.7-1.3-5.6-3.8l2.3-1.1c0.2,0.9,0.6,1.6,1.1,2
		c0.5,0.5,1.3,0.7,2.3,0.7c0.9,0,1.7-0.2,2.2-0.7c0.5-0.5,0.8-1.1,0.8-1.9c0-0.9-0.3-1.5-0.8-1.8c-0.5-0.4-1.3-0.5-2.5-0.5h-0.7v-2
		h0.6c2,0,2.9-0.8,2.9-2.4c0-0.8-0.2-1.4-0.7-1.8c-0.4-0.4-1.1-0.6-1.9-0.6c-0.8,0-1.5,0.2-2,0.6c-0.5,0.4-0.8,1-1,1.7l-2.3-0.9
		c0.3-1.1,1-2,1.9-2.6c1-0.6,2.1-0.9,3.4-0.9C545.2,407.3,546.1,407.5,546.9,407.9z"/>
	<path id="XMLID_447_" class="st11" d="M562.1,408.1c0.8,0.5,1.5,1.4,1.9,2.5l-2.2,1.1c-0.5-1.5-1.5-2.2-3-2.2c-0.8,0-1.4,0.3-2,0.8
		c-0.6,0.5-1,1.2-1.4,2.2c-0.3,0.9-0.5,1.9-0.5,3.1v0.4h0.1c0.3-0.9,0.8-1.5,1.5-2c0.8-0.5,1.6-0.7,2.6-0.7c1,0,1.9,0.2,2.7,0.6
		c0.8,0.4,1.4,1,1.8,1.7c0.4,0.7,0.7,1.6,0.7,2.6c0,1.6-0.5,2.8-1.5,3.7c-1,0.9-2.4,1.4-4.1,1.4c-2,0-3.5-0.7-4.6-2.2
		c-1.1-1.4-1.6-3.4-1.6-5.9c0-1.7,0.3-3.2,0.8-4.4c0.5-1.2,1.3-2.1,2.3-2.7c1-0.6,2-0.9,3.3-0.9
		C560.2,407.3,561.3,407.6,562.1,408.1z M556.6,416.2c-0.6,0.5-0.8,1.2-0.8,2.1c0,0.9,0.3,1.6,0.8,2.1c0.6,0.5,1.3,0.8,2.2,0.8
		c1,0,1.7-0.3,2.3-0.8c0.5-0.5,0.8-1.2,0.8-2.2c0-0.9-0.3-1.6-0.8-2.1c-0.5-0.5-1.3-0.8-2.3-0.8
		C557.9,415.4,557.2,415.7,556.6,416.2z"/>
	<path id="XMLID_441_" class="st11" d="M573.4,408.5c0.7,0.8,1.1,1.9,1.1,3.2c0,1.3-0.4,2.4-1.1,3.2c-0.7,0.8-1.7,1.2-2.9,1.2
		c-1.2,0-2.2-0.4-2.9-1.2c-0.7-0.8-1.1-1.9-1.1-3.2c0-1.3,0.4-2.4,1.1-3.2c0.7-0.8,1.7-1.2,2.9-1.2
		C571.7,407.3,572.7,407.7,573.4,408.5z M569.2,409.8c-0.3,0.4-0.5,1.1-0.5,1.9c0,0.8,0.2,1.4,0.5,1.8c0.3,0.4,0.8,0.7,1.4,0.7
		c0.6,0,1.1-0.2,1.4-0.7s0.5-1,0.5-1.8c0-0.8-0.2-1.4-0.5-1.9c-0.3-0.4-0.8-0.7-1.4-0.7C569.9,409.2,569.5,409.4,569.2,409.8z
		 M580.2,407.6h2.2l-10.2,15.6h-2.2L580.2,407.6z M584.6,415.9c0.7,0.8,1.1,1.9,1.1,3.2c0,1.3-0.4,2.4-1.1,3.2
		c-0.7,0.8-1.7,1.2-2.9,1.2c-1.2,0-2.2-0.4-2.9-1.2c-0.7-0.8-1.1-1.9-1.1-3.2c0-1.3,0.4-2.4,1.1-3.2c0.7-0.8,1.7-1.2,2.9-1.2
		C582.9,414.7,583.9,415.1,584.6,415.9z M580.3,417.2c-0.3,0.4-0.5,1-0.5,1.8c0,0.8,0.2,1.4,0.5,1.9c0.3,0.4,0.8,0.7,1.4,0.7
		c0.6,0,1.1-0.2,1.4-0.7c0.3-0.4,0.5-1.1,0.5-1.9c0-0.8-0.2-1.4-0.5-1.8c-0.3-0.4-0.8-0.7-1.4-0.7
		C581.1,416.6,580.7,416.8,580.3,417.2z"/>
	<rect id="t.administrative_1_" x="314.2" y="276.5" class="st0" width="204.3" height="191.2"/>
	<rect id="a.administrative_1_" x="314.2" y="395.7" class="st13" width="204.3" height="72"/>
	<g id="XMLID_427_">
		<text id="XMLID_398_" transform="matrix(1 0 0 1 314.1702 271.0699)" class="st8 st9 st10">Administrative</text>
	</g>
	<path id="XMLID_425_" class="st11" d="M333.8,404.4c0.8,0.4,1.4,0.9,1.8,1.6c0.4,0.7,0.6,1.4,0.6,2.2c0,0.8-0.2,1.5-0.5,2.1
		c-0.3,0.6-0.7,1.1-1.2,1.4c-0.5,0.3-1,0.5-1.5,0.5v0c0.6,0,1.2,0.2,1.7,0.5c0.5,0.3,0.9,0.8,1.3,1.3c0.3,0.6,0.5,1.3,0.5,2
		c0,0.9-0.2,1.7-0.7,2.4c-0.5,0.7-1.2,1.3-2.1,1.7c-0.9,0.4-1.9,0.6-3.1,0.6c-3,0-4.9-1.3-5.9-4l2.4-1.2c0.2,1,0.6,1.7,1.2,2.2
		c0.5,0.5,1.3,0.7,2.4,0.7c1,0,1.8-0.2,2.3-0.7c0.6-0.5,0.8-1.1,0.8-2c0-0.9-0.3-1.5-0.8-1.9c-0.5-0.4-1.4-0.6-2.6-0.6h-0.7v-2.1
		h0.7c2.1,0,3.1-0.8,3.1-2.5c0-0.8-0.2-1.5-0.7-1.9c-0.5-0.4-1.1-0.6-2-0.6c-0.9,0-1.6,0.2-2.1,0.6c-0.5,0.4-0.9,1-1,1.8l-2.4-1
		c0.3-1.2,1-2.1,2-2.8c1-0.6,2.2-1,3.6-1C332,403.8,333,404,333.8,404.4z"/>
	<path id="XMLID_422_" class="st11" d="M350.4,406.1c1.1,1.5,1.7,3.6,1.7,6.2c0,2.8-0.6,4.9-1.7,6.3c-1.1,1.4-2.7,2.1-4.8,2.1
		c-1.5,0-2.7-0.3-3.6-0.9c-0.9-0.6-1.7-1.5-2.2-2.8l2.5-1.2c0.3,0.9,0.6,1.5,1.1,1.9c0.5,0.4,1.2,0.6,2.2,0.6c1.5,0,2.5-0.6,3.1-1.7
		c0.6-1.1,0.9-2.7,0.9-4.8v-0.3h-0.1c-0.2,1-0.8,1.7-1.6,2.1c-0.8,0.5-1.8,0.7-2.8,0.7c-1.1,0-2-0.2-2.8-0.6
		c-0.8-0.4-1.5-1.1-1.9-1.9c-0.5-0.8-0.7-1.7-0.7-2.8c0-1.7,0.5-3,1.6-4c1.1-1,2.5-1.4,4.3-1.4C347.7,403.8,349.3,404.6,350.4,406.1
		z M343.2,407c-0.6,0.5-0.8,1.3-0.8,2.3c0,0.9,0.3,1.7,0.8,2.2c0.6,0.5,1.4,0.8,2.4,0.8c1,0,1.7-0.3,2.3-0.8
		c0.6-0.6,0.9-1.3,0.9-2.2c0-0.9-0.3-1.7-0.9-2.2c-0.6-0.6-1.4-0.8-2.3-0.8C344.6,406.2,343.8,406.4,343.2,407z"/>
	<path id="XMLID_415_" class="st11" d="M361.8,405.1c0.8,0.8,1.1,1.9,1.1,3.3c0,1.4-0.4,2.5-1.1,3.3c-0.8,0.8-1.8,1.3-3,1.3
		c-1.3,0-2.3-0.4-3-1.3c-0.8-0.8-1.1-1.9-1.1-3.3c0-1.4,0.4-2.5,1.1-3.3c0.8-0.8,1.8-1.3,3-1.3C360,403.8,361,404.3,361.8,405.1z
		 M357.3,406.5c-0.3,0.5-0.5,1.1-0.5,2c0,0.8,0.2,1.5,0.5,1.9s0.8,0.7,1.5,0.7c0.6,0,1.1-0.2,1.5-0.7s0.5-1.1,0.5-1.9
		c0-0.8-0.2-1.5-0.5-2c-0.3-0.5-0.8-0.7-1.5-0.7C358.1,405.8,357.6,406,357.3,406.5z M368.9,404.1h2.3l-10.7,16.4h-2.3L368.9,404.1z
		 M373.5,412.9c0.8,0.8,1.1,1.9,1.1,3.3c0,1.4-0.4,2.5-1.1,3.3c-0.8,0.8-1.8,1.3-3,1.3c-1.3,0-2.3-0.4-3-1.3
		c-0.8-0.8-1.1-1.9-1.1-3.3c0-1.4,0.4-2.5,1.1-3.3c0.8-0.8,1.8-1.3,3-1.3C371.8,411.6,372.8,412,373.5,412.9z M369,414.3
		c-0.3,0.5-0.5,1.1-0.5,1.9c0,0.8,0.2,1.5,0.5,2s0.8,0.7,1.5,0.7c0.6,0,1.1-0.2,1.5-0.7s0.5-1.1,0.5-2c0-0.8-0.2-1.5-0.5-1.9
		c-0.3-0.5-0.8-0.7-1.5-0.7C369.9,413.6,369.4,413.8,369,414.3z"/>
	<g id="XMLID_413_">
		<text id="XMLID_414_" transform="matrix(1 0 0 1 31.0104 349.1206)" class="st8 st9 st10">Finance</text>
	</g>
	<g id="XMLID_401_">
		<path id="XMLID_410_" class="st11" d="M47.4,433.2h-1.9v2.8h-1.7v-2.8h-5.6v-1.1l5-7.3h2.2v7h1.9V433.2z M40.1,431.8h3.7v-3.9
			l0.1-1.8h0c-0.3,0.6-0.6,1.2-1.1,1.9L40.1,431.8z"/>
		<path id="XMLID_408_" class="st11" d="M49.3,434.7c1.5-1,2.6-1.9,3.5-2.6c0.8-0.7,1.4-1.4,1.8-2c0.4-0.6,0.5-1.2,0.5-1.9
			c0-0.6-0.2-1.1-0.6-1.5c-0.4-0.4-0.9-0.6-1.6-0.6c-0.7,0-1.3,0.2-1.7,0.7c-0.4,0.5-0.7,1.1-0.7,1.9l-1.6-0.7
			c0.1-1.1,0.5-1.9,1.2-2.6c0.7-0.6,1.7-0.9,2.8-0.9c0.8,0,1.5,0.2,2.1,0.5c0.6,0.3,1,0.7,1.4,1.3c0.3,0.5,0.5,1.1,0.5,1.8
			c0,1.1-0.4,2.1-1.2,3.1c-0.8,1-2.1,2.1-4,3.3v0c0.6,0,1.2-0.1,1.9-0.1h3.6v1.6h-7.8V434.7z"/>
		<path id="XMLID_402_" class="st11" d="M63.7,425.4c0.5,0.6,0.8,1.3,0.8,2.3c0,0.9-0.3,1.7-0.8,2.3c-0.5,0.6-1.2,0.9-2.1,0.9
			c-0.9,0-1.6-0.3-2.1-0.9c-0.5-0.6-0.8-1.3-0.8-2.3c0-0.9,0.3-1.7,0.8-2.3c0.5-0.6,1.2-0.9,2.1-0.9
			C62.5,424.6,63.2,424.8,63.7,425.4z M60.6,426.4c-0.2,0.3-0.4,0.8-0.4,1.3c0,0.6,0.1,1,0.4,1.3s0.6,0.5,1,0.5c0.4,0,0.8-0.2,1-0.5
			c0.2-0.3,0.4-0.8,0.4-1.3c0-0.6-0.1-1-0.4-1.3c-0.2-0.3-0.6-0.5-1-0.5C61.2,425.9,60.9,426,60.6,426.4z M68.6,424.7h1.6L62.8,436
			h-1.6L68.6,424.7z M71.8,430.8c0.5,0.6,0.8,1.3,0.8,2.3c0,0.9-0.3,1.7-0.8,2.3c-0.5,0.6-1.2,0.9-2.1,0.9c-0.9,0-1.6-0.3-2.1-0.9
			c-0.5-0.6-0.8-1.3-0.8-2.3c0-0.9,0.3-1.7,0.8-2.3c0.5-0.6,1.2-0.9,2.1-0.9C70.6,429.9,71.3,430.2,71.8,430.8z M68.7,431.7
			c-0.2,0.3-0.3,0.8-0.3,1.3c0,0.6,0.1,1,0.3,1.3s0.6,0.5,1,0.5c0.4,0,0.8-0.2,1-0.5c0.2-0.3,0.4-0.8,0.4-1.3c0-0.6-0.1-1-0.4-1.3
			c-0.2-0.3-0.6-0.5-1-0.5C69.3,431.2,68.9,431.4,68.7,431.7z"/>
	</g>
	<rect id="t.manufacturing_2_" x="138.9" y="311.1" class="st0" width="166.4" height="156.6"/>
	<rect id="a.manufacturing_2_" x="138.9" y="375.4" class="st3" width="166.4" height="92.3"/>
	<g id="XMLID_388_">
		<text id="XMLID_428_" transform="matrix(1 0 0 1 138.8825 305.4233)" class="st8 st9 st10">Manufacturing</text>
	</g>
	<g id="XMLID_375_">
		<path id="XMLID_386_" class="st11" d="M157.3,390.8c0.8,0.4,1.4,1,1.8,1.8c0.4,0.8,0.6,1.7,0.6,2.7c0,1.8-0.5,3.2-1.6,4.1
			c-1.1,1-2.5,1.5-4.3,1.5c-1.5,0-2.7-0.3-3.7-0.9c-1-0.6-1.7-1.5-2.3-2.7l2.5-1.4c0.2,0.9,0.6,1.6,1.1,2c0.5,0.5,1.3,0.7,2.3,0.7
			c1,0,1.8-0.3,2.4-0.8c0.6-0.5,0.9-1.3,0.9-2.3c0-1-0.3-1.8-0.8-2.4c-0.5-0.6-1.3-0.8-2.4-0.8c-1.6,0-2.7,0.5-3.3,1.4l-2.2-0.1
			l1-9.3h9.5v2.3h-7.4l-0.6,4.5l0,0.3h0c0.8-0.9,2-1.3,3.6-1.3C155.7,390.2,156.6,390.4,157.3,390.8z"/>
		<path id="XMLID_383_" class="st11" d="M173.3,386.3c1.1,1.5,1.7,3.6,1.7,6.2c0,2.8-0.6,4.9-1.7,6.3c-1.1,1.4-2.7,2.1-4.8,2.1
			c-1.5,0-2.7-0.3-3.6-0.9c-0.9-0.6-1.7-1.5-2.2-2.8l2.5-1.2c0.3,0.9,0.6,1.5,1.1,1.9c0.5,0.4,1.2,0.6,2.2,0.6
			c1.5,0,2.5-0.6,3.1-1.7c0.6-1.1,0.9-2.7,0.9-4.8v-0.3h-0.1c-0.2,1-0.8,1.7-1.6,2.1c-0.8,0.5-1.8,0.7-2.8,0.7c-1.1,0-2-0.2-2.8-0.6
			c-0.8-0.4-1.5-1-1.9-1.9c-0.5-0.8-0.7-1.7-0.7-2.8c0-1.7,0.5-3,1.6-4c1.1-1,2.5-1.4,4.3-1.4C170.6,384.1,172.2,384.8,173.3,386.3z
			 M166.2,387.2c-0.6,0.5-0.8,1.3-0.8,2.3c0,0.9,0.3,1.7,0.8,2.2c0.6,0.5,1.4,0.8,2.4,0.8c1,0,1.7-0.3,2.3-0.8
			c0.6-0.6,0.9-1.3,0.9-2.2c0-0.9-0.3-1.7-0.9-2.2c-0.6-0.6-1.4-0.8-2.3-0.8C167.5,386.4,166.7,386.7,166.2,387.2z"/>
		<path id="XMLID_377_" class="st11" d="M184.7,385.3c0.8,0.8,1.1,1.9,1.1,3.3c0,1.4-0.4,2.5-1.1,3.3c-0.8,0.8-1.8,1.3-3,1.3
			c-1.3,0-2.3-0.4-3-1.3c-0.8-0.8-1.1-1.9-1.1-3.3c0-1.4,0.4-2.5,1.1-3.3c0.8-0.8,1.8-1.3,3-1.3
			C182.9,384.1,183.9,384.5,184.7,385.3z M180.2,386.7c-0.3,0.5-0.5,1.1-0.5,1.9c0,0.8,0.2,1.5,0.5,1.9c0.3,0.5,0.8,0.7,1.5,0.7
			c0.6,0,1.1-0.2,1.5-0.7c0.3-0.5,0.5-1.1,0.5-1.9c0-0.8-0.2-1.5-0.5-1.9c-0.3-0.5-0.8-0.7-1.5-0.7C181,386,180.5,386.2,180.2,386.7
			z M191.8,384.3h2.3l-10.7,16.4H181L191.8,384.3z M196.4,393.1c0.8,0.8,1.1,1.9,1.1,3.3c0,1.4-0.4,2.5-1.1,3.3
			c-0.8,0.8-1.8,1.3-3,1.3c-1.3,0-2.3-0.4-3-1.3c-0.8-0.8-1.1-1.9-1.1-3.3c0-1.4,0.4-2.5,1.1-3.3c0.8-0.8,1.8-1.3,3-1.3
			C194.7,391.8,195.7,392.2,196.4,393.1z M191.9,394.5c-0.3,0.5-0.5,1.1-0.5,1.9c0,0.8,0.2,1.5,0.5,2c0.3,0.5,0.8,0.7,1.5,0.7
			c0.6,0,1.1-0.2,1.5-0.7c0.3-0.5,0.5-1.1,0.5-2c0-0.8-0.2-1.5-0.5-1.9c-0.3-0.5-0.8-0.7-1.5-0.7C192.8,393.8,192.3,394,191.9,394.5
			z"/>
	</g>
	<g id="XMLID_374_">
		<text id="XMLID_430_" transform="matrix(1 0 0 1 30.2307 228.6948)" class="st8 st9 st10">Transportation</text>
	</g>
	<g id="XMLID_362_">
		<path id="XMLID_372_" class="st11" d="M44.1,285.7c0.5,0.3,0.9,0.7,1.2,1.3c0.3,0.5,0.4,1.2,0.4,1.9c0,1.2-0.4,2.2-1.1,2.8
			c-0.7,0.7-1.7,1-2.9,1c-1,0-1.9-0.2-2.5-0.6c-0.7-0.4-1.2-1-1.6-1.9l1.7-0.9c0.2,0.6,0.4,1.1,0.8,1.4c0.3,0.3,0.9,0.5,1.6,0.5
			s1.2-0.2,1.7-0.6c0.4-0.4,0.6-0.9,0.6-1.6c0-0.7-0.2-1.3-0.6-1.6c-0.4-0.4-0.9-0.6-1.6-0.6c-1.1,0-1.8,0.3-2.3,1l-1.5-0.1l0.7-6.4
			h6.6v1.6h-5.1l-0.4,3.1l0,0.2h0c0.5-0.6,1.4-0.9,2.5-0.9C42.9,285.3,43.6,285.4,44.1,285.7z"/>
		<path id="XMLID_369_" class="st11" d="M55.1,282.6c0.8,1,1.2,2.5,1.2,4.3c0,1.9-0.4,3.4-1.2,4.3c-0.8,1-1.9,1.5-3.3,1.5
			c-1,0-1.9-0.2-2.5-0.6c-0.6-0.4-1.1-1.1-1.5-1.9l1.7-0.8c0.2,0.6,0.4,1,0.8,1.3c0.3,0.3,0.8,0.4,1.5,0.4c1,0,1.7-0.4,2.2-1.1
			c0.4-0.8,0.6-1.9,0.6-3.3v-0.2h-0.1c-0.2,0.7-0.5,1.1-1.1,1.5c-0.6,0.3-1.2,0.5-1.9,0.5c-0.7,0-1.4-0.1-1.9-0.4
			c-0.6-0.3-1-0.7-1.3-1.3c-0.3-0.6-0.5-1.2-0.5-1.9c0-1.2,0.4-2.1,1.1-2.7s1.7-1,3-1C53.2,281.1,54.3,281.6,55.1,282.6z
			 M50.2,283.2c-0.4,0.4-0.6,0.9-0.6,1.6c0,0.6,0.2,1.2,0.6,1.5c0.4,0.4,0.9,0.5,1.6,0.5c0.7,0,1.2-0.2,1.6-0.6
			c0.4-0.4,0.6-0.9,0.6-1.5c0-0.6-0.2-1.2-0.6-1.5c-0.4-0.4-0.9-0.6-1.6-0.6C51.1,282.7,50.6,282.8,50.2,283.2z"/>
		<path id="XMLID_363_" class="st11" d="M62.9,281.9c0.5,0.6,0.8,1.3,0.8,2.3c0,0.9-0.3,1.7-0.8,2.3c-0.5,0.6-1.2,0.9-2.1,0.9
			c-0.9,0-1.6-0.3-2.1-0.9c-0.5-0.6-0.8-1.3-0.8-2.3c0-0.9,0.3-1.7,0.8-2.3c0.5-0.6,1.2-0.9,2.1-0.9
			C61.7,281.1,62.4,281.3,62.9,281.9z M59.8,282.9c-0.2,0.3-0.4,0.8-0.4,1.3c0,0.6,0.1,1,0.4,1.3c0.2,0.3,0.6,0.5,1,0.5
			c0.4,0,0.8-0.2,1-0.5s0.4-0.8,0.4-1.3c0-0.6-0.1-1-0.4-1.3c-0.2-0.3-0.6-0.5-1-0.5C60.4,282.4,60.1,282.5,59.8,282.9z M67.8,281.2
			h1.6L62,292.5h-1.6L67.8,281.2z M71,287.3c0.5,0.6,0.8,1.3,0.8,2.3c0,0.9-0.3,1.7-0.8,2.3c-0.5,0.6-1.2,0.9-2.1,0.9
			c-0.9,0-1.6-0.3-2.1-0.9c-0.5-0.6-0.8-1.3-0.8-2.3c0-0.9,0.3-1.7,0.8-2.3c0.5-0.6,1.2-0.9,2.1-0.9C69.8,286.4,70.5,286.7,71,287.3
			z M67.9,288.2c-0.2,0.3-0.4,0.8-0.4,1.3c0,0.6,0.1,1,0.4,1.3c0.2,0.3,0.6,0.5,1,0.5c0.4,0,0.8-0.2,1-0.5c0.2-0.3,0.4-0.8,0.4-1.3
			c0-0.6-0.1-1-0.4-1.3c-0.2-0.3-0.6-0.5-1-0.5C68.5,287.7,68.1,287.9,67.9,288.2z"/>
	</g>
	<rect id="t.information_2_" x="77.8" y="22.2" class="st0" width="50.7" height="99.4"/>
	<rect id="a.information_2_" x="77.8" y="84.9" class="st14" width="50.7" height="36.7"/>
	<path id="XMLID_348_" class="st11" d="M87.2,89c0.4,0.2,0.7,0.5,0.9,0.8c0.2,0.3,0.3,0.7,0.3,1.1c0,0.4-0.1,0.8-0.2,1.1
		c-0.2,0.3-0.4,0.6-0.6,0.7c-0.2,0.2-0.5,0.3-0.8,0.3v0c0.3,0,0.6,0.1,0.9,0.2s0.5,0.4,0.6,0.7c0.2,0.3,0.2,0.6,0.2,1
		c0,0.5-0.1,0.9-0.4,1.2c-0.3,0.4-0.6,0.7-1.1,0.9c-0.5,0.2-1,0.3-1.6,0.3c-1.5,0-2.5-0.7-3-2.1l1.3-0.6c0.1,0.5,0.3,0.9,0.6,1.1
		c0.3,0.2,0.7,0.4,1.2,0.4c0.5,0,0.9-0.1,1.2-0.4c0.3-0.3,0.4-0.6,0.4-1c0-0.5-0.1-0.8-0.4-1c-0.3-0.2-0.7-0.3-1.3-0.3h-0.4v-1.1
		h0.3c1.1,0,1.6-0.4,1.6-1.3c0-0.4-0.1-0.8-0.4-1s-0.6-0.3-1-0.3c-0.5,0-0.8,0.1-1.1,0.3s-0.4,0.5-0.5,0.9l-1.3-0.5
		c0.2-0.6,0.5-1.1,1-1.4c0.5-0.3,1.1-0.5,1.8-0.5C86.3,88.7,86.8,88.8,87.2,89z"/>
	<path id="XMLID_346_" class="st11" d="M95,92.2c0.4,0.2,0.7,0.5,0.9,0.9c0.2,0.4,0.3,0.9,0.3,1.4c0,0.9-0.3,1.6-0.8,2.1
		c-0.5,0.5-1.3,0.8-2.2,0.8c-0.8,0-1.4-0.2-1.9-0.5c-0.5-0.3-0.9-0.8-1.2-1.4l1.3-0.7c0.1,0.5,0.3,0.8,0.6,1
		c0.3,0.2,0.7,0.4,1.2,0.4c0.5,0,0.9-0.1,1.2-0.4c0.3-0.3,0.5-0.7,0.5-1.2c0-0.5-0.1-0.9-0.4-1.2c-0.3-0.3-0.7-0.4-1.2-0.4
		c-0.8,0-1.4,0.2-1.7,0.7l-1.1-0.1l0.5-4.8h4.9V90H92l-0.3,2.4l0,0.2h0c0.4-0.5,1-0.7,1.9-0.7C94.1,91.8,94.6,91.9,95,92.2z"/>
	<path id="XMLID_340_" class="st11" d="M101.2,89.3c0.4,0.4,0.6,1,0.6,1.7c0,0.7-0.2,1.3-0.6,1.7s-0.9,0.6-1.6,0.6
		c-0.7,0-1.2-0.2-1.6-0.6c-0.4-0.4-0.6-1-0.6-1.7c0-0.7,0.2-1.3,0.6-1.7c0.4-0.4,0.9-0.6,1.6-0.6C100.2,88.7,100.8,88.9,101.2,89.3z
		 M98.8,90c-0.2,0.2-0.3,0.6-0.3,1c0,0.4,0.1,0.8,0.3,1c0.2,0.2,0.4,0.4,0.8,0.4c0.3,0,0.6-0.1,0.8-0.4c0.2-0.2,0.3-0.6,0.3-1
		c0-0.4-0.1-0.8-0.3-1c-0.2-0.2-0.4-0.4-0.8-0.4C99.3,89.7,99,89.8,98.8,90z M104.8,88.8h1.2l-5.5,8.5h-1.2L104.8,88.8z M107.2,93.3
		c0.4,0.4,0.6,1,0.6,1.7c0,0.7-0.2,1.3-0.6,1.7c-0.4,0.4-0.9,0.6-1.6,0.6c-0.7,0-1.2-0.2-1.6-0.6c-0.4-0.4-0.6-1-0.6-1.7
		c0-0.7,0.2-1.3,0.6-1.7c0.4-0.4,0.9-0.6,1.6-0.6C106.3,92.7,106.8,92.9,107.2,93.3z M104.9,94c-0.2,0.2-0.3,0.6-0.3,1
		c0,0.4,0.1,0.8,0.3,1c0.2,0.2,0.4,0.4,0.8,0.4c0.3,0,0.6-0.1,0.8-0.4c0.2-0.2,0.3-0.6,0.3-1c0-0.4-0.1-0.8-0.3-1
		c-0.2-0.2-0.4-0.4-0.8-0.4C105.3,93.7,105.1,93.8,104.9,94z"/>
	<g id="XMLID_338_">
		<text id="XMLID_432_" transform="matrix(1 0 0 1 78.5485 16.7066)" class="st8 st9 st10">Information</text>
	</g>
	<g id="XMLID_337_">
		<text id="XMLID_435_" transform="matrix(1 0 0 1 31.0101 134.1627)" class="st8 st9 st10">Other services</text>
	</g>
	<g id="XMLID_307_">
		<path id="XMLID_332_" class="st11" d="M45.3,191.8h-1.8v2.7h-1.6v-2.7h-5.3v-1.1l4.8-7h2.1v6.7h1.8V191.8z M38.3,190.5h3.5v-3.7
			l0.1-1.7h0c-0.3,0.6-0.6,1.1-1,1.8L38.3,190.5z"/>
		<path id="XMLID_329_" class="st11" d="M53.9,185.1c0.7,1,1.1,2.3,1.1,4.1c0,1.8-0.4,3.2-1.1,4.1c-0.7,0.9-1.8,1.4-3.2,1.4
			c-1,0-1.8-0.2-2.4-0.6c-0.6-0.4-1.1-1-1.4-1.8l1.6-0.8c0.2,0.6,0.4,1,0.7,1.3c0.3,0.3,0.8,0.4,1.4,0.4c1,0,1.6-0.4,2-1.1
			c0.4-0.7,0.6-1.8,0.6-3.1v-0.2h-0.1c-0.2,0.6-0.5,1.1-1,1.4c-0.5,0.3-1.1,0.4-1.8,0.4c-0.7,0-1.3-0.1-1.8-0.4
			c-0.5-0.3-1-0.7-1.3-1.2c-0.3-0.5-0.5-1.1-0.5-1.8c0-1.1,0.3-2,1-2.6c0.7-0.6,1.6-0.9,2.8-0.9C52.2,183.6,53.2,184.1,53.9,185.1z
			 M49.3,185.7c-0.4,0.4-0.6,0.8-0.6,1.5c0,0.6,0.2,1.1,0.6,1.4c0.4,0.3,0.9,0.5,1.5,0.5c0.6,0,1.1-0.2,1.5-0.5
			c0.4-0.4,0.6-0.8,0.6-1.4c0-0.6-0.2-1.1-0.6-1.5c-0.4-0.4-0.9-0.6-1.5-0.6C50.2,185.1,49.6,185.3,49.3,185.7z"/>
		<path id="XMLID_308_" class="st11" d="M61.4,184.4c0.5,0.5,0.7,1.3,0.7,2.2c0,0.9-0.2,1.6-0.7,2.2c-0.5,0.5-1.2,0.8-2,0.8
			c-0.8,0-1.5-0.3-2-0.8c-0.5-0.5-0.7-1.3-0.7-2.2c0-0.9,0.2-1.6,0.7-2.2c0.5-0.5,1.2-0.8,2-0.8C60.2,183.6,60.9,183.9,61.4,184.4z
			 M58.4,185.3c-0.2,0.3-0.3,0.7-0.3,1.3c0,0.5,0.1,1,0.3,1.3c0.2,0.3,0.5,0.4,1,0.4c0.4,0,0.7-0.1,1-0.4c0.2-0.3,0.3-0.7,0.3-1.3
			c0-0.6-0.1-1-0.3-1.3c-0.2-0.3-0.5-0.4-1-0.4C59,184.9,58.7,185,58.4,185.3z M66,183.8h1.5l-7,10.7H59L66,183.8z M69,189.5
			c0.5,0.5,0.7,1.3,0.7,2.2c0,0.9-0.2,1.6-0.7,2.2c-0.5,0.5-1.2,0.8-2,0.8c-0.8,0-1.5-0.3-2-0.8c-0.5-0.5-0.7-1.3-0.7-2.2
			c0-0.9,0.2-1.6,0.7-2.2c0.5-0.5,1.2-0.8,2-0.8C67.9,188.7,68.6,189,69,189.5z M66.1,190.4c-0.2,0.3-0.3,0.7-0.3,1.3
			c0,0.6,0.1,1,0.3,1.3c0.2,0.3,0.5,0.4,1,0.4c0.4,0,0.7-0.1,1-0.4c0.2-0.3,0.3-0.7,0.3-1.3c0-0.5-0.1-1-0.3-1.3
			c-0.2-0.3-0.5-0.4-1-0.4C66.7,190,66.3,190.1,66.1,190.4z"/>
	</g>
	<g id="XMLID_305_">
		<text id="XMLID_434_" transform="matrix(1 0 0 1 138.9739 16.7065)" class="st8 st9 st10">Construction</text>
	</g>
	<g id="XMLID_292_">
		<path id="XMLID_301_" class="st11" d="M154.6,113.2h-1.7v2.5h-1.5v-2.5h-4.9v-1l4.5-6.5h2v6.3h1.7V113.2z M148,112h3.3v-3.4
			l0.1-1.6h0c-0.2,0.5-0.6,1.1-1,1.7L148,112z"/>
		<path id="XMLID_299_" class="st11" d="M162.7,105.7v1.4c-1.2,1.3-2.1,2.6-2.7,4c-0.5,1.4-0.8,3-0.8,4.7h-1.7
			c0-1.6,0.3-3.1,0.9-4.6c0.6-1.4,1.4-2.8,2.6-4h-5.9v-1.4H162.7z"/>
		<path id="XMLID_293_" class="st11" d="M168.2,106.3c0.5,0.5,0.7,1.2,0.7,2s-0.2,1.5-0.7,2s-1.1,0.8-1.8,0.8
			c-0.8,0-1.4-0.3-1.8-0.8c-0.5-0.5-0.7-1.2-0.7-2s0.2-1.5,0.7-2c0.5-0.5,1.1-0.8,1.8-0.8C167.1,105.5,167.7,105.8,168.2,106.3z
			 M165.4,107.1c-0.2,0.3-0.3,0.7-0.3,1.2c0,0.5,0.1,0.9,0.3,1.2c0.2,0.3,0.5,0.4,0.9,0.4c0.4,0,0.7-0.1,0.9-0.4
			c0.2-0.3,0.3-0.7,0.3-1.2c0-0.5-0.1-0.9-0.3-1.2c-0.2-0.3-0.5-0.4-0.9-0.4C165.9,106.7,165.6,106.9,165.4,107.1z M172.5,105.7h1.4
			l-6.5,10h-1.4L172.5,105.7z M175.3,111c0.5,0.5,0.7,1.2,0.7,2c0,0.8-0.2,1.5-0.7,2c-0.5,0.5-1.1,0.8-1.8,0.8
			c-0.8,0-1.4-0.3-1.8-0.8c-0.5-0.5-0.7-1.2-0.7-2c0-0.8,0.2-1.5,0.7-2c0.5-0.5,1.1-0.8,1.8-0.8C174.3,110.3,174.9,110.5,175.3,111z
			 M172.6,111.9c-0.2,0.3-0.3,0.7-0.3,1.2c0,0.5,0.1,0.9,0.3,1.2c0.2,0.3,0.5,0.4,0.9,0.4c0.4,0,0.7-0.1,0.9-0.4
			c0.2-0.3,0.3-0.7,0.3-1.2c0-0.5-0.1-0.9-0.3-1.2c-0.2-0.3-0.5-0.4-0.9-0.4C173.1,111.5,172.8,111.6,172.6,111.9z"/>
	</g>
	<rect id="t.management_1_" x="31.7" y="22.2" class="st0" width="38.3" height="99.4"/>
	<rect id="a.management_3_" x="31.7" y="86.3" class="st1" width="38.3" height="35.4"/>
	<g id="XMLID_262_">
		<path id="XMLID_289_" class="st11" d="M41.1,90.3c0.4,0.2,0.6,0.4,0.8,0.7c0.2,0.3,0.3,0.6,0.3,1c0,0.3-0.1,0.7-0.2,0.9
			c-0.1,0.3-0.3,0.5-0.5,0.6c-0.2,0.1-0.4,0.2-0.7,0.2v0c0.3,0,0.5,0.1,0.8,0.2c0.2,0.1,0.4,0.3,0.6,0.6c0.1,0.3,0.2,0.6,0.2,0.9
			c0,0.4-0.1,0.8-0.3,1.1c-0.2,0.3-0.5,0.6-0.9,0.7c-0.4,0.2-0.9,0.3-1.4,0.3c-1.3,0-2.2-0.6-2.6-1.8l1.1-0.5c0.1,0.4,0.3,0.8,0.5,1
			c0.2,0.2,0.6,0.3,1.1,0.3c0.4,0,0.8-0.1,1-0.3c0.3-0.2,0.4-0.5,0.4-0.9c0-0.4-0.1-0.7-0.4-0.9c-0.2-0.2-0.6-0.3-1.2-0.3h-0.3v-0.9
			h0.3c0.9,0,1.4-0.4,1.4-1.1c0-0.4-0.1-0.7-0.3-0.8c-0.2-0.2-0.5-0.3-0.9-0.3c-0.4,0-0.7,0.1-0.9,0.3c-0.2,0.2-0.4,0.5-0.5,0.8
			l-1.1-0.4c0.2-0.5,0.5-0.9,0.9-1.2c0.4-0.3,1-0.4,1.6-0.4C40.3,90,40.7,90.1,41.1,90.3z"/>
		<path id="XMLID_285_" class="st11" d="M49.5,95.6h-1.2v1.8h-1.1v-1.8h-3.6v-0.7l3.3-4.8h1.5v4.6h1.2V95.6z M44.7,94.7h2.4v-2.5
			l0-1.2h0c-0.2,0.4-0.4,0.8-0.7,1.2L44.7,94.7z"/>
		<path id="XMLID_263_" class="st11" d="M53.6,90.6c0.3,0.4,0.5,0.9,0.5,1.5s-0.2,1.1-0.5,1.5c-0.3,0.4-0.8,0.6-1.4,0.6
			s-1-0.2-1.4-0.6c-0.3-0.4-0.5-0.9-0.5-1.5s0.2-1.1,0.5-1.5c0.3-0.4,0.8-0.6,1.4-0.6S53.3,90.2,53.6,90.6z M51.6,91.2
			c-0.2,0.2-0.2,0.5-0.2,0.9c0,0.4,0.1,0.7,0.2,0.9c0.2,0.2,0.4,0.3,0.7,0.3c0.3,0,0.5-0.1,0.7-0.3c0.2-0.2,0.2-0.5,0.2-0.9
			c0-0.4-0.1-0.7-0.2-0.9c-0.2-0.2-0.4-0.3-0.7-0.3C52,90.9,51.8,91,51.6,91.2z M56.8,90.1h1L53,97.5h-1L56.8,90.1z M58.9,94
			c0.3,0.4,0.5,0.9,0.5,1.5c0,0.6-0.2,1.1-0.5,1.5c-0.3,0.4-0.8,0.6-1.4,0.6s-1-0.2-1.4-0.6c-0.3-0.4-0.5-0.9-0.5-1.5
			c0-0.6,0.2-1.1,0.5-1.5c0.3-0.4,0.8-0.6,1.4-0.6S58.6,93.7,58.9,94z M56.9,94.7c-0.2,0.2-0.2,0.5-0.2,0.9c0,0.4,0.1,0.7,0.2,0.9
			c0.2,0.2,0.4,0.3,0.7,0.3c0.3,0,0.5-0.1,0.7-0.3c0.2-0.2,0.2-0.5,0.2-0.9c0-0.4-0.1-0.7-0.2-0.9c-0.2-0.2-0.4-0.3-0.7-0.3
			C57.3,94.4,57.1,94.5,56.9,94.7z"/>
	</g>
	<g id="XMLID_261_">
		<text id="XMLID_433_" transform="matrix(1 0 0 1 7.7879 16.7065)" class="st8 st9 st10">Management </text>
	</g>
	<g id="XMLID_260_">
		<text id="XMLID_431_" transform="matrix(1 0 0 1 227.6667 16.7062)" class="st8 st9 st10">Wholesale trade</text>
	</g>
	<g id="XMLID_247_">
		<path id="XMLID_257_" class="st11" d="M244.1,117.4h-1.8v2.7h-1.7v-2.7h-5.4v-1.1l4.9-7.1h2.2v6.8h1.8V117.4z M237,116h3.6v-3.7
			l0.1-1.8h0c-0.3,0.6-0.6,1.2-1.1,1.8L237,116z"/>
		<path id="XMLID_254_" class="st11" d="M254.4,117.4h-1.8v2.7h-1.7v-2.7h-5.4v-1.1l4.9-7.1h2.2v6.8h1.8V117.4z M247.3,116h3.6v-3.7
			l0.1-1.8h0c-0.3,0.6-0.6,1.2-1.1,1.8L247.3,116z"/>
		<path id="XMLID_248_" class="st11" d="M260.5,109.9c0.5,0.6,0.8,1.3,0.8,2.2s-0.3,1.6-0.8,2.2c-0.5,0.6-1.2,0.8-2,0.8
			c-0.8,0-1.5-0.3-2-0.8c-0.5-0.6-0.8-1.3-0.8-2.2s0.2-1.6,0.8-2.2c0.5-0.6,1.2-0.8,2-0.8C259.3,109.1,260,109.4,260.5,109.9z
			 M257.5,110.8c-0.2,0.3-0.3,0.7-0.3,1.3c0,0.5,0.1,1,0.3,1.3c0.2,0.3,0.5,0.5,1,0.5c0.4,0,0.8-0.2,1-0.5c0.2-0.3,0.3-0.7,0.3-1.3
			c0-0.6-0.1-1-0.3-1.3c-0.2-0.3-0.6-0.5-1-0.5C258,110.4,257.7,110.5,257.5,110.8z M265.1,109.2h1.5l-7.1,10.9H258L265.1,109.2z
			 M268.2,115.1c0.5,0.6,0.8,1.3,0.8,2.2c0,0.9-0.3,1.6-0.8,2.2c-0.5,0.6-1.2,0.8-2,0.8c-0.8,0-1.5-0.3-2-0.8
			c-0.5-0.6-0.8-1.3-0.8-2.2c0-0.9,0.3-1.6,0.8-2.2c0.5-0.6,1.2-0.8,2-0.8C267.1,114.2,267.7,114.5,268.2,115.1z M265.3,116
			c-0.2,0.3-0.3,0.7-0.3,1.3c0,0.6,0.1,1,0.3,1.3c0.2,0.3,0.5,0.5,1,0.5c0.4,0,0.8-0.2,1-0.5c0.2-0.3,0.3-0.7,0.3-1.3
			c0-0.5-0.1-1-0.3-1.3c-0.2-0.3-0.6-0.5-1-0.5C265.8,115.5,265.5,115.7,265.3,116z"/>
	</g>
	<g id="XMLID_246_">
		<text id="XMLID_429_" transform="matrix(1 0 0 1 314.1706 16.7066)" class="st8 st9 st10">Accomodation &amp; food</text>
	</g>
	<rect id="t.accomodation_1_" x="314.2" y="22.2" class="st0" width="120.3" height="219.6"/>
	<rect id="a.management_2_" x="314.2" y="80.3" class="st15" width="120.3" height="161.6"/>
	<g id="XMLID_223_">
		<path id="XMLID_244_" class="st11" d="M337.1,89.6v2.1c-2,2-3.4,4.1-4.2,6.3c-0.9,2.2-1.3,4.7-1.3,7.4H329c0-2.5,0.5-5,1.4-7.2
			c0.9-2.3,2.3-4.4,4.1-6.4h-9.4v-2.2H337.1z"/>
		<path id="XMLID_242_" class="st11" d="M347.7,90c0.8,0.4,1.4,0.9,1.8,1.5c0.4,0.6,0.6,1.4,0.6,2.1c0,0.8-0.1,1.4-0.4,2
			c-0.3,0.6-0.7,1-1.1,1.4c-0.5,0.3-0.9,0.5-1.4,0.5v0c0.6,0,1.2,0.2,1.7,0.5c0.5,0.3,0.9,0.7,1.2,1.3c0.3,0.6,0.5,1.2,0.5,1.9
			c0,0.9-0.2,1.6-0.7,2.3c-0.5,0.7-1.2,1.2-2,1.6c-0.9,0.4-1.9,0.6-3,0.6c-2.9,0-4.8-1.3-5.7-3.8l2.4-1.1c0.2,0.9,0.6,1.6,1.2,2.1
			c0.5,0.5,1.3,0.7,2.3,0.7c1,0,1.7-0.2,2.3-0.7c0.5-0.5,0.8-1.1,0.8-1.9c0-0.9-0.3-1.5-0.8-1.8c-0.5-0.4-1.3-0.5-2.5-0.5h-0.7v-2
			h0.6c2,0,3-0.8,3-2.4c0-0.8-0.2-1.4-0.7-1.8s-1.1-0.6-1.9-0.6c-0.8,0-1.5,0.2-2,0.6c-0.5,0.4-0.8,1-1,1.7l-2.4-1
			c0.3-1.2,1-2,2-2.7c1-0.6,2.1-0.9,3.4-0.9C346,89.4,347,89.6,347.7,90z"/>
		<path id="XMLID_224_" class="st11" d="M359.8,90.6c0.7,0.8,1.1,1.9,1.1,3.2s-0.4,2.4-1.1,3.2c-0.7,0.8-1.7,1.2-2.9,1.2
			c-1.2,0-2.2-0.4-2.9-1.2c-0.7-0.8-1.1-1.9-1.1-3.2s0.4-2.4,1.1-3.2c0.7-0.8,1.7-1.2,2.9-1.2C358.1,89.4,359,89.8,359.8,90.6z
			 M355.5,91.9c-0.3,0.4-0.5,1.1-0.5,1.9c0,0.8,0.2,1.4,0.5,1.9c0.3,0.4,0.8,0.7,1.4,0.7c0.6,0,1.1-0.2,1.4-0.7
			c0.3-0.4,0.5-1.1,0.5-1.9c0-0.8-0.2-1.4-0.5-1.9c-0.3-0.4-0.8-0.7-1.4-0.7C356.3,91.3,355.8,91.5,355.5,91.9z M366.6,89.6h2.2
			l-10.3,15.8h-2.2L366.6,89.6z M371.1,98.1c0.7,0.8,1.1,1.9,1.1,3.2c0,1.3-0.4,2.4-1.1,3.2c-0.7,0.8-1.7,1.2-2.9,1.2
			c-1.2,0-2.2-0.4-2.9-1.2c-0.7-0.8-1.1-1.9-1.1-3.2c0-1.3,0.4-2.4,1.1-3.2c0.7-0.8,1.7-1.2,2.9-1.2
			C369.4,96.9,370.4,97.3,371.1,98.1z M366.8,99.4c-0.3,0.4-0.5,1.1-0.5,1.9c0,0.8,0.2,1.4,0.5,1.9c0.3,0.4,0.8,0.7,1.4,0.7
			c0.6,0,1.1-0.2,1.4-0.7c0.3-0.4,0.5-1.1,0.5-1.9c0-0.8-0.2-1.4-0.5-1.9c-0.3-0.4-0.8-0.7-1.4-0.7C367.6,98.8,367.1,99,366.8,99.4z
			"/>
	</g>
	<g id="XMLID_222_">
		<text id="XMLID_418_" transform="matrix(1 0 0 1 581.716 16.7065)" class="st8 st9 st10">Retail trade</text>
	</g>
	<rect id="t.retail_2_" x="578.9" y="22.2" class="st0" width="156.6" height="219.6"/>
	<rect id="a.retail_2_" x="578.9" y="124.9" class="st16" width="156.6" height="116.9"/>
	<g id="XMLID_211_">
		<path id="XMLID_220_" class="st11" d="M601.1,140.7c0.8,0.4,1.4,1,1.8,1.8c0.4,0.8,0.6,1.7,0.6,2.7c0,1.8-0.5,3.1-1.6,4.1
			c-1.1,1-2.5,1.5-4.2,1.5c-1.5,0-2.7-0.3-3.7-0.9c-1-0.6-1.7-1.5-2.3-2.7l2.5-1.4c0.2,0.9,0.6,1.6,1.1,2c0.5,0.5,1.3,0.7,2.3,0.7
			c1,0,1.8-0.3,2.4-0.8c0.6-0.5,0.9-1.3,0.9-2.3c0-1-0.3-1.8-0.8-2.4c-0.5-0.6-1.3-0.8-2.4-0.8c-1.6,0-2.7,0.5-3.3,1.4l-2.2-0.1
			l1-9.3h9.5v2.3h-7.4l-0.6,4.5l-0.1,0.3h0c0.8-0.9,2-1.3,3.6-1.3C599.4,140.1,600.3,140.3,601.1,140.7z"/>
		<path id="XMLID_218_" class="st11" d="M606.6,148.6c2.1-1.5,3.8-2.8,5-3.8c1.2-1,2-2,2.6-2.9c0.5-0.9,0.8-1.8,0.8-2.7
			c0-0.9-0.3-1.6-0.8-2.1c-0.6-0.5-1.3-0.8-2.3-0.8c-1,0-1.8,0.3-2.4,1c-0.6,0.7-0.9,1.6-1,2.8l-2.3-1.1c0.2-1.6,0.8-2.8,1.8-3.7
			c1-0.9,2.4-1.4,4.1-1.4c1.2,0,2.2,0.2,3,0.7c0.9,0.5,1.5,1.1,2,1.8c0.4,0.8,0.7,1.7,0.7,2.6c0,1.6-0.6,3.1-1.7,4.5
			c-1.2,1.4-3.1,3-5.8,4.7v0c0.8-0.1,1.7-0.1,2.7-0.1h5.2v2.3h-11.4V148.6z"/>
		<path id="XMLID_212_" class="st11" d="M627.5,135.2c0.8,0.8,1.1,1.9,1.1,3.3s-0.4,2.5-1.1,3.3s-1.8,1.3-3,1.3s-2.3-0.4-3-1.3
			c-0.8-0.8-1.1-1.9-1.1-3.3s0.4-2.5,1.1-3.3c0.7-0.8,1.8-1.3,3-1.3S626.7,134.4,627.5,135.2z M623,136.6c-0.3,0.5-0.5,1.1-0.5,1.9
			c0,0.8,0.2,1.5,0.5,1.9c0.3,0.5,0.8,0.7,1.4,0.7c0.6,0,1.1-0.2,1.5-0.7c0.3-0.5,0.5-1.1,0.5-1.9c0-0.8-0.2-1.5-0.5-1.9
			c-0.3-0.5-0.8-0.7-1.5-0.7C623.9,135.9,623.4,136.1,623,136.6z M634.5,134.2h2.3l-10.7,16.3h-2.3L634.5,134.2z M639.2,143
			c0.8,0.8,1.1,1.9,1.1,3.3c0,1.4-0.4,2.5-1.1,3.3c-0.7,0.8-1.8,1.3-3,1.3s-2.3-0.4-3-1.3c-0.8-0.8-1.1-1.9-1.1-3.3
			c0-1.4,0.4-2.5,1.1-3.3c0.8-0.8,1.8-1.3,3-1.3S638.4,142.1,639.2,143z M634.7,144.3c-0.3,0.5-0.5,1.1-0.5,1.9
			c0,0.8,0.2,1.5,0.5,1.9c0.3,0.5,0.8,0.7,1.4,0.7c0.6,0,1.1-0.2,1.5-0.7c0.3-0.5,0.5-1.1,0.5-1.9c0-0.8-0.2-1.5-0.5-1.9
			c-0.3-0.5-0.8-0.7-1.5-0.7C635.5,143.7,635.1,143.9,634.7,144.3z"/>
	</g>
	<g id="XMLID_210_">
		<text id="XMLID_400_" transform="matrix(1 0 0 1 443.463 16.7062)" class="st8 st9 st10">Educational services</text>
	</g>
	<rect id="t.educational_1_" x="443.5" y="22.2" class="st0" width="127.5" height="219.6"/>
	<rect id="a.educational_1_" x="443.5" y="176.4" class="st17" width="127.5" height="65.5"/>
	<g id="XMLID_176_">
		<path id="XMLID_208_" class="st11" d="M454.4,195.5c1.6-1.1,2.8-2,3.7-2.8c0.9-0.8,1.5-1.5,1.9-2.1c0.4-0.6,0.6-1.3,0.6-2
			c0-0.6-0.2-1.2-0.6-1.6c-0.4-0.4-1-0.6-1.7-0.6c-0.8,0-1.4,0.2-1.8,0.7s-0.7,1.2-0.8,2.1l-1.7-0.8c0.1-1.2,0.6-2.1,1.3-2.7
			c0.8-0.7,1.8-1,3-1c0.9,0,1.6,0.2,2.2,0.5c0.6,0.3,1.1,0.8,1.4,1.4c0.3,0.6,0.5,1.2,0.5,1.9c0,1.2-0.4,2.3-1.3,3.3
			c-0.9,1-2.3,2.2-4.3,3.5v0c0.6,0,1.3-0.1,2-0.1h3.8v1.7h-8.4V195.5z"/>
		<path id="XMLID_206_" class="st11" d="M473.4,184.9v1.6c-1.5,1.5-2.6,3.1-3.2,4.8c-0.7,1.7-1,3.6-1,5.6h-2c0-1.9,0.3-3.8,1-5.5
			c0.7-1.7,1.7-3.4,3.1-4.8h-7.2v-1.7H473.4z"/>
		<path id="XMLID_177_" class="st11" d="M480,185.6c0.6,0.6,0.8,1.4,0.8,2.4c0,1-0.3,1.8-0.8,2.4s-1.3,0.9-2.2,0.9
			c-0.9,0-1.7-0.3-2.2-0.9c-0.6-0.6-0.8-1.4-0.8-2.4c0-1,0.3-1.8,0.8-2.4c0.6-0.6,1.3-0.9,2.2-0.9C478.7,184.7,479.4,185,480,185.6z
			 M476.7,186.6c-0.2,0.3-0.4,0.8-0.4,1.4c0,0.6,0.1,1.1,0.4,1.4c0.2,0.3,0.6,0.5,1.1,0.5c0.5,0,0.8-0.2,1.1-0.5
			c0.2-0.3,0.4-0.8,0.4-1.4c0-0.6-0.1-1.1-0.4-1.4c-0.2-0.3-0.6-0.5-1.1-0.5C477.3,186.1,476.9,186.3,476.7,186.6z M485.2,184.9h1.7
			l-7.9,12h-1.7L485.2,184.9z M488.6,191.3c0.6,0.6,0.8,1.4,0.8,2.4c0,1-0.3,1.8-0.8,2.4c-0.6,0.6-1.3,0.9-2.2,0.9s-1.7-0.3-2.2-0.9
			c-0.6-0.6-0.8-1.4-0.8-2.4c0-1,0.3-1.8,0.8-2.4c0.6-0.6,1.3-0.9,2.2-0.9S488,190.7,488.6,191.3z M485.3,192.3
			c-0.2,0.3-0.4,0.8-0.4,1.4c0,0.6,0.1,1.1,0.4,1.4c0.2,0.3,0.6,0.5,1.1,0.5c0.5,0,0.8-0.2,1.1-0.5c0.2-0.3,0.4-0.8,0.4-1.4
			c0-0.6-0.1-1.1-0.4-1.4c-0.2-0.3-0.6-0.5-1.1-0.5C485.9,191.8,485.5,192,485.3,192.3z"/>
	</g>
</g>
<g id="numero_employee">
	<g id="soldi_management_1_">
		<text id="XMLID_890_" transform="matrix(1 0 0 1 36.3146 112.523)" class="st11 st18 st19">735.190</text>
	</g>
	<g id="XMLID_888_">
		<text id="XMLID_889_" transform="matrix(1 0 0 1 36.589 305.3668)" class="st11 st18 st19">3.017.039</text>
	</g>
	<g id="XMLID_886_">
		<text id="XMLID_887_" transform="matrix(1 0 0 1 38.3083 450.1549)" class="st11 st18 st19">2.392.003</text>
	</g>
	<g id="XMLID_884_">
		<text id="XMLID_885_" transform="matrix(1 0 0 1 148.4318 415.5777)" class="st11 st18 st19">7.169.348</text>
	</g>
	<g id="XMLID_882_">
		<text id="XMLID_883_" transform="matrix(1 0 0 1 325.3576 435.3531)" class="st11 st18 st19">6.959.802</text>
	</g>
	<g id="XMLID_880_">
		<text id="XMLID_881_" transform="matrix(1 0 0 1 539.3029 437.1568)" class="st11 st18 st19">6.599.053</text>
	</g>
	<g id="XMLID_878_">
		<text id="XMLID_879_" transform="matrix(1 0 0 1 37.3849 208.1314)" class="st11 st18 st19">1.896.211</text>
	</g>
	<g id="XMLID_783_">
		<text id="XMLID_785_" transform="matrix(1 0 0 1 144.7318 280.0826)" class="st11 st18 st19">2.797.719</text>
	</g>
	<g id="XMLID_770_">
		<text id="XMLID_771_" transform="matrix(1 0 0 1 82.8678 112.3561)" class="st11 st18 st19">960.557</text>
	</g>
	<g id="XMLID_768_">
		<text id="XMLID_769_" transform="matrix(1 0 0 1 146.4132 130.5372)" class="st11 st18 st19">2.729.929</text>
	</g>
	<g id="XMLID_766_">
		<text id="XMLID_767_" transform="matrix(1 0 0 1 234.9757 134.5455)" class="st11 st18 st19">2.513.529</text>
	</g>
	<g id="XMLID_764_">
		<text id="XMLID_765_" transform="matrix(1 0 0 1 324.9396 121.3536)" class="st11 st18 st19">8.848.407</text>
	</g>
	<g id="XMLID_762_">
		<text id="XMLID_763_" transform="matrix(1 0 0 1 453.591 210.9596)" class="st11 st18 st19">3.516.791</text>
	</g>
	<g id="XMLID_438_">
		<text id="XMLID_761_" transform="matrix(1 0 0 1 591.8 165.402)" class="st11 st18 st19">8.031.182</text>
	</g>
	<rect id="XMLID_437_" x="31.7" y="86.3" class="st20" width="38.3" height="35.4"/>
	<rect id="XMLID_436_" x="77.8" y="84.9" class="st20" width="50.7" height="36.7"/>
	<rect id="XMLID_376_" x="139" y="99.9" class="st20" width="78.6" height="70.2"/>
	<rect id="XMLID_360_" x="227.7" y="104.5" class="st20" width="77.6" height="65.6"/>
	<rect id="XMLID_187_" x="314.2" y="80.3" class="st20" width="120.3" height="161.6"/>
	<rect id="XMLID_147_" x="443.5" y="176.4" class="st20" width="127.5" height="65.5"/>
	<rect id="XMLID_146_" x="578.9" y="124.9" class="st20" width="156.6" height="116.9"/>
	<rect id="XMLID_145_" x="527.5" y="401" class="st20" width="208" height="66.8"/>
	<rect id="XMLID_143_" x="314.2" y="395.7" class="st20" width="204.3" height="72"/>
	<rect id="XMLID_142_" x="138.9" y="375.4" class="st20" width="166.4" height="92.3"/>
	<rect id="XMLID_141_" x="139" y="253.7" class="st20" width="166.3" height="33.4"/>
	<rect id="XMLID_140_" x="31.1" y="276" class="st20" width="98.6" height="60.6"/>
	<rect id="XMLID_139_" x="31.2" y="179.1" class="st20" width="98.8" height="37.7"/>
	<rect id="XMLID_137_" x="31" y="418.6" class="st20" width="98.9" height="49.2"/>
</g>
</svg>
