<?xml version="1.0" encoding="utf-8"?>
<!-- Generator: Adobe Illustrator 19.0.0, SVG Export Plug-In . SVG Version: 6.00 Build 0)  -->
<svg version="1.1" xmlns="http://www.w3.org/2000/svg" xmlns:xlink="http://www.w3.org/1999/xlink" x="0px" y="0px"
	 viewBox="0 0 750 480" style="enable-background:new 0 0 750 480;" xml:space="preserve">
<style type="text/css">
	.st0{fill:#E4F0F1;}
	.st1{fill:#97B2BB;}
	.st2{fill:#7C9EA8;}
	.st3{fill:#88A6B0;}
	.st4{fill:#BCCDD3;}
	.st5{fill:#6C939E;}
	.st6{fill:#A2BAC2;}
	.st7{fill:#A0B8C0;}
	.st8{fill:#B0C6CC;}
	.st9{fill:#7E9FA9;}
	.st10{fill:#373737;}
	.st11{font-family:'Karla-Regular';}
	.st12{font-size:10px;}
	.st13{fill:#FFFFFF;}
	.st14{fill:#A6BDC5;}
	.st15{fill:#588692;}
	.st16{fill:#96B1BA;}
	.st17{fill:#9AB4BD;}
	.st18{font-family:'WorkSans-Regular';}
	.st19{font-size:7.8px;}
	.st20{font-size:6px;}
	.st21{opacity:0;fill:#FFFFFF;}
</style>
<g id="treemap_wages">
	<title>autom: 285,900</title>
	<title>resto: 518,200</title>
	<title>resto: 89,900</title>
	<title>autom: 197,700</title>
	<title>autom: 122,100</title>
	<title>resto: 155,100</title>
	<title>autom: 150,400</title>
	<title>resto: 466,700</title>
	<title>autom: 114,800</title>
	<title>resto: 202,000</title>
	<title>autom: 289,300</title>
	<title>resto: 588,700</title>
	<title>autom: 47,300</title>
	<title>resto: 103,500</title>
	<title>autom: 40,300</title>
	<title>resto: 97,500</title>
	<title>autom: 275,600</title>
	<title>resto: 273,700</title>
	<title>autom: 65,600</title>
	<title>resto: 83,400</title>
	<title>autom: 152,900</title>
	<title>resto: 368,000</title>
	<title>autom: 242,000</title>
	<title>resto: 247,200</title>
	<title>autom: 125,800</title>
	<title>resto: 89,500</title>
	<title>autom: 106,200</title>
	<title>resto: 177,200</title>
	<rect id="t.finance" x="150.3" y="186.2" class="st0" width="165" height="86.8"/>
	<rect id="t.manufacturing_3_" x="324" y="185.9" class="st0" width="204.9" height="125.9"/>
	<rect id="t.other" x="31.4" y="339.7" class="st0" width="109.4" height="62"/>
	<rect id="t.management_4_" x="31.4" y="418.1" class="st0" width="109.4" height="53"/>
	<rect id="t.transportation_4_" x="31.4" y="155.5" class="st0" width="109.4" height="89.3"/>
	<rect id="t.information_4_" x="31.4" y="261.8" class="st0" width="109.4" height="60.7"/>
	<rect id="t.health" x="536" y="22.2" class="st0" width="208.4" height="209.7"/>
	<rect id="t.educational_3_" x="324" y="22.2" class="st0" width="204.9" height="140"/>
	<rect id="t.retail" x="149.4" y="22.2" class="st0" width="165.8" height="139.8"/>
	<rect id="t.construction_3_" x="31.4" y="22.2" class="st0" width="109.4" height="117.7"/>
	<rect id="a.finance" x="150.3" y="240.2" class="st1" width="165" height="32.8"/>
	<rect id="a.manufacturing_3_" x="324" y="247.4" class="st2" width="204.9" height="64.4"/>
	<rect id="a.other" x="31.4" y="371.7" class="st3" width="109.4" height="30"/>
	<rect id="a.management_5_" x="31.4" y="448.7" class="st4" width="109.4" height="22.4"/>
	<rect id="a.transportation_4_" x="31.3" y="192.9" class="st5" width="109.5" height="51.9"/>
	<rect id="a.information_4_" x="31.4" y="298.9" class="st6" width="109.4" height="23.6"/>
	<rect id="a.health" x="536" y="163.6" class="st7" width="208.4" height="68.3"/>
	<rect id="a.educational_3_" x="324" y="121.8" class="st8" width="204.9" height="40.2"/>
	<rect id="a.retail" x="149.4" y="92.5" class="st9" width="165.8" height="69.5"/>
	<rect id="a.construction_4_" x="31.4" y="88.3" class="st3" width="109.4" height="51.6"/>
	<g id="XMLID_219_">
		<text id="XMLID_368_" transform="matrix(1 0 0 1 149.4445 181.0717)" class="st10 st11 st12">Finance </text>
	</g>
	<g id="XMLID_116_">
		<path id="XMLID_214_" class="st13" d="M163.1,245.9c0.5,0.2,0.8,0.5,1,0.9c0.2,0.4,0.4,0.8,0.4,1.3c0,0.4-0.1,0.8-0.3,1.2
			c-0.2,0.3-0.4,0.6-0.7,0.8c-0.3,0.2-0.5,0.3-0.8,0.3v0c0.4,0,0.7,0.1,1,0.3c0.3,0.2,0.5,0.4,0.7,0.8c0.2,0.3,0.3,0.7,0.3,1.1
			c0,0.5-0.1,1-0.4,1.4c-0.3,0.4-0.7,0.7-1.2,0.9c-0.5,0.2-1.1,0.3-1.8,0.3c-1.7,0-2.8-0.8-3.4-2.3l1.4-0.7c0.1,0.5,0.4,1,0.7,1.2
			c0.3,0.3,0.8,0.4,1.3,0.4c0.6,0,1-0.1,1.3-0.4c0.3-0.3,0.5-0.6,0.5-1.1c0-0.5-0.2-0.9-0.5-1.1c-0.3-0.2-0.8-0.3-1.5-0.3h-0.4v-1.2
			h0.4c1.2,0,1.8-0.5,1.8-1.4c0-0.5-0.1-0.8-0.4-1.1c-0.3-0.2-0.6-0.4-1.1-0.4c-0.5,0-0.9,0.1-1.2,0.4s-0.5,0.6-0.6,1l-1.4-0.6
			c0.2-0.7,0.6-1.2,1.2-1.6c0.6-0.4,1.2-0.6,2-0.6C162,245.6,162.6,245.7,163.1,245.9z"/>
		<path id="XMLID_123_" class="st13" d="M172.1,246c0.5,0.3,0.9,0.8,1.2,1.5l-1.3,0.6c-0.3-0.9-0.9-1.3-1.8-1.3
			c-0.5,0-0.9,0.2-1.2,0.5c-0.3,0.3-0.6,0.7-0.8,1.3c-0.2,0.5-0.3,1.2-0.3,1.8v0.3h0.1c0.2-0.5,0.5-0.9,0.9-1.2s1-0.4,1.5-0.4
			c0.6,0,1.2,0.1,1.6,0.4c0.5,0.2,0.8,0.6,1.1,1c0.3,0.4,0.4,1,0.4,1.6c0,0.9-0.3,1.7-0.9,2.2c-0.6,0.5-1.4,0.8-2.4,0.8
			c-1.2,0-2.1-0.4-2.7-1.3c-0.6-0.9-1-2-1-3.5c0-1,0.2-1.9,0.5-2.6c0.3-0.7,0.8-1.3,1.3-1.6c0.6-0.4,1.2-0.5,1.9-0.5
			C171,245.6,171.6,245.7,172.1,246z M168.8,250.9c-0.3,0.3-0.5,0.7-0.5,1.2c0,0.5,0.2,1,0.5,1.3c0.3,0.3,0.8,0.5,1.3,0.5
			c0.6,0,1-0.2,1.3-0.5c0.3-0.3,0.5-0.7,0.5-1.3c0-0.5-0.2-1-0.5-1.3c-0.3-0.3-0.8-0.5-1.3-0.5C169.6,250.4,169.2,250.6,168.8,250.9
			z"/>
		<path id="XMLID_117_" class="st13" d="M178.9,246.3c0.4,0.5,0.6,1.1,0.6,1.9s-0.2,1.4-0.6,1.9c-0.4,0.5-1,0.7-1.7,0.7
			c-0.7,0-1.3-0.2-1.7-0.7c-0.4-0.5-0.6-1.1-0.6-1.9s0.2-1.4,0.6-1.9c0.4-0.5,1-0.7,1.7-0.7C177.9,245.6,178.5,245.8,178.9,246.3z
			 M176.3,247.1c-0.2,0.3-0.3,0.6-0.3,1.1c0,0.5,0.1,0.8,0.3,1.1c0.2,0.3,0.5,0.4,0.8,0.4c0.4,0,0.6-0.1,0.8-0.4
			c0.2-0.3,0.3-0.6,0.3-1.1c0-0.5-0.1-0.9-0.3-1.1c-0.2-0.3-0.5-0.4-0.8-0.4C176.8,246.7,176.5,246.8,176.3,247.1z M182.9,245.7h1.3
			l-6.1,9.3h-1.3L182.9,245.7z M185.6,250.7c0.4,0.5,0.6,1.1,0.6,1.9s-0.2,1.4-0.6,1.9c-0.4,0.5-1,0.7-1.7,0.7
			c-0.7,0-1.3-0.2-1.7-0.7c-0.4-0.5-0.6-1.1-0.6-1.9s0.2-1.4,0.6-1.9c0.4-0.5,1-0.7,1.7-0.7C184.6,250,185.1,250.2,185.6,250.7z
			 M183,251.5c-0.2,0.3-0.3,0.6-0.3,1.1c0,0.5,0.1,0.9,0.3,1.1c0.2,0.3,0.5,0.4,0.8,0.4c0.4,0,0.6-0.1,0.8-0.4
			c0.2-0.3,0.3-0.6,0.3-1.1c0-0.5-0.1-0.8-0.3-1.1c-0.2-0.3-0.5-0.4-0.8-0.4C183.5,251.1,183.2,251.2,183,251.5z"/>
	</g>
	<g id="XMLID_790_">
		<text id="XMLID_366_" transform="matrix(1 0 0 1 323.9649 181.0717)" class="st10 st11 st12">Manifacturing</text>
	</g>
	<g id="XMLID_778_">
		<path id="XMLID_788_" class="st13" d="M343,265.7c0.8,0.5,1.4,1.1,1.9,1.9c0.4,0.8,0.7,1.7,0.7,2.8c0,1.8-0.6,3.3-1.7,4.3
			c-1.1,1-2.6,1.5-4.4,1.5c-1.6,0-2.8-0.3-3.8-0.9c-1-0.6-1.8-1.6-2.4-2.8l2.6-1.4c0.3,0.9,0.7,1.6,1.2,2.1c0.5,0.5,1.3,0.7,2.4,0.7
			s1.9-0.3,2.5-0.9c0.6-0.6,0.9-1.4,0.9-2.4c0-1.1-0.3-1.9-0.9-2.5c-0.6-0.6-1.4-0.9-2.5-0.9c-1.6,0-2.8,0.5-3.5,1.5l-2.3-0.2
			l1.1-9.7h9.9v2.4H337l-0.6,4.7l-0.1,0.4h0c0.8-0.9,2.1-1.4,3.8-1.4C341.3,265,342.2,265.2,343,265.7z"/>
		<path id="XMLID_785_" class="st13" d="M350.2,274c-1.1-1.5-1.7-3.7-1.7-6.6s0.6-5.1,1.7-6.6s2.7-2.2,4.9-2.2s3.8,0.7,4.9,2.2
			c1.1,1.5,1.7,3.7,1.7,6.6s-0.6,5.1-1.7,6.6c-1.1,1.5-2.8,2.2-4.9,2.2S351.3,275.5,350.2,274z M357.9,272.2c0.6-1.1,1-2.7,1-4.8
			s-0.3-3.7-1-4.8c-0.6-1.1-1.6-1.6-2.8-1.6c-2.5,0-3.7,2.1-3.7,6.4s1.2,6.4,3.7,6.4C356.3,273.9,357.3,273.3,357.9,272.2z"/>
		<path id="XMLID_779_" class="st13" d="M371.6,259.9c0.8,0.9,1.2,2,1.2,3.5c0,1.4-0.4,2.6-1.2,3.5c-0.8,0.9-1.8,1.3-3.1,1.3
			s-2.4-0.4-3.1-1.3c-0.8-0.9-1.2-2-1.2-3.5c0-1.4,0.4-2.6,1.2-3.5c0.8-0.9,1.8-1.3,3.1-1.3S370.8,259.1,371.6,259.9z M367,261.4
			c-0.4,0.5-0.5,1.2-0.5,2c0,0.9,0.2,1.5,0.5,2c0.4,0.5,0.9,0.7,1.5,0.7c0.7,0,1.2-0.2,1.5-0.7c0.4-0.5,0.5-1.1,0.5-2
			c0-0.9-0.2-1.6-0.5-2c-0.4-0.5-0.9-0.7-1.5-0.7C367.8,260.6,367.3,260.9,367,261.4z M379,258.9h2.4L370.2,276h-2.4L379,258.9z
			 M383.8,268c0.8,0.9,1.2,2,1.2,3.5s-0.4,2.6-1.2,3.5c-0.8,0.9-1.8,1.3-3.1,1.3c-1.3,0-2.4-0.4-3.1-1.3c-0.8-0.9-1.2-2-1.2-3.5
			s0.4-2.6,1.2-3.5c0.8-0.9,1.8-1.3,3.1-1.3C382,266.7,383.1,267.1,383.8,268z M379.2,269.5c-0.4,0.5-0.5,1.1-0.5,2
			c0,0.9,0.2,1.6,0.5,2c0.4,0.5,0.9,0.7,1.5,0.7c0.7,0,1.2-0.2,1.5-0.7c0.4-0.5,0.5-1.2,0.5-2c0-0.9-0.2-1.5-0.5-2
			c-0.4-0.5-0.9-0.7-1.5-0.7C380,268.7,379.5,269,379.2,269.5z"/>
	</g>
	<rect id="t.professional_3_" x="324" y="351.1" class="st0" width="204.9" height="119.8"/>
	<rect id="a.professional_2_" x="324.2" y="429.3" class="st14" width="204.5" height="41.7"/>
	<g id="XMLID_208_">
		<text id="XMLID_364_" transform="matrix(1 0 0 1 323.9654 345.3471)" class="st10 st11 st12">Professional, scientific and tech</text>
	</g>
	<g id="XMLID_101_">
		<path id="XMLID_159_" class="st13" d="M333.7,444.5c1.4-1,2.5-1.8,3.3-2.5c0.8-0.7,1.3-1.3,1.7-1.9c0.3-0.6,0.5-1.2,0.5-1.8
			c0-0.6-0.2-1-0.5-1.4s-0.9-0.5-1.5-0.5c-0.7,0-1.2,0.2-1.6,0.7c-0.4,0.4-0.6,1.1-0.7,1.8l-1.5-0.7c0.1-1,0.5-1.8,1.2-2.4
			s1.6-0.9,2.7-0.9c0.8,0,1.4,0.1,2,0.4c0.6,0.3,1,0.7,1.3,1.2s0.4,1.1,0.4,1.7c0,1-0.4,2-1.1,2.9c-0.8,0.9-2,2-3.8,3.1v0
			c0.5,0,1.1-0.1,1.8-0.1h3.4v1.5h-7.4V444.5z"/>
		<path id="XMLID_161_" class="st13" d="M350.1,436.3c0.7,1,1.1,2.3,1.1,4.1c0,1.8-0.4,3.2-1.1,4.1c-0.7,0.9-1.8,1.4-3.2,1.4
			c-1,0-1.8-0.2-2.4-0.6c-0.6-0.4-1.1-1-1.4-1.8l1.6-0.8c0.2,0.6,0.4,1,0.7,1.3c0.3,0.3,0.8,0.4,1.4,0.4c1,0,1.6-0.4,2-1.1
			c0.4-0.7,0.6-1.8,0.6-3.1V440h-0.1c-0.2,0.6-0.5,1.1-1,1.4c-0.5,0.3-1.1,0.4-1.8,0.4c-0.7,0-1.3-0.1-1.8-0.4s-1-0.7-1.3-1.2
			s-0.5-1.1-0.5-1.8c0-1.1,0.3-2,1-2.6s1.6-0.9,2.8-0.9C348.3,434.9,349.4,435.4,350.1,436.3z M345.4,436.9
			c-0.4,0.4-0.6,0.8-0.6,1.5c0,0.6,0.2,1.1,0.6,1.4c0.4,0.3,0.9,0.5,1.5,0.5c0.6,0,1.1-0.2,1.5-0.5c0.4-0.4,0.6-0.8,0.6-1.4
			c0-0.6-0.2-1.1-0.6-1.5c-0.4-0.4-0.9-0.6-1.5-0.6C346.3,436.4,345.8,436.6,345.4,436.9z"/>
		<path id="XMLID_164_" class="st13" d="M357.5,435.7c0.5,0.5,0.7,1.3,0.7,2.2s-0.2,1.6-0.7,2.2c-0.5,0.5-1.2,0.8-2,0.8
			c-0.8,0-1.5-0.3-2-0.8c-0.5-0.5-0.7-1.3-0.7-2.2s0.2-1.6,0.7-2.2c0.5-0.5,1.2-0.8,2-0.8C356.3,434.9,357,435.1,357.5,435.7z
			 M354.6,436.6c-0.2,0.3-0.3,0.7-0.3,1.3c0,0.5,0.1,1,0.3,1.3c0.2,0.3,0.5,0.4,0.9,0.4c0.4,0,0.7-0.1,1-0.4
			c0.2-0.3,0.3-0.7,0.3-1.3c0-0.6-0.1-1-0.3-1.3c-0.2-0.3-0.5-0.4-1-0.4C355.1,436.1,354.8,436.3,354.6,436.6z M362.1,435h1.5
			l-7,10.7h-1.5L362.1,435z M365.2,440.7c0.5,0.5,0.7,1.3,0.7,2.2s-0.2,1.6-0.7,2.2c-0.5,0.5-1.1,0.8-2,0.8c-0.8,0-1.5-0.3-2-0.8
			c-0.5-0.5-0.7-1.3-0.7-2.2s0.2-1.6,0.7-2.2c0.5-0.5,1.1-0.8,2-0.8C364,439.9,364.7,440.2,365.2,440.7z M362.2,441.7
			c-0.2,0.3-0.3,0.7-0.3,1.3c0,0.6,0.1,1,0.3,1.3c0.2,0.3,0.5,0.4,0.9,0.4c0.4,0,0.7-0.1,1-0.4c0.2-0.3,0.3-0.7,0.3-1.3
			c0-0.5-0.1-1-0.3-1.3c-0.2-0.3-0.5-0.4-1-0.4C362.8,441.2,362.5,441.4,362.2,441.7z"/>
	</g>
	<g id="XMLID_228_">
		<rect id="t.accomodation" x="237" y="306.1" class="st0" width="77.3" height="165"/>
		<rect id="a.accomodation" x="237" y="360.2" class="st15" width="77.3" height="110.9"/>
		<g id="XMLID_100_">
			<text id="XMLID_362_" transform="matrix(1 0 0 1 237.0484 292.8042)"><tspan x="0" y="0" class="st10 st11 st12">Accomodation </tspan><tspan x="0" y="9" class="st10 st11 st12">&amp; food</tspan></text>
		</g>
		<g id="XMLID_82_">
			<path id="XMLID_102_" class="st13" d="M252.1,367.6c0.6,0.4,1,0.9,1.3,1.7l-1.5,0.7c-0.3-1-1-1.5-2-1.5c-0.5,0-0.9,0.2-1.3,0.5
				c-0.4,0.3-0.7,0.8-0.9,1.4c-0.2,0.6-0.3,1.3-0.3,2v0.3h0.1c0.2-0.6,0.5-1,1-1.3c0.5-0.3,1.1-0.4,1.7-0.4c0.7,0,1.3,0.1,1.8,0.4
				s0.9,0.7,1.2,1.2c0.3,0.5,0.4,1.1,0.4,1.8c0,1-0.3,1.9-1,2.5c-0.7,0.6-1.6,0.9-2.7,0.9c-1.3,0-2.3-0.5-3-1.4
				c-0.7-1-1.1-2.3-1.1-3.9c0-1.1,0.2-2.1,0.5-2.9c0.4-0.8,0.9-1.4,1.5-1.8c0.6-0.4,1.4-0.6,2.2-0.6
				C250.9,367.1,251.6,367.2,252.1,367.6z M248.5,373c-0.4,0.4-0.6,0.8-0.6,1.4c0,0.6,0.2,1.1,0.5,1.4c0.4,0.4,0.9,0.5,1.5,0.5
				c0.6,0,1.1-0.2,1.5-0.5c0.4-0.3,0.5-0.8,0.5-1.4c0-0.6-0.2-1.1-0.5-1.4c-0.4-0.3-0.9-0.5-1.5-0.5
				C249.3,372.5,248.8,372.6,248.5,373z"/>
			<path id="XMLID_105_" class="st13" d="M261.9,367.8c0.6,0.5,0.9,1.2,0.9,2c0,0.5-0.1,1-0.4,1.4c-0.3,0.4-0.6,0.7-1.1,0.9v0
				c0.6,0.2,1.1,0.6,1.4,1c0.3,0.4,0.5,1,0.5,1.6c0,0.9-0.4,1.6-1.1,2.1c-0.7,0.5-1.6,0.8-2.8,0.8c-1.2,0-2.1-0.3-2.8-0.8
				c-0.7-0.5-1.1-1.2-1.1-2.1c0-0.6,0.2-1.2,0.5-1.6c0.3-0.5,0.8-0.8,1.4-1v0c-0.5-0.2-0.9-0.5-1.1-0.9c-0.3-0.4-0.4-0.9-0.4-1.4
				c0-0.9,0.3-1.5,0.9-2c0.6-0.5,1.5-0.7,2.5-0.7C260.4,367.1,261.3,367.3,261.9,367.8z M261,375.9c0.4-0.3,0.6-0.7,0.6-1.3
				c0-0.5-0.2-1-0.6-1.3c-0.4-0.3-0.9-0.5-1.6-0.5c-0.7,0-1.2,0.2-1.6,0.5c-0.4,0.3-0.6,0.7-0.6,1.3c0,0.5,0.2,1,0.6,1.3
				c0.4,0.3,0.9,0.5,1.6,0.5C260,376.3,260.6,376.2,261,375.9z M258,368.9c-0.3,0.3-0.5,0.6-0.5,1.1c0,0.5,0.2,0.8,0.5,1.1
				c0.3,0.3,0.8,0.4,1.3,0.4c0.5,0,1-0.1,1.3-0.4c0.3-0.3,0.5-0.6,0.5-1.1c0-0.5-0.2-0.8-0.5-1.1c-0.3-0.3-0.8-0.4-1.3-0.4
				C258.8,368.5,258.4,368.6,258,368.9z"/>
			<path id="XMLID_109_" class="st13" d="M269.3,367.9c0.5,0.5,0.7,1.2,0.7,2.1c0,0.9-0.2,1.6-0.7,2.1c-0.5,0.5-1.1,0.8-1.9,0.8
				c-0.8,0-1.4-0.3-1.9-0.8c-0.5-0.5-0.7-1.2-0.7-2.1c0-0.9,0.2-1.6,0.7-2.1c0.5-0.5,1.1-0.8,1.9-0.8
				C268.2,367.1,268.8,367.3,269.3,367.9z M266.5,368.7c-0.2,0.3-0.3,0.7-0.3,1.2c0,0.5,0.1,0.9,0.3,1.2s0.5,0.4,0.9,0.4
				c0.4,0,0.7-0.1,0.9-0.4s0.3-0.7,0.3-1.2c0-0.5-0.1-0.9-0.3-1.2c-0.2-0.3-0.5-0.4-0.9-0.4C267,368.3,266.7,368.4,266.5,368.7z
				 M273.8,367.2h1.4l-6.8,10.4H267L273.8,367.2z M276.7,372.8c0.5,0.5,0.7,1.2,0.7,2.1c0,0.9-0.2,1.6-0.7,2.1
				c-0.5,0.5-1.1,0.8-1.9,0.8c-0.8,0-1.4-0.3-1.9-0.8c-0.5-0.5-0.7-1.2-0.7-2.1c0-0.9,0.2-1.6,0.7-2.1c0.5-0.5,1.1-0.8,1.9-0.8
				C275.6,372,276.2,372.2,276.7,372.8z M273.9,373.6c-0.2,0.3-0.3,0.7-0.3,1.2c0,0.5,0.1,0.9,0.3,1.2c0.2,0.3,0.5,0.4,0.9,0.4
				c0.4,0,0.7-0.1,0.9-0.4c0.2-0.3,0.3-0.7,0.3-1.2c0-0.5-0.1-0.9-0.3-1.2s-0.5-0.4-0.9-0.4C274.4,373.2,274.1,373.4,273.9,373.6z"
				/>
		</g>
	</g>
	<rect id="t.wholesale_4_" x="150.3" y="305.2" class="st0" width="78.1" height="165.8"/>
	<rect id="a.wholesale_4_" x="150.3" y="419.4" class="st16" width="78.1" height="51.7"/>
	<g id="XMLID_80_">
		<text id="XMLID_360_" transform="matrix(1 0 0 1 150.3127 300.913)" class="st10 st11 st12">Wholesale Trade</text>
	</g>
	<g id="XMLID_9_">
		<path id="XMLID_75_" class="st13" d="M162.6,425.3c0.4,0.2,0.7,0.5,1,0.8c0.2,0.3,0.3,0.7,0.3,1.2c0,0.4-0.1,0.8-0.2,1.1
			c-0.2,0.3-0.4,0.6-0.6,0.7c-0.2,0.2-0.5,0.3-0.8,0.3v0c0.3,0,0.6,0.1,0.9,0.2c0.3,0.2,0.5,0.4,0.7,0.7c0.2,0.3,0.2,0.7,0.2,1
			c0,0.5-0.1,0.9-0.4,1.3c-0.3,0.4-0.6,0.7-1.1,0.9c-0.5,0.2-1,0.3-1.6,0.3c-1.5,0-2.6-0.7-3.1-2.1l1.3-0.6c0.1,0.5,0.3,0.9,0.6,1.1
			s0.7,0.4,1.2,0.4c0.5,0,0.9-0.1,1.2-0.4s0.4-0.6,0.4-1c0-0.5-0.1-0.8-0.4-1c-0.3-0.2-0.7-0.3-1.3-0.3h-0.4v-1.1h0.3
			c1.1,0,1.6-0.4,1.6-1.3c0-0.4-0.1-0.8-0.4-1s-0.6-0.3-1-0.3c-0.5,0-0.8,0.1-1.1,0.3c-0.3,0.2-0.4,0.5-0.5,0.9l-1.3-0.5
			c0.2-0.6,0.5-1.1,1.1-1.4c0.5-0.3,1.1-0.5,1.9-0.5C161.7,425,162.2,425.1,162.6,425.3z"/>
		<path id="XMLID_59_" class="st13" d="M171.5,425.2v1.2c-1.1,1.1-1.8,2.2-2.3,3.4c-0.5,1.2-0.7,2.5-0.7,4h-1.4
			c0-1.4,0.2-2.7,0.7-3.9c0.5-1.2,1.2-2.4,2.2-3.4H165v-1.2H171.5z"/>
		<path id="XMLID_8_" class="st13" d="M176.1,425.7c0.4,0.4,0.6,1,0.6,1.7s-0.2,1.3-0.6,1.7c-0.4,0.4-0.9,0.7-1.6,0.7
			c-0.7,0-1.2-0.2-1.6-0.7c-0.4-0.4-0.6-1-0.6-1.7s0.2-1.3,0.6-1.7c0.4-0.4,0.9-0.7,1.6-0.7C175.2,425,175.7,425.3,176.1,425.7z
			 M173.8,426.4c-0.2,0.2-0.3,0.6-0.3,1c0,0.4,0.1,0.8,0.3,1s0.4,0.4,0.8,0.4c0.3,0,0.6-0.1,0.8-0.4s0.3-0.6,0.3-1
			c0-0.4-0.1-0.8-0.3-1c-0.2-0.2-0.4-0.4-0.8-0.4C174.2,426,174,426.2,173.8,426.4z M179.8,425.2h1.2l-5.6,8.6h-1.2L179.8,425.2z
			 M182.3,429.7c0.4,0.4,0.6,1,0.6,1.7s-0.2,1.3-0.6,1.7c-0.4,0.4-0.9,0.7-1.6,0.7c-0.7,0-1.2-0.2-1.6-0.7c-0.4-0.4-0.6-1-0.6-1.7
			s0.2-1.3,0.6-1.7c0.4-0.4,0.9-0.7,1.6-0.7C181.3,429.1,181.9,429.3,182.3,429.7z M179.9,430.5c-0.2,0.2-0.3,0.6-0.3,1
			c0,0.4,0.1,0.8,0.3,1c0.2,0.2,0.4,0.4,0.8,0.4c0.3,0,0.6-0.1,0.8-0.4c0.2-0.2,0.3-0.6,0.3-1c0-0.4-0.1-0.8-0.3-1s-0.4-0.4-0.8-0.4
			C180.3,430.1,180.1,430.2,179.9,430.5z"/>
	</g>
	<g id="XMLID_6_">
		<text id="XMLID_358_" transform="matrix(1 0 0 1 31.3604 335.9329)" class="st10 st11 st12">Other Services</text>
	</g>
	<g id="XMLID_5_">
		<path id="XMLID_170_" class="st13" d="M44.1,382.3h-1.3v2h-1.2v-2h-3.9v-0.8l3.5-5.2h1.6v4.9h1.3V382.3z M39,381.4h2.6v-2.7l0-1.3
			h0c-0.2,0.4-0.4,0.8-0.8,1.3L39,381.4z"/>
		<path id="XMLID_173_" class="st13" d="M51.6,382.3h-1.3v2H49v-2h-3.9v-0.8l3.5-5.2h1.6v4.9h1.3V382.3z M46.4,381.4H49v-2.7l0-1.3
			h0c-0.2,0.4-0.4,0.8-0.8,1.3L46.4,381.4z"/>
		<path id="XMLID_176_" class="st13" d="M56,376.9c0.4,0.4,0.5,0.9,0.5,1.6c0,0.7-0.2,1.2-0.5,1.6c-0.4,0.4-0.8,0.6-1.5,0.6
			c-0.6,0-1.1-0.2-1.5-0.6c-0.4-0.4-0.5-0.9-0.5-1.6c0-0.7,0.2-1.2,0.5-1.6c0.4-0.4,0.8-0.6,1.5-0.6C55.1,376.3,55.6,376.5,56,376.9
			z M53.8,377.6c-0.2,0.2-0.2,0.5-0.2,0.9c0,0.4,0.1,0.7,0.2,0.9c0.2,0.2,0.4,0.3,0.7,0.3c0.3,0,0.5-0.1,0.7-0.3
			c0.2-0.2,0.2-0.5,0.2-0.9c0-0.4-0.1-0.7-0.2-0.9c-0.2-0.2-0.4-0.3-0.7-0.3C54.2,377.2,54,377.3,53.8,377.6z M59.4,376.4h1.1
			l-5.2,7.9h-1.1L59.4,376.4z M61.6,380.6c0.4,0.4,0.5,0.9,0.5,1.6c0,0.7-0.2,1.2-0.5,1.6c-0.4,0.4-0.8,0.6-1.5,0.6
			c-0.6,0-1.1-0.2-1.5-0.6c-0.4-0.4-0.5-0.9-0.5-1.6c0-0.7,0.2-1.2,0.5-1.6c0.4-0.4,0.8-0.6,1.5-0.6C60.8,380,61.3,380.2,61.6,380.6
			z M59.5,381.3c-0.2,0.2-0.2,0.5-0.2,0.9c0,0.4,0.1,0.7,0.2,0.9c0.2,0.2,0.4,0.3,0.7,0.3c0.3,0,0.5-0.1,0.7-0.3
			c0.2-0.2,0.2-0.5,0.2-0.9c0-0.4-0.1-0.7-0.2-0.9s-0.4-0.3-0.7-0.3C59.9,381,59.6,381.1,59.5,381.3z"/>
	</g>
	<g id="XMLID_633_">
		<text id="XMLID_356_" transform="matrix(1 0 0 1 31.3603 413.6781)" class="st10 st11 st12">Management</text>
	</g>
	<g id="XMLID_621_">
		<path id="XMLID_631_" class="st13" d="M39.7,459.1c1-0.7,1.8-1.3,2.3-1.8c0.5-0.5,0.9-0.9,1.2-1.3c0.2-0.4,0.4-0.8,0.4-1.2
			c0-0.4-0.1-0.7-0.4-1c-0.3-0.3-0.6-0.4-1-0.4c-0.5,0-0.8,0.2-1.1,0.5c-0.3,0.3-0.4,0.7-0.5,1.3l-1.1-0.5c0.1-0.7,0.4-1.3,0.8-1.7
			c0.5-0.4,1.1-0.6,1.9-0.6c0.5,0,1,0.1,1.4,0.3c0.4,0.2,0.7,0.5,0.9,0.9c0.2,0.4,0.3,0.8,0.3,1.2c0,0.7-0.3,1.4-0.8,2.1
			s-1.4,1.4-2.7,2.2v0c0.4,0,0.8,0,1.2,0H45v1.1h-5.2V459.1z"/>
		<path id="XMLID_628_" class="st13" d="M51.3,453.4c0.5,0.7,0.8,1.6,0.8,2.9c0,1.3-0.3,2.2-0.8,2.9c-0.5,0.7-1.3,1-2.2,1
			c-0.7,0-1.2-0.1-1.7-0.4c-0.4-0.3-0.8-0.7-1-1.3l1.2-0.5c0.1,0.4,0.3,0.7,0.5,0.9c0.2,0.2,0.5,0.3,1,0.3c0.7,0,1.2-0.3,1.4-0.8
			c0.3-0.5,0.4-1.2,0.4-2.2V456h0c-0.1,0.4-0.3,0.8-0.7,1c-0.4,0.2-0.8,0.3-1.3,0.3c-0.5,0-0.9-0.1-1.3-0.3
			c-0.4-0.2-0.7-0.5-0.9-0.9c-0.2-0.4-0.3-0.8-0.3-1.3c0-0.8,0.2-1.4,0.7-1.8c0.5-0.4,1.1-0.7,2-0.7C50,452.4,50.7,452.7,51.3,453.4
			z M48,453.8c-0.3,0.2-0.4,0.6-0.4,1c0,0.4,0.1,0.8,0.4,1c0.3,0.2,0.6,0.4,1.1,0.4c0.4,0,0.8-0.1,1.1-0.4c0.3-0.3,0.4-0.6,0.4-1
			c0-0.4-0.1-0.8-0.4-1c-0.3-0.3-0.6-0.4-1.1-0.4C48.6,453.5,48.2,453.6,48,453.8z"/>
		<path id="XMLID_622_" class="st13" d="M56.5,453c0.3,0.4,0.5,0.9,0.5,1.5s-0.2,1.1-0.5,1.5c-0.3,0.4-0.8,0.6-1.4,0.6
			c-0.6,0-1-0.2-1.4-0.6c-0.3-0.4-0.5-0.9-0.5-1.5s0.2-1.1,0.5-1.5c0.3-0.4,0.8-0.6,1.4-0.6C55.7,452.4,56.1,452.6,56.5,453z
			 M54.4,453.6c-0.2,0.2-0.2,0.5-0.2,0.9c0,0.4,0.1,0.7,0.2,0.9c0.2,0.2,0.4,0.3,0.7,0.3c0.3,0,0.5-0.1,0.7-0.3
			c0.2-0.2,0.2-0.5,0.2-0.9c0-0.4-0.1-0.7-0.2-0.9c-0.2-0.2-0.4-0.3-0.7-0.3C54.8,453.3,54.6,453.4,54.4,453.6z M59.7,452.5h1.1
			l-4.9,7.5h-1.1L59.7,452.5z M61.9,456.5c0.3,0.4,0.5,0.9,0.5,1.5c0,0.6-0.2,1.1-0.5,1.5c-0.3,0.4-0.8,0.6-1.4,0.6
			c-0.6,0-1-0.2-1.4-0.6c-0.3-0.4-0.5-0.9-0.5-1.5c0-0.6,0.2-1.1,0.5-1.5c0.3-0.4,0.8-0.6,1.4-0.6C61.1,456,61.5,456.2,61.9,456.5z
			 M59.8,457.2c-0.2,0.2-0.2,0.5-0.2,0.9c0,0.4,0.1,0.7,0.2,0.9c0.2,0.2,0.4,0.3,0.7,0.3c0.3,0,0.5-0.1,0.7-0.3
			c0.2-0.2,0.2-0.5,0.2-0.9c0-0.4-0.1-0.7-0.2-0.9c-0.2-0.2-0.4-0.3-0.7-0.3C60.2,456.9,60,457,59.8,457.2z"/>
	</g>
	<g id="XMLID_618_">
		<text id="XMLID_342_" transform="matrix(1 0 0 1 31.3604 151.4692)" class="st10 st11 st12">Transportation </text>
	</g>
	<g id="XMLID_4_">
		<path id="XMLID_616_" class="st13" d="M44.3,204.4c0.4,0.3,0.8,0.6,1,1.1c0.2,0.4,0.4,1,0.4,1.6c0,1-0.3,1.8-0.9,2.4
			c-0.6,0.6-1.4,0.8-2.4,0.8c-0.9,0-1.6-0.2-2.1-0.5c-0.5-0.3-1-0.9-1.3-1.6l1.4-0.8c0.1,0.5,0.4,0.9,0.6,1.2
			c0.3,0.3,0.7,0.4,1.3,0.4c0.6,0,1-0.2,1.4-0.5c0.3-0.3,0.5-0.8,0.5-1.3c0-0.6-0.2-1-0.5-1.4c-0.3-0.3-0.8-0.5-1.4-0.5
			c-0.9,0-1.5,0.3-1.9,0.8l-1.3-0.1l0.6-5.4h5.5v1.3H41l-0.3,2.6l0,0.2h0c0.5-0.5,1.2-0.8,2.1-0.8C43.4,204,43.9,204.1,44.3,204.4z"
			/>
		<path id="XMLID_213_" class="st13" d="M53.2,201.2c0.6,0.5,0.9,1.1,0.9,1.8c0,0.5-0.1,0.9-0.4,1.3c-0.2,0.4-0.6,0.6-1,0.8v0
			c0.6,0.2,1,0.5,1.3,0.9c0.3,0.4,0.5,0.9,0.5,1.5c0,0.8-0.3,1.5-1,1.9c-0.6,0.5-1.5,0.7-2.6,0.7c-1.1,0-1.9-0.2-2.6-0.7
			c-0.6-0.5-1-1.1-1-1.9c0-0.6,0.2-1.1,0.5-1.5c0.3-0.4,0.8-0.7,1.3-0.9v0c-0.4-0.2-0.8-0.5-1-0.8c-0.2-0.4-0.4-0.8-0.4-1.3
			c0-0.8,0.3-1.4,0.9-1.8s1.3-0.7,2.3-0.7C51.9,200.5,52.7,200.7,53.2,201.2z M52.4,208.5c0.4-0.3,0.5-0.7,0.5-1.1
			c0-0.5-0.2-0.9-0.5-1.1c-0.4-0.3-0.8-0.4-1.5-0.4c-0.6,0-1.1,0.1-1.5,0.4s-0.5,0.7-0.5,1.1c0,0.5,0.2,0.9,0.5,1.1
			c0.4,0.3,0.9,0.4,1.5,0.4C51.6,208.9,52.1,208.8,52.4,208.5z M49.8,202.2c-0.3,0.2-0.4,0.6-0.4,1c0,0.4,0.1,0.8,0.4,1
			c0.3,0.2,0.7,0.4,1.2,0.4c0.5,0,0.9-0.1,1.2-0.4c0.3-0.2,0.4-0.6,0.4-1c0-0.4-0.1-0.8-0.4-1c-0.3-0.2-0.7-0.4-1.2-0.4
			C50.4,201.8,50,201.9,49.8,202.2z"/>
		<path id="XMLID_81_" class="st13" d="M60,201.2c0.4,0.5,0.6,1.1,0.6,1.9c0,0.8-0.2,1.4-0.6,1.9c-0.4,0.5-1,0.7-1.7,0.7
			c-0.7,0-1.3-0.2-1.7-0.7c-0.4-0.5-0.6-1.1-0.6-1.9c0-0.8,0.2-1.4,0.6-1.9c0.4-0.5,1-0.7,1.7-0.7C59,200.5,59.6,200.7,60,201.2z
			 M57.4,202c-0.2,0.3-0.3,0.6-0.3,1.1c0,0.5,0.1,0.8,0.3,1.1c0.2,0.3,0.5,0.4,0.8,0.4c0.4,0,0.7-0.1,0.8-0.4
			c0.2-0.3,0.3-0.6,0.3-1.1c0-0.5-0.1-0.9-0.3-1.1c-0.2-0.3-0.5-0.4-0.8-0.4C57.9,201.6,57.6,201.7,57.4,202z M64.1,200.6h1.3
			l-6.2,9.4h-1.3L64.1,200.6z M66.7,205.7c0.4,0.5,0.6,1.1,0.6,1.9s-0.2,1.4-0.6,1.9c-0.4,0.5-1,0.7-1.7,0.7c-0.7,0-1.3-0.2-1.7-0.7
			c-0.4-0.5-0.6-1.1-0.6-1.9s0.2-1.4,0.6-1.9c0.4-0.5,1-0.7,1.7-0.7C65.7,205,66.3,205.2,66.7,205.7z M64.2,206.5
			c-0.2,0.3-0.3,0.6-0.3,1.1c0,0.5,0.1,0.9,0.3,1.1c0.2,0.3,0.5,0.4,0.8,0.4c0.4,0,0.7-0.1,0.8-0.4c0.2-0.3,0.3-0.6,0.3-1.1
			c0-0.5-0.1-0.8-0.3-1.1c-0.2-0.3-0.5-0.4-0.8-0.4C64.7,206.1,64.4,206.2,64.2,206.5z"/>
	</g>
	<g id="XMLID_207_">
		<text id="XMLID_338_" transform="matrix(1 0 0 1 31.3604 257.097)" class="st10 st11 st12">Information</text>
	</g>
	<g id="XMLID_138_">
		<path id="XMLID_205_" class="st13" d="M42.2,302.6c0.4,0.2,0.7,0.5,1,0.8c0.2,0.3,0.3,0.7,0.3,1.2c0,0.4-0.1,0.8-0.2,1.1
			c-0.2,0.3-0.4,0.6-0.6,0.7c-0.2,0.2-0.5,0.3-0.8,0.3v0c0.3,0,0.6,0.1,0.9,0.2c0.3,0.2,0.5,0.4,0.7,0.7c0.2,0.3,0.2,0.7,0.2,1.1
			c0,0.5-0.1,0.9-0.4,1.3c-0.3,0.4-0.6,0.7-1.1,0.9c-0.5,0.2-1,0.3-1.6,0.3c-1.6,0-2.6-0.7-3.1-2.1l1.3-0.6c0.1,0.5,0.3,0.9,0.6,1.1
			c0.3,0.2,0.7,0.4,1.2,0.4c0.5,0,0.9-0.1,1.2-0.4c0.3-0.3,0.4-0.6,0.4-1c0-0.5-0.1-0.8-0.4-1c-0.3-0.2-0.7-0.3-1.3-0.3h-0.4v-1.1
			h0.4c1.1,0,1.6-0.4,1.6-1.3c0-0.4-0.1-0.8-0.4-1s-0.6-0.3-1-0.3c-0.5,0-0.8,0.1-1.1,0.3c-0.3,0.2-0.4,0.5-0.5,0.9l-1.3-0.5
			c0.2-0.6,0.5-1.1,1.1-1.4c0.5-0.3,1.1-0.5,1.9-0.5C41.3,302.3,41.8,302.4,42.2,302.6z"/>
		<path id="XMLID_145_" class="st13" d="M48.7,302.5v8.6h-1.4v-6.4c0-0.3,0-0.5,0-0.7c-0.3,0.3-0.6,0.5-1,0.7
			c-0.4,0.2-0.8,0.4-1.2,0.4L45,304c0.2,0,0.5-0.1,0.9-0.3c0.4-0.2,0.7-0.4,1-0.6c0.3-0.2,0.6-0.4,0.7-0.7H48.7z"/>
		<path id="XMLID_139_" class="st13" d="M54.2,303c0.4,0.4,0.6,1,0.6,1.7s-0.2,1.3-0.6,1.7c-0.4,0.4-0.9,0.7-1.6,0.7
			c-0.7,0-1.2-0.2-1.6-0.7c-0.4-0.4-0.6-1-0.6-1.7s0.2-1.3,0.6-1.7c0.4-0.4,0.9-0.7,1.6-0.7C53.3,302.3,53.8,302.5,54.2,303z
			 M51.9,303.7c-0.2,0.2-0.3,0.6-0.3,1c0,0.4,0.1,0.8,0.3,1c0.2,0.2,0.4,0.4,0.8,0.4c0.3,0,0.6-0.1,0.8-0.4c0.2-0.2,0.3-0.6,0.3-1
			c0-0.4-0.1-0.8-0.3-1c-0.2-0.2-0.4-0.4-0.8-0.4C52.3,303.3,52,303.5,51.9,303.7z M57.9,302.5h1.2l-5.6,8.6h-1.2L57.9,302.5z
			 M60.4,307.1c0.4,0.4,0.6,1,0.6,1.7s-0.2,1.3-0.6,1.7c-0.4,0.4-0.9,0.7-1.6,0.7c-0.7,0-1.2-0.2-1.6-0.7s-0.6-1-0.6-1.7
			s0.2-1.3,0.6-1.7s0.9-0.7,1.6-0.7C59.4,306.4,60,306.6,60.4,307.1z M58,307.8c-0.2,0.2-0.3,0.6-0.3,1c0,0.4,0.1,0.8,0.3,1
			c0.2,0.2,0.4,0.4,0.8,0.4c0.3,0,0.6-0.1,0.8-0.4c0.2-0.2,0.3-0.6,0.3-1c0-0.4-0.1-0.8-0.3-1c-0.2-0.2-0.4-0.4-0.8-0.4
			C58.4,307.4,58.2,307.5,58,307.8z"/>
	</g>
	<g id="XMLID_3_">
		<text id="XMLID_336_" transform="matrix(1 0 0 1 536.2258 17.2641)" class="st10 st11 st12">Health Care </text>
	</g>
	<g id="XMLID_2_">
		<path id="XMLID_192_" class="st13" d="M554.2,173.7c0.6,0.3,1,0.6,1.3,1.1c0.3,0.5,0.4,1,0.4,1.6c0,0.5-0.1,1-0.3,1.5
			c-0.2,0.4-0.5,0.8-0.8,1s-0.7,0.3-1,0.3v0c0.4,0,0.8,0.1,1.2,0.3c0.4,0.2,0.7,0.5,0.9,0.9c0.2,0.4,0.3,0.9,0.3,1.4
			c0,0.6-0.2,1.2-0.5,1.7c-0.3,0.5-0.8,0.9-1.5,1.2s-1.4,0.4-2.2,0.4c-2.1,0-3.5-0.9-4.1-2.8l1.7-0.8c0.2,0.7,0.5,1.2,0.8,1.5
			s0.9,0.5,1.7,0.5c0.7,0,1.2-0.2,1.6-0.5c0.4-0.3,0.6-0.8,0.6-1.4c0-0.6-0.2-1.1-0.6-1.3c-0.4-0.3-1-0.4-1.8-0.4h-0.5v-1.5h0.5
			c1.4,0,2.2-0.6,2.2-1.8c0-0.6-0.2-1-0.5-1.3c-0.3-0.3-0.8-0.5-1.4-0.5c-0.6,0-1.1,0.1-1.5,0.4c-0.4,0.3-0.6,0.7-0.7,1.3l-1.7-0.7
			c0.2-0.8,0.7-1.5,1.4-1.9c0.7-0.5,1.5-0.7,2.5-0.7C552.9,173.3,553.6,173.4,554.2,173.7z"/>
		<path id="XMLID_194_" class="st13" d="M558.5,183.6c1.5-1.1,2.7-2,3.5-2.7c0.8-0.7,1.4-1.4,1.8-2s0.6-1.2,0.6-1.9
			c0-0.6-0.2-1.1-0.6-1.5c-0.4-0.4-0.9-0.6-1.6-0.6c-0.7,0-1.3,0.2-1.7,0.7s-0.7,1.1-0.7,2l-1.6-0.7c0.1-1.1,0.5-2,1.3-2.6
			c0.7-0.6,1.7-1,2.9-1c0.8,0,1.5,0.2,2.1,0.5c0.6,0.3,1.1,0.8,1.4,1.3c0.3,0.5,0.5,1.2,0.5,1.8c0,1.1-0.4,2.2-1.2,3.2
			c-0.8,1-2.2,2.1-4.1,3.3v0c0.6,0,1.2-0.1,1.9-0.1h3.6v1.6h-8V183.6z"/>
		<path id="XMLID_196_" class="st13" d="M573.2,174.1c0.5,0.6,0.8,1.4,0.8,2.3s-0.3,1.7-0.8,2.3s-1.2,0.9-2.1,0.9s-1.6-0.3-2.1-0.9
			c-0.5-0.6-0.8-1.4-0.8-2.3s0.3-1.7,0.8-2.3c0.5-0.6,1.2-0.9,2.1-0.9S572.6,173.5,573.2,174.1z M570,175.1
			c-0.2,0.3-0.4,0.8-0.4,1.4c0,0.6,0.1,1,0.4,1.4s0.6,0.5,1,0.5c0.5,0,0.8-0.2,1-0.5c0.2-0.3,0.4-0.8,0.4-1.4c0-0.6-0.1-1.1-0.4-1.4
			c-0.2-0.3-0.6-0.5-1-0.5C570.6,174.6,570.3,174.8,570,175.1z M578.1,173.4h1.6l-7.5,11.5h-1.6L578.1,173.4z M581.4,179.6
			c0.5,0.6,0.8,1.4,0.8,2.3s-0.3,1.7-0.8,2.3c-0.5,0.6-1.2,0.9-2.1,0.9c-0.9,0-1.6-0.3-2.1-0.9c-0.5-0.6-0.8-1.4-0.8-2.3
			s0.3-1.7,0.8-2.3c0.5-0.6,1.2-0.9,2.1-0.9C580.2,178.7,580.9,179,581.4,179.6z M578.3,180.6c-0.2,0.3-0.4,0.8-0.4,1.4
			c0,0.6,0.1,1,0.4,1.4c0.2,0.3,0.6,0.5,1,0.5c0.5,0,0.8-0.2,1-0.5c0.2-0.3,0.4-0.8,0.4-1.4c0-0.6-0.1-1-0.4-1.4
			c-0.2-0.3-0.6-0.5-1-0.5C578.8,180.1,578.5,180.2,578.3,180.6z"/>
	</g>
	<g id="XMLID_204_">
		<text id="XMLID_334_" transform="matrix(1 0 0 1 323.965 17.2645)" class="st10 st11 st12">Educational Services</text>
	</g>
	<g id="XMLID_182_">
		<path id="XMLID_202_" class="st13" d="M333.3,138.7c1.4-1,2.6-1.9,3.4-2.6c0.8-0.7,1.4-1.3,1.7-1.9c0.3-0.6,0.5-1.2,0.5-1.8
			c0-0.6-0.2-1.1-0.6-1.4c-0.4-0.4-0.9-0.5-1.5-0.5c-0.7,0-1.2,0.2-1.6,0.7c-0.4,0.5-0.6,1.1-0.7,1.9l-1.5-0.7
			c0.1-1.1,0.5-1.9,1.2-2.5c0.7-0.6,1.6-0.9,2.8-0.9c0.8,0,1.5,0.2,2,0.5c0.6,0.3,1,0.7,1.3,1.2c0.3,0.5,0.4,1.1,0.4,1.8
			c0,1.1-0.4,2.1-1.2,3s-2.1,2-3.9,3.2v0c0.6,0,1.2-0.1,1.8-0.1h3.5v1.5h-7.6V138.7z"/>
		<path id="XMLID_189_" class="st13" d="M351.1,137.3h-1.9v2.7h-1.7v-2.7h-5.4v-1.1l4.9-7.1h2.2v6.8h1.9V137.3z M344,135.9h3.6v-3.8
			l0.1-1.8h0c-0.3,0.6-0.6,1.2-1.1,1.8L344,135.9z"/>
		<path id="XMLID_183_" class="st13" d="M357.3,129.7c0.5,0.6,0.8,1.3,0.8,2.2c0,0.9-0.3,1.7-0.8,2.2c-0.5,0.6-1.2,0.8-2,0.8
			c-0.8,0-1.5-0.3-2-0.8c-0.5-0.6-0.8-1.3-0.8-2.2c0-0.9,0.3-1.7,0.8-2.2c0.5-0.6,1.2-0.8,2-0.8
			C356.1,128.9,356.8,129.2,357.3,129.7z M354.3,130.6c-0.2,0.3-0.3,0.7-0.3,1.3c0,0.6,0.1,1,0.3,1.3c0.2,0.3,0.6,0.5,1,0.5
			c0.4,0,0.8-0.2,1-0.5c0.2-0.3,0.3-0.7,0.3-1.3c0-0.6-0.1-1-0.3-1.3c-0.2-0.3-0.6-0.5-1-0.5C354.8,130.2,354.5,130.3,354.3,130.6z
			 M362,129h1.5l-7.2,11h-1.5L362,129z M365.1,134.9c0.5,0.6,0.8,1.3,0.8,2.2s-0.3,1.7-0.8,2.2c-0.5,0.6-1.2,0.8-2,0.8
			c-0.8,0-1.5-0.3-2-0.8c-0.5-0.6-0.8-1.3-0.8-2.2s0.3-1.7,0.8-2.2c0.5-0.6,1.2-0.8,2-0.8C363.9,134.1,364.6,134.3,365.1,134.9z
			 M362.1,135.8c-0.2,0.3-0.3,0.7-0.3,1.3c0,0.6,0.1,1,0.3,1.3c0.2,0.3,0.5,0.5,1,0.5c0.4,0,0.8-0.2,1-0.5c0.2-0.3,0.3-0.7,0.3-1.3
			c0-0.6-0.1-1-0.3-1.3c-0.2-0.3-0.6-0.5-1-0.5C362.7,135.4,362.3,135.5,362.1,135.8z"/>
	</g>
	<g id="XMLID_1_">
		<path id="XMLID_147_" class="st13" d="M168.1,112.5h-2.3v3.4h-2.1v-3.4H157v-1.3l6.1-8.9h2.7v8.5h2.3V112.5z M159.2,110.8h4.5
			v-4.7l0.1-2.2h0c-0.3,0.7-0.8,1.5-1.3,2.3L159.2,110.8z"/>
		<path id="XMLID_150_" class="st13" d="M179.1,103.9c0.9,1.3,1.4,3,1.4,5.1c0,2.3-0.5,4.1-1.4,5.2c-0.9,1.2-2.3,1.8-4,1.8
			c-1.2,0-2.2-0.3-3-0.8c-0.8-0.5-1.4-1.3-1.8-2.3l2.1-1c0.2,0.7,0.5,1.2,0.9,1.6c0.4,0.4,1,0.5,1.8,0.5c1.2,0,2.1-0.5,2.6-1.4
			c0.5-0.9,0.8-2.2,0.8-4v-0.2h-0.1c-0.2,0.8-0.6,1.4-1.3,1.8c-0.7,0.4-1.5,0.6-2.3,0.6c-0.9,0-1.7-0.2-2.3-0.5
			c-0.7-0.4-1.2-0.9-1.6-1.5c-0.4-0.7-0.6-1.4-0.6-2.3c0-1.4,0.4-2.5,1.3-3.3c0.9-0.8,2.1-1.2,3.6-1.2
			C176.8,102,178.2,102.7,179.1,103.9z M173.1,104.7c-0.5,0.4-0.7,1.1-0.7,1.9c0,0.8,0.2,1.4,0.7,1.8c0.5,0.4,1.1,0.7,2,0.7
			c0.8,0,1.4-0.2,1.9-0.7c0.5-0.5,0.7-1.1,0.7-1.8c0-0.8-0.2-1.4-0.7-1.9c-0.5-0.5-1.1-0.7-1.9-0.7
			C174.3,104,173.6,104.2,173.1,104.7z"/>
		<path id="XMLID_153_" class="st13" d="M188.5,103.1c0.6,0.7,0.9,1.6,0.9,2.8c0,1.1-0.3,2.1-0.9,2.8c-0.6,0.7-1.5,1-2.5,1
			c-1,0-1.9-0.3-2.5-1c-0.6-0.7-0.9-1.6-0.9-2.8c0-1.1,0.3-2.1,0.9-2.8c0.6-0.7,1.5-1,2.5-1C187,102,187.9,102.4,188.5,103.1z
			 M184.8,104.2c-0.3,0.4-0.4,0.9-0.4,1.6c0,0.7,0.1,1.2,0.4,1.6c0.3,0.4,0.7,0.6,1.2,0.6c0.5,0,0.9-0.2,1.2-0.6
			c0.3-0.4,0.4-0.9,0.4-1.6c0-0.7-0.1-1.2-0.4-1.6s-0.7-0.6-1.2-0.6C185.5,103.7,185.1,103.8,184.8,104.2z M194.4,102.3h1.9
			l-8.9,13.6h-1.9L194.4,102.3z M198.2,109.5c0.6,0.7,0.9,1.6,0.9,2.8c0,1.1-0.3,2.1-0.9,2.8c-0.6,0.7-1.5,1-2.5,1
			c-1,0-1.9-0.3-2.5-1c-0.6-0.7-0.9-1.6-0.9-2.8c0-1.1,0.3-2.1,0.9-2.8s1.5-1,2.5-1C196.8,108.5,197.6,108.8,198.2,109.5z
			 M194.5,110.7c-0.3,0.4-0.4,0.9-0.4,1.6c0,0.7,0.1,1.2,0.4,1.6c0.3,0.4,0.7,0.6,1.2,0.6c0.5,0,0.9-0.2,1.2-0.6
			c0.3-0.4,0.4-0.9,0.4-1.6c0-0.7-0.1-1.2-0.4-1.6c-0.3-0.4-0.7-0.6-1.2-0.6C195.2,110.1,194.8,110.3,194.5,110.7z"/>
	</g>
	<g id="XMLID_11_">
		<text id="XMLID_332_" transform="matrix(1 0 0 1 149.4445 17.264)" class="st10 st11 st12">Retail trade</text>
	</g>
	<g id="XMLID_96_">
		<text id="XMLID_651_" transform="matrix(1 0 0 1 31.3604 17.264)" class="st10 st11 st12">Construction</text>
	</g>
	<g id="XMLID_83_">
		<path id="XMLID_93_" class="st13" d="M47.6,104.6h-1.9v2.5h-1.7v-2.5h-5.4v-1l4.9-6.5h2.2v6.2h1.9V104.6z M40.5,103.3h3.6v-3.4
			l0.1-1.6h0c-0.3,0.5-0.6,1.1-1.1,1.7L40.5,103.3z"/>
		<path id="XMLID_90_" class="st13" d="M58,104.6h-1.9v2.5h-1.7v-2.5H49v-1l4.9-6.5h2.2v6.2H58V104.6z M50.8,103.3h3.6v-3.4l0.1-1.6
			h0c-0.3,0.5-0.6,1.1-1.1,1.7L50.8,103.3z"/>
		<path id="XMLID_84_" class="st13" d="M64.1,97.7c0.5,0.5,0.8,1.2,0.8,2c0,0.8-0.3,1.5-0.8,2c-0.5,0.5-1.2,0.8-2,0.8
			c-0.8,0-1.5-0.3-2-0.8c-0.5-0.5-0.8-1.2-0.8-2c0-0.8,0.3-1.5,0.8-2c0.5-0.5,1.2-0.8,2-0.8C62.9,96.9,63.6,97.2,64.1,97.7z
			 M61.1,98.5c-0.2,0.3-0.3,0.7-0.3,1.2c0,0.5,0.1,0.9,0.3,1.2c0.2,0.3,0.6,0.4,1,0.4c0.4,0,0.8-0.1,1-0.4c0.2-0.3,0.3-0.7,0.3-1.2
			c0-0.5-0.1-0.9-0.3-1.2c-0.2-0.3-0.6-0.4-1-0.4C61.6,98.1,61.3,98.3,61.1,98.5z M68.8,97.1h1.5l-7.2,10h-1.5L68.8,97.1z
			 M71.9,102.4c0.5,0.5,0.8,1.2,0.8,2c0,0.8-0.3,1.5-0.8,2c-0.5,0.5-1.2,0.8-2,0.8c-0.8,0-1.5-0.3-2-0.8c-0.5-0.5-0.8-1.2-0.8-2
			c0-0.8,0.3-1.5,0.8-2c0.5-0.5,1.2-0.8,2-0.8C70.7,101.7,71.4,101.9,71.9,102.4z M68.9,103.3c-0.2,0.3-0.3,0.7-0.3,1.2
			c0,0.5,0.1,0.9,0.3,1.2c0.2,0.3,0.6,0.4,1,0.4c0.4,0,0.8-0.1,1-0.4c0.2-0.3,0.3-0.7,0.3-1.2c0-0.5-0.1-0.9-0.3-1.2
			c-0.2-0.3-0.6-0.4-1-0.4C69.5,102.9,69.2,103,68.9,103.3z"/>
	</g>
	<rect id="t.admin" x="538.7" y="279.9" class="st0" width="205.9" height="191"/>
	<rect id="a.admin" x="538.7" y="396.5" class="st17" width="205.9" height="74.5"/>
	<g id="XMLID_55_">
		<text id="XMLID_653_" transform="matrix(1 0 0 1 538.6799 273.9006)" class="st10 st11 st12">Administrative</text>
	</g>
	<g id="XMLID_58_">
		<path id="XMLID_126_" class="st13" d="M556.1,407.5c0.6,0.3,1.1,0.7,1.5,1.3c0.3,0.5,0.5,1.1,0.5,1.8c0,0.6-0.1,1.2-0.4,1.7
			c-0.2,0.5-0.6,0.9-0.9,1.1c-0.4,0.3-0.8,0.4-1.2,0.4v0c0.5,0,1,0.1,1.4,0.4c0.4,0.3,0.8,0.6,1,1.1c0.3,0.5,0.4,1,0.4,1.6
			c0,0.7-0.2,1.4-0.6,1.9c-0.4,0.6-1,1-1.7,1.3c-0.7,0.3-1.6,0.5-2.5,0.5c-2.4,0-4-1.1-4.7-3.2l2-0.9c0.2,0.8,0.5,1.3,1,1.7
			s1.1,0.6,1.9,0.6c0.8,0,1.4-0.2,1.9-0.6c0.5-0.4,0.7-0.9,0.7-1.6c0-0.7-0.2-1.2-0.6-1.5c-0.4-0.3-1.1-0.4-2.1-0.4h-0.6v-1.7h0.5
			c1.6,0,2.5-0.7,2.5-2c0-0.7-0.2-1.2-0.6-1.5c-0.4-0.3-0.9-0.5-1.6-0.5c-0.7,0-1.3,0.2-1.7,0.5c-0.4,0.3-0.7,0.8-0.8,1.4l-2-0.8
			c0.3-1,0.8-1.7,1.6-2.2c0.8-0.5,1.8-0.8,2.9-0.8C554.7,407.1,555.5,407.2,556.1,407.5z"/>
		<path id="XMLID_128_" class="st13" d="M568.2,412.5c0.6,0.4,1.1,0.8,1.4,1.5s0.5,1.3,0.5,2.2c0,1.4-0.4,2.5-1.3,3.3
			c-0.9,0.8-2,1.2-3.4,1.2c-1.2,0-2.2-0.2-2.9-0.7c-0.8-0.5-1.4-1.2-1.8-2.2l2-1.1c0.2,0.7,0.5,1.3,0.9,1.6s1,0.5,1.8,0.5
			s1.4-0.2,1.9-0.7c0.5-0.4,0.7-1.1,0.7-1.9c0-0.8-0.2-1.5-0.7-1.9c-0.4-0.4-1.1-0.7-1.9-0.7c-1.2,0-2.1,0.4-2.7,1.1l-1.8-0.1
			l0.8-7.5h7.6v1.8h-5.9l-0.5,3.6l0,0.3h0c0.6-0.7,1.6-1.1,2.9-1.1C566.8,412,567.6,412.1,568.2,412.5z"/>
		<path id="XMLID_130_" class="st13" d="M577.7,408.1c0.6,0.7,0.9,1.6,0.9,2.7c0,1.1-0.3,2-0.9,2.7c-0.6,0.7-1.4,1-2.4,1
			s-1.8-0.3-2.4-1s-0.9-1.6-0.9-2.7c0-1.1,0.3-2,0.9-2.7s1.4-1,2.4-1S577.1,407.4,577.7,408.1z M574.1,409.2
			c-0.3,0.4-0.4,0.9-0.4,1.6c0,0.7,0.1,1.2,0.4,1.5c0.3,0.4,0.7,0.5,1.2,0.5c0.5,0,0.9-0.2,1.2-0.5c0.3-0.4,0.4-0.9,0.4-1.5
			c0-0.7-0.1-1.2-0.4-1.6c-0.3-0.4-0.7-0.5-1.2-0.5C574.8,408.6,574.4,408.8,574.1,409.2z M583.4,407.3h1.8l-8.6,13.1h-1.9
			L583.4,407.3z M587.1,414.3c0.6,0.7,0.9,1.6,0.9,2.7c0,1.1-0.3,2-0.9,2.7c-0.6,0.7-1.4,1-2.4,1c-1,0-1.8-0.3-2.4-1
			c-0.6-0.7-0.9-1.6-0.9-2.7c0-1.1,0.3-2,0.9-2.7c0.6-0.7,1.4-1,2.4-1C585.7,413.3,586.5,413.6,587.1,414.3z M583.5,415.4
			c-0.3,0.4-0.4,0.9-0.4,1.5c0,0.7,0.1,1.2,0.4,1.6c0.3,0.4,0.7,0.5,1.2,0.5c0.5,0,0.9-0.2,1.2-0.5c0.3-0.4,0.4-0.9,0.4-1.6
			c0-0.7-0.1-1.2-0.4-1.5c-0.3-0.4-0.7-0.5-1.2-0.5C584.2,414.8,583.8,415,583.5,415.4z"/>
	</g>
	<title>autom: 285,900</title>
	<title>resto: 518,200</title>
	<title>resto: 89,900</title>
	<title>autom: 197,700</title>
	<title>autom: 122,100</title>
	<title>resto: 155,100</title>
	<title>autom: 150,400</title>
	<title>resto: 466,700</title>
	<title>autom: 114,800</title>
	<title>resto: 202,000</title>
	<title>autom: 289,300</title>
	<title>resto: 588,700</title>
	<title>autom: 47,300</title>
	<title>resto: 103,500</title>
	<title>autom: 40,300</title>
	<title>resto: 97,500</title>
	<title>autom: 275,600</title>
	<title>resto: 273,700</title>
	<title>autom: 65,600</title>
	<title>resto: 83,400</title>
	<title>autom: 152,900</title>
	<title>resto: 368,000</title>
	<title>autom: 242,000</title>
	<title>resto: 247,200</title>
	<title>autom: 125,800</title>
	<title>resto: 89,500</title>
	<title>autom: 106,200</title>
	<title>resto: 177,200</title>
	<title>autom: 285,900</title>
	<title>resto: 518,200</title>
	<title>resto: 89,900</title>
	<title>autom: 197,700</title>
	<title>autom: 122,100</title>
	<title>resto: 155,100</title>
	<title>autom: 150,400</title>
	<title>resto: 466,700</title>
	<title>autom: 114,800</title>
	<title>resto: 202,000</title>
	<title>autom: 289,300</title>
	<title>resto: 588,700</title>
	<title>autom: 47,300</title>
	<title>resto: 103,500</title>
	<title>autom: 40,300</title>
	<title>resto: 97,500</title>
	<title>autom: 275,600</title>
	<title>resto: 273,700</title>
	<title>autom: 65,600</title>
	<title>resto: 83,400</title>
	<title>autom: 152,900</title>
	<title>resto: 368,000</title>
	<title>autom: 242,000</title>
	<title>resto: 247,200</title>
	<title>autom: 125,800</title>
	<title>resto: 89,500</title>
	<title>autom: 106,200</title>
	<title>resto: 177,200</title>
	<title>autom: 285,900</title>
	<title>resto: 518,200</title>
	<title>resto: 89,900</title>
	<title>autom: 197,700</title>
	<title>autom: 122,100</title>
	<title>resto: 155,100</title>
	<title>autom: 150,400</title>
	<title>resto: 466,700</title>
	<title>autom: 114,800</title>
	<title>resto: 202,000</title>
	<title>autom: 289,300</title>
	<title>resto: 588,700</title>
	<title>autom: 47,300</title>
	<title>resto: 103,500</title>
	<title>autom: 40,300</title>
	<title>resto: 97,500</title>
	<title>autom: 275,600</title>
	<title>resto: 273,700</title>
	<title>autom: 65,600</title>
	<title>resto: 83,400</title>
	<title>autom: 152,900</title>
	<title>resto: 368,000</title>
	<title>autom: 242,000</title>
	<title>resto: 247,200</title>
	<title>autom: 125,800</title>
	<title>resto: 89,500</title>
	<title>autom: 106,200</title>
	<title>resto: 177,200</title>
</g>
<g id="numero_soldi">
	<g id="XMLID_410_">
		<text id="XMLID_412_" transform="matrix(1 0 0 1 158.4216 127.4681)" class="st13 st18 st19">119.714 M$</text>
	</g>
	<g id="XMLID_407_">
		<text id="XMLID_409_" transform="matrix(1 0 0 1 332.6525 150.9134)" class="st13 st18 st19">36.656 M$</text>
	</g>
	<g id="XMLID_404_">
		<text id="XMLID_406_" transform="matrix(1 0 0 1 157.9121 266.3256)" class="st13 st18 st19">41.601 M$</text>
	</g>
	<g id="XMLID_401_">
		<text id="XMLID_403_" transform="matrix(1 0 0 1 548.629 197.1606)" class="st13 st18 st19">95.324 M$</text>
	</g>
	<g id="XMLID_398_">
		<text id="XMLID_400_" transform="matrix(1 0 0 1 333.4035 457.205)" class="st13 st18 st19">44.881 M$</text>
	</g>
	<g id="XMLID_395_">
		<text id="XMLID_418_" transform="matrix(1 0 0 1 157.9123 444.9882)" class="st13 st18 st19">39.797 M$</text>
	</g>
	<g id="XMLID_392_">
		<text id="XMLID_816_" transform="matrix(1 0 0 1 38.9532 468.2015)" class="st13 st18 st20">11.786 M$</text>
	</g>
	<g id="XMLID_389_">
		<text id="XMLID_818_" transform="matrix(1 0 0 1 333.3015 287.976)" class="st13 st18 st19">11.786 M$</text>
	</g>
	<g id="XMLID_386_">
		<text id="XMLID_820_" transform="matrix(1 0 0 1 36.9763 393.2904)" class="st13 st18 st20">28.882 M$</text>
	</g>
	<g id="XMLID_383_">
		<text id="XMLID_822_" transform="matrix(1 0 0 1 37.6715 318.5815)" class="st13 st18 st20">14.836 M$</text>
	</g>
	<g id="XMLID_380_">
		<text id="XMLID_824_" transform="matrix(1 0 0 1 38.9723 221.9339)" class="st13 st18 st19">73.505 M$</text>
	</g>
	<g id="XMLID_377_">
		<text id="XMLID_826_" transform="matrix(1 0 0 1 40.1164 118.7801)" class="st13 st18 st19">53.782 M$</text>
	</g>
	<g id="XMLID_374_">
		<text id="XMLID_827_" transform="matrix(1 0 0 1 246.3497 389.3599)" class="st13 st18 st19">135.902 M$</text>
	</g>
	<g id="XMLID_371_">
		<text id="XMLID_828_" transform="matrix(1 0 0 1 549.009 432.6425)" class="st13 st18 st19">101.653 M$</text>
	</g>
	<rect id="XMLID_370_" x="31.4" y="88.3" class="st21" width="109.4" height="51.6"/>
	<rect id="XMLID_369_" x="324" y="121.8" class="st21" width="204.9" height="40.2"/>
	<rect id="XMLID_367_" x="536" y="163.6" class="st21" width="208.4" height="68.3"/>
	<rect id="XMLID_365_" x="324" y="429.3" class="st21" width="204.9" height="41.7"/>
	<rect id="XMLID_108_" x="237" y="360.2" class="st21" width="77.3" height="110.9"/>
	<rect id="XMLID_79_" x="31.4" y="298.9" class="st21" width="109.4" height="23.6"/>
	<rect id="XMLID_76_" x="31.4" y="371.7" class="st21" width="109.4" height="30"/>
	<rect id="XMLID_74_" x="150.3" y="419.3" class="st21" width="78.1" height="51.7"/>
	<rect id="XMLID_73_" x="31.4" y="448.7" class="st21" width="109.4" height="22.4"/>
	<rect id="XMLID_72_" x="324" y="247.4" class="st21" width="204.9" height="64.4"/>
	<rect id="XMLID_71_" x="538.7" y="396.5" class="st21" width="205.9" height="74.5"/>
	<rect id="XMLID_69_" x="31.3" y="192.9" class="st21" width="109.5" height="51.9"/>
	<rect id="XMLID_67_" x="149.4" y="92.5" class="st21" width="165.8" height="69.5"/>
	<rect id="XMLID_65_" x="150.3" y="240.2" class="st21" width="165" height="32.8"/>
</g>
</svg>
